<?xml version="1.0" encoding="UTF-8" standalone="no"?>
<!-- Created with Inkscape (http://www.inkscape.org/) -->

<svg
   xmlns:ns0="http://www.iki.fi/pav/software/textext/"
   xmlns:dc="http://purl.org/dc/elements/1.1/"
   xmlns:cc="http://creativecommons.org/ns#"
   xmlns:rdf="http://www.w3.org/1999/02/22-rdf-syntax-ns#"
   xmlns:svg="http://www.w3.org/2000/svg"
   xmlns="http://www.w3.org/2000/svg"
   xmlns:xlink="http://www.w3.org/1999/xlink"
   xmlns:sodipodi="http://sodipodi.sourceforge.net/DTD/sodipodi-0.dtd"
   xmlns:inkscape="http://www.inkscape.org/namespaces/inkscape"
   width="93.153023mm"
   height="91.18605mm"
   viewBox="0 0 330.06977 323.10017"
   id="bidir-filter-example"
   version="1.1"
   inkscape:version="0.91 r13725"
   sodipodi:docname="bidir-filter-example.svg">
  <defs
     id="defs4">
    <marker
       inkscape:isstock="true"
       style="overflow:visible;"
       id="marker4348"
       refX="0.0"
       refY="0.0"
       orient="auto"
       inkscape:stockid="Arrow1Send">
      <path
         transform="scale(0.2) rotate(180) translate(6,0)"
         style="fill-rule:evenodd;stroke:#b7e844;stroke-width:1pt;stroke-opacity:0.5678392;fill:#b7e844;fill-opacity:0.5678392"
         d="M 0.0,0.0 L 5.0,-5.0 L -12.5,0.0 L 5.0,5.0 L 0.0,0.0 z "
         id="path4350" />
    </marker>
    <marker
       inkscape:isstock="true"
       style="overflow:visible;"
       id="marker8344"
       refX="0.0"
       refY="0.0"
       orient="auto"
       inkscape:stockid="Arrow1Send">
      <path
         transform="scale(0.2) rotate(180) translate(6,0)"
         style="fill-rule:evenodd;stroke:#e84444;stroke-width:1pt;stroke-opacity:1;fill:#e84444;fill-opacity:1"
         d="M 0.0,0.0 L 5.0,-5.0 L -12.5,0.0 L 5.0,5.0 L 0.0,0.0 z "
         id="path8346" />
    </marker>
    <marker
       inkscape:stockid="Arrow1Send"
       orient="auto"
       refY="0.0"
       refX="0.0"
       id="marker5712"
       style="overflow:visible;"
       inkscape:isstock="true"
       inkscape:collect="always">
      <path
         id="path5714"
         d="M 0.0,0.0 L 5.0,-5.0 L -12.5,0.0 L 5.0,5.0 L 0.0,0.0 z "
         style="fill-rule:evenodd;stroke:#b7e844;stroke-width:1pt;stroke-opacity:1;fill:#b7e844;fill-opacity:1"
         transform="scale(0.2) rotate(180) translate(6,0)" />
    </marker>
    <marker
       inkscape:stockid="Arrow1Mend"
       orient="auto"
       refY="0.0"
       refX="0.0"
       id="Arrow1Mend"
       style="overflow:visible;"
       inkscape:isstock="true">
      <path
         id="path4301"
         d="M 0.0,0.0 L 5.0,-5.0 L -12.5,0.0 L 5.0,5.0 L 0.0,0.0 z "
         style="fill-rule:evenodd;stroke:#000000;stroke-width:1pt;stroke-opacity:1;fill:#000000;fill-opacity:1"
         transform="scale(0.4) rotate(180) translate(10,0)" />
    </marker>
    <marker
       inkscape:stockid="Arrow1Lend"
       orient="auto"
       refY="0.0"
       refX="0.0"
       id="Arrow1Lend"
       style="overflow:visible;"
       inkscape:isstock="true">
      <path
         id="path4295"
         d="M 0.0,0.0 L 5.0,-5.0 L -12.5,0.0 L 5.0,5.0 L 0.0,0.0 z "
         style="fill-rule:evenodd;stroke:#000000;stroke-width:1pt;stroke-opacity:1;fill:#000000;fill-opacity:1"
         transform="scale(0.8) rotate(180) translate(12.5,0)" />
    </marker>
    <marker
       inkscape:stockid="Arrow1Send"
       orient="auto"
       refY="0.0"
       refX="0.0"
       id="Arrow1Send"
       style="overflow:visible;"
       inkscape:isstock="true">
      <path
         id="path4307"
         d="M 0.0,0.0 L 5.0,-5.0 L -12.5,0.0 L 5.0,5.0 L 0.0,0.0 z "
         style="fill-rule:evenodd;stroke:#838383;stroke-width:1pt;stroke-opacity:1;fill:#838383;fill-opacity:1"
         transform="scale(0.2) rotate(180) translate(6,0)" />
    </marker>
    <clipPath
       clipPathUnits="userSpaceOnUse"
       id="clipPath6562">
      <rect
         y="350.86328"
         x="171.12352"
         height="39.080231"
         width="39.080231"
         id="rect6564"
         style="fill:none;stroke:#ff0000;stroke-width:1.0579989;stroke-linecap:round;stroke-linejoin:round;stroke-miterlimit:4;stroke-dasharray:none;stroke-dashoffset:0;stroke-opacity:1" />
    </clipPath>
    <clipPath
       clipPathUnits="userSpaceOnUse"
       id="clipPath6574">
      <rect
         style="fill:none;stroke:#000000;stroke-width:1.20000005;stroke-miterlimit:4;stroke-dasharray:none;stroke-opacity:1"
         id="rect6576"
         width="35.914066"
         height="37.090759"
         x="171.48213"
         y="353.16888"
         ry="0" />
    </clipPath>
    <clipPath
       clipPathUnits="userSpaceOnUse"
       id="clipPath6580">
      <rect
         style="fill:none;stroke:#000000;stroke-width:1.20000005;stroke-miterlimit:4;stroke-dasharray:none;stroke-opacity:1"
         id="rect6582"
         width="35.914066"
         height="37.090759"
         x="171.48213"
         y="353.16888"
         ry="0" />
    </clipPath>
    <clipPath
       clipPathUnits="userSpaceOnUse"
       id="clipPath3018">
      <rect
         style="fill:none;stroke:#000000;stroke-width:1.20000005;stroke-miterlimit:4;stroke-dasharray:none;stroke-opacity:1"
         id="rect3020"
         width="35.914066"
         height="37.090759"
         x="171.48213"
         y="353.16888"
         ry="0" />
    </clipPath>
    <clipPath
       clipPathUnits="userSpaceOnUse"
       id="clipPath6896">
      <rect
         y="256.73477"
         x="288.26141"
         height="86.029518"
         width="86.029518"
         id="rect6898"
         style="opacity:1;fill:#ffffff;fill-opacity:0.48908296;fill-rule:nonzero;stroke:#06ff00;stroke-width:1;stroke-linecap:round;stroke-linejoin:round;stroke-miterlimit:4;stroke-dasharray:none;stroke-dashoffset:0;stroke-opacity:1" />
    </clipPath>
    <clipPath
       clipPathUnits="userSpaceOnUse"
       id="clipPath6562-3">
      <rect
         y="350.86328"
         x="171.12352"
         height="39.080231"
         width="39.080231"
         id="rect6564-6"
         style="fill:none;stroke:#ff0000;stroke-width:1.0579989;stroke-linecap:round;stroke-linejoin:round;stroke-miterlimit:4;stroke-dasharray:none;stroke-dashoffset:0;stroke-opacity:1" />
    </clipPath>
    <clipPath
       clipPathUnits="userSpaceOnUse"
       id="clipPath6574-6">
      <rect
         style="fill:none;stroke:#000000;stroke-width:1.20000005;stroke-miterlimit:4;stroke-dasharray:none;stroke-opacity:1"
         id="rect6576-7"
         width="35.914066"
         height="37.090759"
         x="171.48213"
         y="353.16888"
         ry="0" />
    </clipPath>
    <clipPath
       clipPathUnits="userSpaceOnUse"
       id="clipPath6580-6">
      <rect
         style="fill:none;stroke:#000000;stroke-width:1.20000005;stroke-miterlimit:4;stroke-dasharray:none;stroke-opacity:1"
         id="rect6582-7"
         width="35.914066"
         height="37.090759"
         x="171.48213"
         y="353.16888"
         ry="0" />
    </clipPath>
    <clipPath
       clipPathUnits="userSpaceOnUse"
       id="clipPath3018-1">
      <rect
         style="fill:none;stroke:#000000;stroke-width:1.20000005;stroke-miterlimit:4;stroke-dasharray:none;stroke-opacity:1"
         id="rect3020-7"
         width="35.914066"
         height="37.090759"
         x="171.48213"
         y="353.16888"
         ry="0" />
    </clipPath>
    <clipPath
       clipPathUnits="userSpaceOnUse"
       id="clipPath6896-6">
      <rect
         y="256.73477"
         x="288.26141"
         height="86.029518"
         width="86.029518"
         id="rect6898-9"
         style="opacity:1;fill:#ffffff;fill-opacity:0.48908296;fill-rule:nonzero;stroke:#06ff00;stroke-width:1;stroke-linecap:round;stroke-linejoin:round;stroke-miterlimit:4;stroke-dasharray:none;stroke-dashoffset:0;stroke-opacity:1" />
    </clipPath>
    <clipPath
       clipPathUnits="userSpaceOnUse"
       id="clipPath7605">
      <rect
         style="opacity:1;fill:#e1ffe4;fill-opacity:1;fill-rule:evenodd;stroke:none;stroke-width:1;stroke-linecap:round;stroke-linejoin:miter;stroke-miterlimit:4;stroke-dasharray:none;stroke-dashoffset:0;stroke-opacity:0.94901961"
         id="rect7607"
         width="223.66156"
         height="187.48523"
         x="461.03986"
         y="161.98232" />
    </clipPath>
    <marker
       inkscape:stockid="Arrow2Send"
       orient="auto"
       refY="0.0"
       refX="0.0"
       id="marker7127"
       style="overflow:visible;"
       inkscape:isstock="true">
      <path
         id="path7129"
         style="fill-rule:evenodd;stroke-width:0.625;stroke-linejoin:round;stroke:#ffd527;stroke-opacity:1;fill:#ffd527;fill-opacity:1"
         d="M 8.7185878,4.0337352 L -2.2072895,0.016013256 L 8.7185884,-4.0017078 C 6.9730900,-1.6296469 6.9831476,1.6157441 8.7185878,4.0337352 z "
         transform="scale(0.3) rotate(180) translate(-2.3,0)" />
    </marker>
    <marker
       inkscape:isstock="true"
       style="overflow:visible;"
       id="marker5943"
       refX="0.0"
       refY="0.0"
       orient="auto"
       inkscape:stockid="Arrow2Send">
      <path
         inkscape:connector-curvature="0"
         transform="matrix(-0.3,0,0,-0.3,0.69,0)"
         d="M 8.7185878,4.0337352 -2.2072895,0.01601326 8.7185884,-4.0017078 c -1.7454984,2.3720609 -1.7354408,5.6174519 -6e-7,8.035443 z"
         style="fill:#ffd527;fill-opacity:1;fill-rule:evenodd;stroke:#ffd527;stroke-width:0.625;stroke-linejoin:round;stroke-opacity:1"
         id="path5945" />
    </marker>
    <marker
       inkscape:stockid="Arrow2Send"
       orient="auto"
       refY="0.0"
       refX="0.0"
       id="marker5799"
       style="overflow:visible;"
       inkscape:isstock="true">
      <path
         id="path5801"
         style="fill-rule:evenodd;stroke-width:0.625;stroke-linejoin:round;stroke:#ffd527;stroke-opacity:1;fill:#ffd527;fill-opacity:1"
         d="M 8.7185878,4.0337352 L -2.2072895,0.016013256 L 8.7185884,-4.0017078 C 6.9730900,-1.6296469 6.9831476,1.6157441 8.7185878,4.0337352 z "
         transform="scale(0.3) rotate(180) translate(-2.3,0)" />
    </marker>
    <marker
       inkscape:isstock="true"
       style="overflow:visible;"
       id="marker5645"
       refX="0.0"
       refY="0.0"
       orient="auto"
       inkscape:stockid="Arrow2Send">
      <path
         transform="scale(0.3) rotate(180) translate(-2.3,0)"
         d="M 8.7185878,4.0337352 L -2.2072895,0.016013256 L 8.7185884,-4.0017078 C 6.9730900,-1.6296469 6.9831476,1.6157441 8.7185878,4.0337352 z "
         style="fill-rule:evenodd;stroke-width:0.625;stroke-linejoin:round;stroke:#ffd527;stroke-opacity:1;fill:#ffd527;fill-opacity:1"
         id="path5647" />
    </marker>
    <marker
       inkscape:isstock="true"
       style="overflow:visible;"
       id="marker4422"
       refX="0.0"
       refY="0.0"
       orient="auto"
       inkscape:stockid="Arrow1Send">
      <path
         transform="scale(0.2) rotate(180) translate(6,0)"
         style="fill-rule:evenodd;stroke:#000000;stroke-width:1pt;stroke-opacity:1;fill:#000000;fill-opacity:1"
         d="M 0.0,0.0 L 5.0,-5.0 L -12.5,0.0 L 5.0,5.0 L 0.0,0.0 z "
         id="path4424" />
    </marker>
    <marker
       inkscape:isstock="true"
       style="overflow:visible;"
       id="Arrow1Send-2"
       refX="0.0"
       refY="0.0"
       orient="auto"
       inkscape:stockid="Arrow1Send">
      <path
         transform="scale(0.2) rotate(180) translate(6,0)"
         style="fill-rule:evenodd;stroke:#000000;stroke-width:1pt;stroke-opacity:1;fill:#000000;fill-opacity:1"
         d="M 0.0,0.0 L 5.0,-5.0 L -12.5,0.0 L 5.0,5.0 L 0.0,0.0 z "
         id="path4161" />
    </marker>
    <marker
       inkscape:isstock="true"
       style="overflow:visible"
       id="marker4348-3"
       refX="0"
       refY="0"
       orient="auto"
       inkscape:stockid="Arrow1Send">
      <path
         inkscape:connector-curvature="0"
         transform="matrix(-0.2,0,0,-0.2,-1.2,0)"
         style="fill:#b7e844;fill-opacity:0.5678392;fill-rule:evenodd;stroke:#b7e844;stroke-width:1pt;stroke-opacity:0.5678392"
         d="M 0,0 5,-5 -12.5,0 5,5 0,0 Z"
         id="path4350-9" />
    </marker>
    <marker
       inkscape:isstock="true"
       style="overflow:visible"
       id="marker8344-2"
       refX="0"
       refY="0"
       orient="auto"
       inkscape:stockid="Arrow1Send">
      <path
         inkscape:connector-curvature="0"
         transform="matrix(-0.2,0,0,-0.2,-1.2,0)"
         style="fill:#e84444;fill-opacity:1;fill-rule:evenodd;stroke:#e84444;stroke-width:1pt;stroke-opacity:1"
         d="M 0,0 5,-5 -12.5,0 5,5 0,0 Z"
         id="path8346-8" />
    </marker>
    <marker
       inkscape:stockid="Arrow1Send"
       orient="auto"
       refY="0"
       refX="0"
       id="Arrow1Send-1"
       style="overflow:visible"
       inkscape:isstock="true">
      <path
         inkscape:connector-curvature="0"
         id="path4307-1"
         d="M 0,0 5,-5 -12.5,0 5,5 0,0 Z"
         style="fill:#838383;fill-opacity:1;fill-rule:evenodd;stroke:#838383;stroke-width:1pt;stroke-opacity:1"
         transform="matrix(-0.2,0,0,-0.2,-1.2,0)" />
    </marker>
    <marker
       style="overflow:visible"
       id="Arrow2Send"
       refX="0"
       refY="0"
       orient="auto"
       inkscape:stockid="Arrow2Send">
      <path
         transform="matrix(-0.3,0,0,-0.3,0.69,0)"
         d="M 8.7185878,4.0337352 -2.2072895,0.01601326 8.7185884,-4.0017078 c -1.7454984,2.3720609 -1.7354408,5.6174519 -6e-7,8.035443 z"
         style="fill-rule:evenodd;stroke-width:0.625;stroke-linejoin:round"
         id="path10064"
         inkscape:connector-curvature="0" />
    </marker>
    <marker
       style="overflow:visible"
       id="Arrow2Mend"
       refX="0"
       refY="0"
       orient="auto"
       inkscape:stockid="Arrow2Mend">
      <path
         transform="scale(-0.6,-0.6)"
         d="M 8.7185878,4.0337352 -2.2072895,0.01601326 8.7185884,-4.0017078 c -1.7454984,2.3720609 -1.7354408,5.6174519 -6e-7,8.035443 z"
         style="fill-rule:evenodd;stroke-width:0.625;stroke-linejoin:round"
         id="path10058"
         inkscape:connector-curvature="0" />
    </marker>
    <radialGradient
       r="30.836206"
       fy="326.95718"
       fx="177.96271"
       cy="326.95718"
       cx="177.96271"
       gradientTransform="matrix(1,0,0,0.26155577,0,241.43965)"
       gradientUnits="userSpaceOnUse"
       id="radialGradient3888"
       xlink:href="#linearGradient3865-3"
       inkscape:collect="always" />
    <linearGradient
       id="linearGradient3865-3">
      <stop
         style="stop-color:#ff0000;stop-opacity:1;"
         offset="0"
         id="stop3867-9" />
      <stop
         id="stop9631"
         offset="0.5"
         style="stop-color:#ff0000;stop-opacity:0.49803922;" />
      <stop
         style="stop-color:#ff0000;stop-opacity:0;"
         offset="1"
         id="stop3869-1" />
    </linearGradient>
    <radialGradient
       inkscape:collect="always"
       xlink:href="#linearGradient3865-3"
       id="radialGradient3871-9"
       cx="177.96271"
       cy="326.95718"
       fx="177.96271"
       fy="326.95718"
       r="30.836206"
       gradientTransform="matrix(1,0,0,0.26155577,0,241.43965)"
       gradientUnits="userSpaceOnUse" />
    <radialGradient
       inkscape:collect="always"
       xlink:href="#linearGradient3865"
       id="radialGradient3871"
       cx="177.96271"
       cy="326.95718"
       fx="177.96271"
       fy="326.95718"
       r="30.836206"
       gradientTransform="matrix(1,0,0,0.26155577,0,241.43965)"
       gradientUnits="userSpaceOnUse" />
    <marker
       inkscape:stockid="Arrow1Mend"
       orient="auto"
       refY="0"
       refX="0"
       id="marker5085"
       style="overflow:visible">
      <path
         inkscape:connector-curvature="0"
         id="path5087"
         d="M 0,0 5,-5 -12.5,0 5,5 0,0 z"
         style="fill-rule:evenodd;stroke:#000000;stroke-width:1pt"
         transform="matrix(-0.4,0,0,-0.4,-4,0)" />
    </marker>
    <marker
       inkscape:stockid="Arrow1Mend"
       orient="auto"
       refY="0"
       refX="0"
       id="Arrow1Mend-1"
       style="overflow:visible">
      <path
         inkscape:connector-curvature="0"
         id="path4572-2"
         d="M 0,0 5,-5 -12.5,0 5,5 0,0 z"
         style="fill-rule:evenodd;stroke:#000000;stroke-width:1pt"
         transform="matrix(-0.4,0,0,-0.4,-4,0)" />
    </marker>
    <marker
       inkscape:stockid="Arrow1Mend"
       orient="auto"
       refY="0"
       refX="0"
       id="marker5044"
       style="overflow:visible">
      <path
         inkscape:connector-curvature="0"
         id="path5046"
         d="M 0,0 5,-5 -12.5,0 5,5 0,0 z"
         style="fill-rule:evenodd;stroke:#000000;stroke-width:1pt"
         transform="matrix(-0.4,0,0,-0.4,-4,0)" />
    </marker>
    <marker
       inkscape:stockid="Arrow1Mend"
       orient="auto"
       refY="0"
       refX="0"
       id="Arrow1Mend-9"
       style="overflow:visible">
      <path
         inkscape:connector-curvature="0"
         id="path4572-5"
         d="M 0,0 5,-5 -12.5,0 5,5 0,0 z"
         style="fill-rule:evenodd;stroke:#000000;stroke-width:1pt"
         transform="matrix(-0.4,0,0,-0.4,-4,0)" />
    </marker>
    <marker
       inkscape:stockid="Arrow1Mend"
       orient="auto"
       refY="0"
       refX="0"
       id="Arrow1Mend-5"
       style="overflow:visible">
      <path
         inkscape:connector-curvature="0"
         id="path4572-1"
         d="M 0,0 5,-5 -12.5,0 5,5 0,0 z"
         style="fill-rule:evenodd;stroke:#000000;stroke-width:1pt"
         transform="matrix(-0.4,0,0,-0.4,-4,0)" />
    </marker>
    <radialGradient
       inkscape:collect="always"
       xlink:href="#linearGradient3770"
       id="radialGradient3784"
       cx="369.27884"
       cy="5.2640076"
       fx="369.27884"
       fy="5.2640076"
       r="215.66249"
       gradientTransform="matrix(0.33319212,0,0,0.18036941,251.18418,188.96276)"
       gradientUnits="userSpaceOnUse" />
    <radialGradient
       inkscape:collect="always"
       xlink:href="#linearGradient3770"
       id="radialGradient3776"
       cx="389.41205"
       cy="87.15303"
       fx="389.41205"
       fy="87.15303"
       r="83.417625"
       gradientUnits="userSpaceOnUse"
       gradientTransform="matrix(2.2418552,1.2254582,-0.7482609,1.3688699,-497.72646,-484.55167)" />
    <linearGradient
       id="linearGradient3770">
      <stop
         style="stop-color:#646464;stop-opacity:1;"
         offset="0"
         id="stop3772" />
      <stop
         style="stop-color:#d9d9d9;stop-opacity:1;"
         offset="1"
         id="stop3774" />
    </linearGradient>
    <marker
       inkscape:stockid="Arrow1Mend"
       orient="auto"
       refY="0"
       refX="0"
       id="Arrow1Mend-58"
       style="overflow:visible">
      <path
         id="path4572"
         d="M 0,0 5,-5 -12.5,0 5,5 0,0 z"
         style="fill-rule:evenodd;stroke:#000000;stroke-width:1pt"
         transform="matrix(-0.4,0,0,-0.4,-4,0)"
         inkscape:connector-curvature="0" />
    </marker>
    <marker
       inkscape:stockid="Arrow1Mstart"
       orient="auto"
       refY="0"
       refX="0"
       id="Arrow1Mstart"
       style="overflow:visible">
      <path
         id="path4569"
         d="M 0,0 5,-5 -12.5,0 5,5 0,0 z"
         style="fill-rule:evenodd;stroke:#000000;stroke-width:1pt"
         transform="matrix(0.4,0,0,0.4,4,0)"
         inkscape:connector-curvature="0" />
    </marker>
    <linearGradient
       id="linearGradient3865">
      <stop
         style="stop-color:#ff0000;stop-opacity:1;"
         offset="0"
         id="stop3867" />
      <stop
         style="stop-color:#ff0000;stop-opacity:0;"
         offset="1"
         id="stop3869" />
    </linearGradient>
    <radialGradient
       r="215.66249"
       fy="5.2640076"
       fx="369.27884"
       cy="5.2640076"
       cx="369.27884"
       gradientTransform="matrix(0.33319212,0,0,0.18036941,99.60337,509.20239)"
       gradientUnits="userSpaceOnUse"
       id="radialGradient5821"
       xlink:href="#linearGradient3770"
       inkscape:collect="always" />
    <marker
       style="overflow:visible"
       id="Arrow2SendP"
       refX="0"
       refY="0"
       orient="auto"
       inkscape:stockid="Arrow2SendP">
      <path
         transform="matrix(-0.3,0,0,-0.3,0.69,0)"
         d="M 8.7185878,4.0337352 -2.2072895,0.01601326 8.7185884,-4.0017078 c -1.7454984,2.3720609 -1.7354408,5.6174519 -6e-7,8.035443 z"
         style="fill:#828282;fill-rule:evenodd;stroke:#828282;stroke-width:0.625;stroke-linejoin:round"
         id="path10724"
         inkscape:connector-curvature="0" />
    </marker>
    <marker
       style="overflow:visible"
       id="Arrow2SendS"
       refX="0"
       refY="0"
       orient="auto"
       inkscape:stockid="Arrow2SendS">
      <path
         transform="matrix(-0.3,0,0,-0.3,0.69,0)"
         d="M 8.7185878,4.0337352 -2.2072895,0.01601326 8.7185884,-4.0017078 c -1.7454984,2.3720609 -1.7354408,5.6174519 -6e-7,8.035443 z"
         style="fill:#8a8a8a;fill-rule:evenodd;stroke:#8a8a8a;stroke-width:0.625;stroke-linejoin:round"
         id="path10727"
         inkscape:connector-curvature="0" />
    </marker>
    <marker
       style="overflow:visible"
       id="Arrow2Send2"
       refX="0"
       refY="0"
       orient="auto"
       inkscape:stockid="Arrow2Send2">
      <path
         transform="matrix(-0.3,0,0,-0.3,0.69,0)"
         d="M 8.7185878,4.0337352 -2.2072895,0.01601326 8.7185884,-4.0017078 c -1.7454984,2.3720609 -1.7354408,5.6174519 -6e-7,8.035443 z"
         style="stroke-linejoin:round;stroke:#a4a4a4;stroke-width:0.625;fill:#a4a4a4;fill-rule:evenodd"
         id="path5871"
         inkscape:connector-curvature="0" />
    </marker>
    <clipPath
       clipPathUnits="userSpaceOnUse"
       id="clipPath6326">
      <path
         sodipodi:type="arc"
         style="fill:#ffffff;fill-opacity:1;fill-rule:nonzero;stroke:none"
         id="path6328"
         sodipodi:cx="327.16064"
         sodipodi:cy="55.722546"
         sodipodi:rx="13.855164"
         sodipodi:ry="2.2347038"
         d="m 341.01581,55.722546 a 13.855164,2.2347038 0 1 1 -27.71033,0 13.855164,2.2347038 0 1 1 27.71033,0 z"
         transform="matrix(1.0319339,0,1.872428,2.3108277,6.47837,-21.344747)" />
    </clipPath>
    <clipPath
       clipPathUnits="userSpaceOnUse"
       id="clipPath6332">
      <rect
         style="fill:#ffffff;fill-opacity:1;fill-rule:nonzero;stroke:none"
         id="rect6334"
         width="44.165489"
         height="4.8180532"
         x="356.50778"
         y="206.29832" />
    </clipPath>
    <clipPath
       clipPathUnits="userSpaceOnUse"
       id="clipPath6426">
      <path
         sodipodi:type="arc"
         style="fill:#bdbdbd;fill-opacity:1;fill-rule:nonzero;stroke:none"
         id="path6428"
         sodipodi:cx="328.89853"
         sodipodi:cy="79.308578"
         sodipodi:rx="17.713604"
         sodipodi:ry="5.1704574"
         d="m 346.61213,79.308578 a 17.713604,5.1704574 0 1 1 -35.4272,0 17.713604,5.1704574 0 1 1 35.4272,0 z"
         transform="matrix(0.75180068,-0.20731107,1.0941426,1.0166731,87.156212,0.46071811)" />
    </clipPath>
    <clipPath
       clipPathUnits="userSpaceOnUse"
       id="clipPath6432">
      <rect
         style="fill:#bdbdbd;fill-opacity:1;fill-rule:nonzero;stroke:none"
         id="rect6434"
         width="74.492882"
         height="8.2344322"
         x="367.56381"
         y="160.69905" />
    </clipPath>
    <marker
       style="overflow:visible"
       id="Arrow2Sendq"
       refX="0"
       refY="0"
       orient="auto"
       inkscape:stockid="Arrow2Sendq">
      <path
         transform="matrix(-0.3,0,0,-0.3,0.69,0)"
         d="M 8.7185878,4.0337352 -2.2072895,0.01601326 8.7185884,-4.0017078 c -1.7454984,2.3720609 -1.7354408,5.6174519 -6e-7,8.035443 z"
         style="stroke-linejoin:round;stroke:#ff0505;stroke-width:0.625;fill:#ff0505;fill-rule:evenodd"
         id="path3561"
         inkscape:connector-curvature="0" />
    </marker>
    <marker
       style="overflow:visible"
       id="Arrow2SendqD"
       refX="0"
       refY="0"
       orient="auto"
       inkscape:stockid="Arrow2SendqD">
      <path
         transform="matrix(-0.3,0,0,-0.3,0.69,0)"
         d="M 8.7185878,4.0337352 -2.2072895,0.01601326 8.7185884,-4.0017078 c -1.7454984,2.3720609 -1.7354408,5.6174519 -6e-7,8.035443 z"
         style="stroke-linejoin:round;fill-rule:evenodd;stroke:#0000ff;stroke-width:0.625;fill:#0000ff"
         id="path3275"
         inkscape:connector-curvature="0" />
    </marker>
  </defs>
  <sodipodi:namedview
     id="base"
     pagecolor="#ffffff"
     bordercolor="#666666"
     borderopacity="1.0"
     inkscape:pageopacity="0.0"
     inkscape:pageshadow="2"
     inkscape:zoom="0.43821871"
     inkscape:cx="349.11947"
     inkscape:cy="222.19399"
     inkscape:document-units="px"
     inkscape:current-layer="layer1"
     showgrid="false"
     showguides="true"
     inkscape:window-width="1161"
     inkscape:window-height="580"
     inkscape:window-x="69"
     inkscape:window-y="23"
     inkscape:window-maximized="0"
     fit-margin-top="0"
     fit-margin-left="0"
     fit-margin-right="0"
     fit-margin-bottom="0"
     inkscape:guide-bbox="true">
    <sodipodi:guide
       position="0,269.60549"
       orientation="1,0"
       id="guide5491" />
    <sodipodi:guide
       position="-799.3567,227.0362"
       orientation="1,0"
       id="guide5493" />
    <sodipodi:guide
       position="800.03573,377.35016"
       orientation="1,0"
       id="guide4514" />
    <sodipodi:guide
       position="38.668394,322.68105"
       orientation="0,1"
       id="guide4516" />
  </sodipodi:namedview>
  <metadata
     id="metadata7">
    <rdf:RDF>
      <cc:Work
         rdf:about="">
        <dc:format>image/svg+xml</dc:format>
        <dc:type
           rdf:resource="http://purl.org/dc/dcmitype/StillImage" />
        <dc:title />
      </cc:Work>
    </rdf:RDF>
  </metadata>
  <g
     inkscape:label="BidirCovariance"
     inkscape:groupmode="layer"
     id="layer1"
     transform="translate(-104.0528,-50.68096)">
    <path
       style="opacity:0.77300002;fill:#e1ffe4;fill-opacity:1;fill-rule:evenodd;stroke:#7aec9d;stroke-width:1.19675624;stroke-linecap:square;stroke-linejoin:miter;stroke-miterlimit:4;stroke-dasharray:7.18053719, 7.18053719;stroke-dashoffset:0;stroke-opacity:0.94901961"
       d="M 857.06152,186.70831 509.65617,387.23862 238.55352,127.32541 c -0.0771,-0.12183 -0.16443,-0.23409 -0.2618,-0.33658 -1.95454,-1.95899 -7.27795,0.191 -11.88807,4.80105 -4.61017,4.61012 -6.76007,9.93358 -4.80105,11.8881 0.17281,0.16826 0.37434,0.3074 0.60304,0.41604 l 258.6358,269.30375 58.05301,0 318.16707,-90.65989 z"
       id="path7767"
       inkscape:connector-curvature="0"
       sodipodi:nodetypes="ccccscccccc" />
    <path
       style="fill:none;fill-rule:evenodd;stroke:#8cff7f;stroke-width:2.86503434;stroke-linecap:butt;stroke-linejoin:miter;stroke-miterlimit:4;stroke-dasharray:none;stroke-opacity:1"
       d="M 228.95494,135.08118 506.77031,411.35069 854.98366,262.13904"
       id="path4144"
       inkscape:connector-curvature="0"
       sodipodi:nodetypes="ccc" />
    <rect
       style="opacity:1;fill:#ffedbd;fill-opacity:1;fill-rule:evenodd;stroke:#000000;stroke-width:2.39351249;stroke-linecap:square;stroke-linejoin:miter;stroke-miterlimit:4;stroke-dasharray:none;stroke-dashoffset:0;stroke-opacity:1"
       id="rect4140"
       width="34.932312"
       height="365.03494"
       x="857.94611"
       y="51.100056" />
    <rect
       y="-892.88208"
       x="415.19055"
       height="733.57916"
       width="34.932343"
       id="rect4142"
       style="opacity:1;fill:#e2e2e2;fill-opacity:1;fill-rule:evenodd;stroke:#000000;stroke-width:2.39351249;stroke-linecap:square;stroke-linejoin:miter;stroke-miterlimit:4;stroke-dasharray:none;stroke-dashoffset:0;stroke-opacity:1"
       transform="matrix(0,1,-1,0,0,0)" />
    <circle
       style="opacity:1;fill:#ffffff;fill-opacity:1;fill-rule:evenodd;stroke:#10d100;stroke-width:3.59026861;stroke-linecap:square;stroke-linejoin:miter;stroke-miterlimit:4;stroke-dasharray:none;stroke-dashoffset:0;stroke-opacity:1"
       id="circle7752"
       cx="506.36295"
       cy="414.88232"
       r="9.7506828" />
    <g
       transform="matrix(0.2411976,0.57243532,-0.57243532,0.2411976,231.15094,53.376948)"
       inkscape:label="Layer 1"
       id="eye">
      <path
         inkscape:connector-curvature="0"
         style="fill:#a97a21;fill-opacity:1;fill-rule:evenodd;stroke:none"
         d="m 93.452781,90.95392 c 1.57811,-12.459592 -3.10576,-25.401957 -9.72669,-36.301382 -4.02383,-6.005044 -14.28064,-24.214178 -21.542892,-15.456517 -4.787153,6.495994 -4.676738,16.027171 -1.790581,24.053099 3.464763,11.281383 9.846923,21.746746 18.085313,30.090719 3.43697,2.594446 8.81161,2.365175 10.82444,-1.437395"
         id="path3359"
         sodipodi:nodetypes="cccccc" />
      <path
         inkscape:connector-curvature="0"
         style="fill:#000000;fill-opacity:1;stroke:none"
         id="path3317"
         d="m 38.052694,62.916283 c 1.898197,-2.363774 3.499136,-4.836258 5.000642,-7.338685 2.656932,-3.63251 9.192705,-21.678792 3.301669,-6.12021 2.227475,-6.994586 3.810957,-13.937568 4.930355,-20.782332 0.106462,-0.862239 0.212911,-1.72448 0.319355,-2.586715 l 0.333751,-0.691867 c 0.174068,0.292231 0.348138,0.584471 0.522217,0.876705 1.286906,3.945246 0.198521,8.762955 -1.076083,13.482799 -3.101618,8.847965 -5.663057,17.938456 -10.866464,26.685355 -1.499706,2.331761 -3.014843,4.730357 -5.147341,6.749892 l 2.681899,-10.274942 z" />
      <path
         inkscape:connector-curvature="0"
         style="fill:#000000;fill-opacity:1;stroke:none"
         id="path3319"
         d="m 53.140525,49.567005 c 1.075,-2.531323 2.116098,-5.073767 3.138343,-7.623 1.707115,-4.617844 2.988652,-9.344822 4.310165,-14.055413 1.687575,-6.197283 3.424421,-12.386219 5.546227,-18.482335 0.228558,-0.713573 0.457117,-1.427138 0.685664,-2.140718 0.0928,-0.245174 0.185589,-0.490348 0.278364,-0.735528 l 0.440851,-1.168907 c -1.169028,7.047391 -0.58156,3.685733 -1.747196,10.086538 -1.653468,8.241494 -3.691602,16.419321 -5.923619,24.565507 -1.282498,4.695281 -2.513206,9.433339 -4.465398,13.954325 -0.980114,2.06452 -1.973634,4.121964 -3.048908,6.146772 l 0.785507,-10.547241 z" />
      <path
         inkscape:connector-curvature="0"
         style="fill:#000000;fill-opacity:1;stroke:none"
         id="path3321"
         d="m 62.923121,38.283695 c 1.396129,-2.456977 2.810927,-4.903852 4.199083,-7.365287 2.091906,-3.446087 3.519866,-7.152658 4.804106,-10.898799 1.38328,-4.548096 2.74525,-9.063508 4.7648,-13.422429 0.2824,-0.589808 0.56482,-1.179621 0.84722,-1.769438 l -0.10811,1.6625 c -0.33407,1.393442 -0.66815,2.78687 -1.00219,4.180308 -1.55496,6.5476 -3.00447,13.126885 -5.21152,19.547174 -1.20789,3.20359 -2.59973,6.326136 -4.889104,9.003466 -1.330921,1.546877 -2.685054,3.073212 -3.933297,4.685003 l 0.529012,-5.622498 z" />
      <path
         inkscape:connector-curvature="0"
         style="fill:#000000;fill-opacity:1;stroke:none"
         id="path3323"
         d="m 16.783282,97.477751 c 0.951509,-2.394743 2.074583,-4.732364 3.225871,-7.062857 1.430961,-2.700809 3.124937,-5.286594 4.778146,-7.884551 1.755367,-2.708712 3.483338,-5.431331 5.238039,-8.140336 1.486734,-2.397385 3.138426,-4.701031 4.827828,-6.983796 1.752013,-2.255342 3.661833,-4.393819 5.551717,-6.548661 1.826477,-1.985535 3.629107,-3.990146 5.443626,-5.985029 1.641654,-1.796771 3.299106,-3.578508 4.965913,-5.355373 1.782937,-1.804258 3.603256,-3.574038 5.420041,-5.34802 2.192928,-2.131076 4.233309,-4.37326 6.196685,-6.691364 1.569388,-2.621572 2.872491,-3.34366 4.968043,-3.7964 0.515409,0.283772 0.903256,0.710294 1.354886,1.065437 l -0.528563,3.999877 c -1.42683,3.517287 -0.718691,1.741896 -2.12341,5.326482 -1.464723,3.824853 -3.104305,7.516421 -5.957485,10.738273 -2.048679,2.288073 -4.119105,4.568424 -6.390574,6.668919 -1.789494,1.704254 -3.582582,3.406632 -5.348048,5.133233 -1.649286,1.598178 -3.300268,3.19369 -4.850447,4.880561 -1.798059,1.853134 -3.617909,3.688175 -5.364451,5.58547 -1.859803,1.988192 -3.700163,3.999712 -5.343552,6.150523 -1.592589,2.057407 -3.164389,4.128029 -4.617782,6.270761 -1.728031,2.545448 -3.474264,5.081019 -5.16418,7.647345 -1.583099,2.391925 -3.173467,4.781845 -4.563475,7.268815 -1.03686,1.90582 -2.067794,3.81536 -2.99157,5.76443 l 1.272742,-12.703739 z" />
      <path
         inkscape:connector-curvature="0"
         style="fill:#000000;fill-opacity:1;stroke:none"
         id="path3349"
         d="m 15.178062,109.48072 c 2.906709,-1.44945 0.02294,-2.49111 3.088544,-3.61241 4.867798,-1.78051 9.806748,-3.39243 14.748189,-4.9977 5.490247,-1.76101 11.217813,-2.82778 16.931214,-3.90597 5.54469,-0.93217 11.078135,-1.90311 16.603634,-2.90557 5.747687,-1.062373 11.415397,-2.387909 17.100617,-3.65495 5.8674,-1.267625 13.7016,-2.595107 19.46857,-4.165385 l 7.1731,0.0176 c -0.64308,1.854977 -2.75124,1.567437 -4.5951,2.528246 -4.32006,1.880309 -12.82913,5.239716 -17.60725,5.982456 -5.65872,1.04333 -11.33106,2.03668 -17.03425,2.91557 -5.915233,1.02637 -11.849896,2.01468 -17.57635,3.656313 -5.335447,1.4828 -10.565229,3.22742 -15.820949,4.91509 -3.623719,1.15368 -7.242714,2.31962 -10.87719,3.44674 l -11.602779,-0.22003 z"
         sodipodi:nodetypes="csccccccccccccc" />
      <path
         inkscape:connector-curvature="0"
         style="fill:#000000;fill-opacity:1;stroke:none"
         id="path3357"
         d="m 63.614836,41.813978 c 1.605008,-1.326387 3.275743,-2.568564 4.946185,-3.810331 1.371371,-1.1251 2.758319,-2.230672 4.136579,-3.345868 1.39347,-1.179116 2.86111,-2.267344 4.3055,-3.38166 1.32268,-1.079116 2.56919,-2.245633 3.8196,-3.405828 1.53807,-1.353911 2.99954,-2.787071 4.47246,-4.209183 1.28987,-1.246377 2.46966,-2.595772 3.67058,-3.925401 1.27093,-1.491813 2.56118,-2.967203 3.84823,-4.444409 0.46002,0.711827 4.35213,-7.106255 -0.05356,1.739537 l 2.24381,-2.775451 c -2.14544,4.03003 -4.1349,8.16015 -6.57405,12.024181 -1.38194,1.910519 -2.76699,3.816736 -4.39806,5.529716 -1.21332,1.305363 -2.41242,2.625005 -3.73026,3.828717 -1.4443,1.315983 -2.87299,2.650582 -4.38658,3.887734 -1.19521,0.989763 -2.35806,2.020708 -3.69506,2.826236 -1.32748,0.891522 -2.641024,1.8063 -3.996572,2.654945 -1.263083,0.845803 -2.526067,1.692659 -3.794537,2.531119 -1.586984,1.095383 -3.191637,2.166615 -4.70811,3.361311 l 3.893845,-9.085365 z" />
      <path
         inkscape:connector-curvature="0"
         style="fill:#000000;fill-opacity:1;fill-rule:evenodd;stroke:#000000;stroke-width:1.27730322px;stroke-linecap:butt;stroke-linejoin:miter;stroke-opacity:1"
         d="m 71.370462,56.47894 c 1.944525,7.339467 3.636822,14.73888 9.548986,19.533885 C 82.412405,77.515909 95.875482,88.707454 92.97079,74.01323 92.96619,70.758246 89.140419,65.315185 87.737864,62.520719 85.382041,57.567896 81.677172,49.895065 78.678629,45.173863 72.077226,37.56271 66.552362,44.387943 71.370462,56.47894 Z"
         id="path3468"
         sodipodi:nodetypes="cccccc" />
      <path
         inkscape:connector-curvature="0"
         style="fill:none;stroke:#000000;stroke-width:3.24899769;stroke-linecap:butt;stroke-linejoin:miter;stroke-miterlimit:4;stroke-dasharray:none;stroke-opacity:1"
         d="m 72.364092,39.669757 c 0.217072,3.788542 6.510429,6.96185 8.925857,9.827738 4.272674,5.378966 4.762715,9.090205 7.251704,14.433006 1.190868,2.392908 1.97531,4.919088 2.946074,7.26398 0.965681,2.332613 1.452759,5.090456 1.964049,7.501365 0.558814,2.635007 0.423089,5.332668 0.930338,7.928658 0.338599,1.732871 -0.540436,3.452977 -0.930338,4.985084"
         id="path3742"
         sodipodi:nodetypes="cccsssc" />
      <path
         inkscape:connector-curvature="0"
         style="fill:none;stroke:#000000;stroke-width:3.08373404;stroke-linecap:butt;stroke-linejoin:miter;stroke-miterlimit:4;stroke-dasharray:none;stroke-opacity:1"
         d="m 57.428299,54.086563 c 1.658997,10.609506 3.727756,19.113324 10.974809,27.755788 3.387315,3.4879 7.266537,6.467304 10.531111,10.078567"
         id="path3744"
         sodipodi:nodetypes="ccc" />
      <path
         inkscape:connector-curvature="0"
         style="fill:#000000;fill-opacity:1;stroke:none"
         id="path3785"
         d="m 82.53568,90.731002 c 1.819288,0.04834 3.639382,0.04218 5.459135,0.04609 6.303095,-1.501094 13.110845,0.730762 18.750825,1.067615 -0.67548,0.68882 -1.80317,1.173453 -2.70151,1.653315 l -3.0068,0.234716 c -2.69998,-0.193725 -5.393231,-0.441402 -8.106294,-0.371598 -1.217974,-0.0152 -4.87101,-0.103557 -3.653713,-0.0602 5.067331,0.1805 10.134707,0.359784 15.202057,0.539677 -0.26172,-0.02069 -0.52344,-0.04139 -0.78516,-0.06208 -1.79502,-0.01438 -3.59019,-0.03837 -5.38525,-0.02416 L 82.53568,90.731002 Z" />
      <path
         inkscape:connector-curvature="0"
         style="fill:#000000;fill-rule:evenodd;stroke:#000000;stroke-width:1.11350298px;stroke-linecap:butt;stroke-linejoin:miter;stroke-opacity:1"
         d="m 27.920516,87.676714 c -0.547361,1.108973 -1.094721,2.217944 -1.642082,3.326915 -1.207316,2.446063 -1.415171,4.866283 -0.2971,7.037701 1.557795,3.02542 5.98496,4.00471 9.663052,5.20364 0.263802,0.086 -3.844361,-0.0191 -6.750784,0.29857 -3.187644,0.3484 -6.563037,1.82676 -9.001046,2.38855 -5.353592,1.23365 -3.977429,-0.715 -2.858439,-3.54017 1.007147,-2.5428 3.027484,-5.209149 4.318068,-7.634848 1.950445,-3.665932 3.200683,-3.108244 6.568331,-7.080358 z"
         id="path3936"
         sodipodi:nodetypes="csssssssc" />
    </g>
    <circle
       style="opacity:1;fill:#ffffff;fill-opacity:1;fill-rule:evenodd;stroke:#10d100;stroke-width:3.59026861;stroke-linecap:square;stroke-linejoin:miter;stroke-miterlimit:4;stroke-dasharray:none;stroke-dashoffset:0;stroke-opacity:1"
       id="path7746"
       cx="230.58247"
       cy="135.49091"
       r="7.8005462" />
    <g
       id="g7398"
       ns0:preamble=""
       ns0:text="Unidirectional\n"
       transform="matrix(0,1.02,-1.02,0,959.97227,-108.61608)">
      <defs
         id="defs7400">
        <g
           id="g7402">
          <symbol
             id="symbol7404"
             overflow="visible"
             style="overflow:visible">
            <path
               id="path7406"
               d=""
               style="stroke:none"
               inkscape:connector-curvature="0" />
          </symbol>
          <symbol
             id="symbol7408"
             overflow="visible"
             style="overflow:visible">
            <path
               id="path7410"
               d="m 5.796875,-2.296875 c 0,1.40625 -0.96875,2.203125 -1.90625,2.203125 -0.46875,0 -1.640625,-0.25 -1.640625,-2.140625 l 0,-3.796875 C 2.25,-6.390625 2.265625,-6.5 3.03125,-6.5 l 0.234375,0 0,-0.3125 c -0.34375,0.03125 -1.078125,0.03125 -1.46875,0.03125 -0.375,0 -1.125,0 -1.46875,-0.03125 l 0,0.3125 0.234375,0 c 0.765625,0 0.796875,0.109375 0.796875,0.46875 l 0,3.765625 c 0,1.390625 1.15625,2.484375 2.515625,2.484375 1.140625,0 2.03125,-0.921875 2.203125,-2.0625 0.03125,-0.203125 0.03125,-0.296875 0.03125,-0.6875 l 0,-3.1875 c 0,-0.328125 0,-0.78125 1.03125,-0.78125 l 0,-0.3125 c -0.359375,0.015625 -0.84375,0.03125 -1.171875,0.03125 -0.359375,0 -0.828125,-0.015625 -1.1875,-0.03125 l 0,0.3125 c 1.015625,0 1.015625,0.46875 1.015625,0.734375 z m 0,0"
               style="stroke:none"
               inkscape:connector-curvature="0" />
          </symbol>
          <symbol
             id="symbol7412"
             overflow="visible"
             style="overflow:visible">
            <path
               id="path7414"
               d="m 1.09375,-3.421875 0,2.671875 c 0,0.4375 -0.109375,0.4375 -0.78125,0.4375 l 0,0.3125 c 0.359375,-0.015625 0.859375,-0.03125 1.140625,-0.03125 0.25,0 0.765625,0.015625 1.109375,0.03125 l 0,-0.3125 c -0.671875,0 -0.78125,0 -0.78125,-0.4375 l 0,-1.84375 C 1.78125,-3.625 2.5,-4.1875 3.125,-4.1875 c 0.640625,0 0.75,0.53125 0.75,1.109375 l 0,2.328125 c 0,0.4375 -0.109375,0.4375 -0.78125,0.4375 l 0,0.3125 c 0.34375,-0.015625 0.859375,-0.03125 1.125,-0.03125 0.25,0 0.78125,0.015625 1.109375,0.03125 l 0,-0.3125 c -0.515625,0 -0.765625,0 -0.765625,-0.296875 l 0,-1.90625 c 0,-0.859375 0,-1.15625 -0.3125,-1.515625 -0.140625,-0.171875 -0.46875,-0.375 -1.046875,-0.375 C 2.46875,-4.40625 2,-3.984375 1.71875,-3.359375 l 0,-1.046875 -1.40625,0.109375 0,0.3125 c 0.703125,0 0.78125,0.0625 0.78125,0.5625 z m 0,0"
               style="stroke:none"
               inkscape:connector-curvature="0" />
          </symbol>
          <symbol
             id="symbol7416"
             overflow="visible"
             style="overflow:visible">
            <path
               id="path7418"
               d="M 1.765625,-4.40625 0.375,-4.296875 l 0,0.3125 c 0.640625,0 0.734375,0.0625 0.734375,0.546875 l 0,2.6875 c 0,0.4375 -0.109375,0.4375 -0.78125,0.4375 l 0,0.3125 C 0.640625,-0.015625 1.1875,-0.03125 1.421875,-0.03125 1.78125,-0.03125 2.125,-0.015625 2.46875,0 l 0,-0.3125 c -0.671875,0 -0.703125,-0.046875 -0.703125,-0.4375 z m 0.03125,-1.734375 c 0,-0.3125 -0.234375,-0.53125 -0.515625,-0.53125 -0.3125,0 -0.53125,0.265625 -0.53125,0.53125 0,0.265625 0.21875,0.53125 0.53125,0.53125 0.28125,0 0.515625,-0.21875 0.515625,-0.53125 z m 0,0"
               style="stroke:none"
               inkscape:connector-curvature="0" />
          </symbol>
          <symbol
             id="symbol7420"
             overflow="visible"
             style="overflow:visible">
            <path
               id="path7422"
               d="m 3.78125,-0.546875 0,0.65625 L 5.25,0 l 0,-0.3125 c -0.6875,0 -0.78125,-0.0625 -0.78125,-0.5625 l 0,-6.046875 -1.421875,0.109375 0,0.3125 c 0.6875,0 0.765625,0.0625 0.765625,0.5625 l 0,2.15625 c -0.28125,-0.359375 -0.71875,-0.625 -1.25,-0.625 -1.171875,0 -2.21875,0.984375 -2.21875,2.265625 0,1.265625 0.96875,2.25 2.109375,2.25 0.640625,0 1.078125,-0.34375 1.328125,-0.65625 z m 0,-2.671875 0,2.046875 c 0,0.171875 0,0.1875 -0.109375,0.359375 C 3.375,-0.328125 2.9375,-0.109375 2.5,-0.109375 2.046875,-0.109375 1.6875,-0.375 1.453125,-0.75 1.203125,-1.15625 1.171875,-1.71875 1.171875,-2.140625 1.171875,-2.5 1.1875,-3.09375 1.46875,-3.546875 1.6875,-3.859375 2.0625,-4.1875 2.609375,-4.1875 c 0.34375,0 0.765625,0.15625 1.0625,0.59375 0.109375,0.171875 0.109375,0.1875 0.109375,0.375 z m 0,0"
               style="stroke:none"
               inkscape:connector-curvature="0" />
          </symbol>
          <symbol
             id="symbol7424"
             overflow="visible"
             style="overflow:visible">
            <path
               id="path7426"
               d="m 1.671875,-3.3125 0,-1.09375 -1.390625,0.109375 0,0.3125 c 0.703125,0 0.78125,0.0625 0.78125,0.5625 l 0,2.671875 c 0,0.4375 -0.109375,0.4375 -0.78125,0.4375 l 0,0.3125 c 0.390625,-0.015625 0.859375,-0.03125 1.140625,-0.03125 0.390625,0 0.859375,0 1.265625,0.03125 l 0,-0.3125 -0.21875,0 c -0.734375,0 -0.75,-0.109375 -0.75,-0.46875 l 0,-1.53125 c 0,-0.984375 0.421875,-1.875 1.171875,-1.875 0.0625,0 0.09375,0 0.109375,0.015625 -0.03125,0 -0.234375,0.125 -0.234375,0.390625 0,0.265625 0.21875,0.421875 0.4375,0.421875 0.171875,0 0.421875,-0.125 0.421875,-0.4375 0,-0.3125 -0.3125,-0.609375 -0.734375,-0.609375 -0.734375,0 -1.09375,0.671875 -1.21875,1.09375 z m 0,0"
               style="stroke:none"
               inkscape:connector-curvature="0" />
          </symbol>
          <symbol
             id="symbol7428"
             overflow="visible"
             style="overflow:visible">
            <path
               id="path7430"
               d="M 1.109375,-2.515625 C 1.171875,-4 2.015625,-4.25 2.359375,-4.25 c 1.015625,0 1.125,1.34375 1.125,1.734375 z m 0,0.21875 2.78125,0 c 0.21875,0 0.25,0 0.25,-0.21875 0,-0.984375 -0.546875,-1.953125 -1.78125,-1.953125 -1.15625,0 -2.078125,1.03125 -2.078125,2.28125 0,1.328125 1.046875,2.296875 2.1875,2.296875 C 3.6875,0.109375 4.140625,-1 4.140625,-1.1875 4.140625,-1.28125 4.0625,-1.3125 4,-1.3125 c -0.078125,0 -0.109375,0.0625 -0.125,0.140625 -0.34375,1.03125 -1.25,1.03125 -1.34375,1.03125 -0.5,0 -0.890625,-0.296875 -1.125,-0.671875 -0.296875,-0.46875 -0.296875,-1.125 -0.296875,-1.484375 z m 0,0"
               style="stroke:none"
               inkscape:connector-curvature="0" />
          </symbol>
          <symbol
             id="symbol7432"
             overflow="visible"
             style="overflow:visible">
            <path
               id="path7434"
               d="m 1.171875,-2.171875 c 0,-1.625 0.8125,-2.046875 1.34375,-2.046875 0.09375,0 0.71875,0.015625 1.0625,0.375 -0.40625,0.03125 -0.46875,0.328125 -0.46875,0.453125 0,0.265625 0.1875,0.453125 0.453125,0.453125 0.265625,0 0.46875,-0.15625 0.46875,-0.46875 0,-0.671875 -0.765625,-1.0625 -1.53125,-1.0625 -1.25,0 -2.15625,1.078125 -2.15625,2.3125 0,1.28125 0.984375,2.265625 2.140625,2.265625 1.328125,0 1.65625,-1.203125 1.65625,-1.296875 0,-0.09375 -0.109375,-0.09375 -0.140625,-0.09375 -0.078125,0 -0.109375,0.03125 -0.125,0.09375 -0.28125,0.921875 -0.9375,1.046875 -1.296875,1.046875 -0.53125,0 -1.40625,-0.421875 -1.40625,-2.03125 z m 0,0"
               style="stroke:none"
               inkscape:connector-curvature="0" />
          </symbol>
          <symbol
             id="symbol7436"
             overflow="visible"
             style="overflow:visible">
            <path
               id="path7438"
               d="m 1.71875,-3.984375 1.4375,0 0,-0.3125 -1.4375,0 0,-1.828125 -0.25,0 c 0,0.8125 -0.296875,1.875 -1.28125,1.921875 l 0,0.21875 0.84375,0 0,2.75 c 0,1.21875 0.9375,1.34375 1.296875,1.34375 0.703125,0 0.984375,-0.703125 0.984375,-1.34375 l 0,-0.5625 -0.25,0 0,0.546875 c 0,0.734375 -0.296875,1.109375 -0.671875,1.109375 -0.671875,0 -0.671875,-0.90625 -0.671875,-1.078125 z m 0,0"
               style="stroke:none"
               inkscape:connector-curvature="0" />
          </symbol>
          <symbol
             id="symbol7440"
             overflow="visible"
             style="overflow:visible">
            <path
               id="path7442"
               d="M 4.6875,-2.140625 C 4.6875,-3.40625 3.703125,-4.46875 2.5,-4.46875 c -1.25,0 -2.21875,1.09375 -2.21875,2.328125 0,1.296875 1.03125,2.25 2.203125,2.25 1.203125,0 2.203125,-0.984375 2.203125,-2.25 z m -2.1875,2 c -0.4375,0 -0.875,-0.203125 -1.140625,-0.671875 -0.25,-0.4375 -0.25,-1.046875 -0.25,-1.40625 0,-0.390625 0,-0.921875 0.234375,-1.359375 C 1.609375,-4.03125 2.078125,-4.25 2.484375,-4.25 c 0.4375,0 0.859375,0.21875 1.125,0.65625 0.265625,0.421875 0.265625,1 0.265625,1.375 0,0.359375 0,0.90625 -0.21875,1.34375 C 3.421875,-0.421875 2.984375,-0.140625 2.5,-0.140625 Z m 0,0"
               style="stroke:none"
               inkscape:connector-curvature="0" />
          </symbol>
          <symbol
             id="symbol7444"
             overflow="visible"
             style="overflow:visible">
            <path
               id="path7446"
               d="m 3.3125,-0.75 c 0.046875,0.390625 0.3125,0.8125 0.78125,0.8125 0.21875,0 0.828125,-0.140625 0.828125,-0.953125 l 0,-0.5625 -0.25,0 0,0.5625 c 0,0.578125 -0.25,0.640625 -0.359375,0.640625 -0.328125,0 -0.375,-0.453125 -0.375,-0.5 l 0,-1.984375 c 0,-0.421875 0,-0.8125 -0.359375,-1.1875 C 3.1875,-4.3125 2.6875,-4.46875 2.21875,-4.46875 c -0.828125,0 -1.515625,0.46875 -1.515625,1.125 0,0.296875 0.203125,0.46875 0.46875,0.46875 0.28125,0 0.453125,-0.203125 0.453125,-0.453125 0,-0.125 -0.046875,-0.453125 -0.515625,-0.453125 C 1.390625,-4.140625 1.875,-4.25 2.1875,-4.25 c 0.5,0 1.0625,0.390625 1.0625,1.28125 l 0,0.359375 c -0.515625,0.03125 -1.203125,0.0625 -1.828125,0.359375 -0.75,0.34375 -1,0.859375 -1,1.296875 0,0.8125 0.96875,1.0625 1.59375,1.0625 0.65625,0 1.109375,-0.40625 1.296875,-0.859375 z M 3.25,-2.390625 l 0,1 c 0,0.9375 -0.71875,1.28125 -1.171875,1.28125 -0.484375,0 -0.890625,-0.34375 -0.890625,-0.84375 0,-0.546875 0.421875,-1.375 2.0625,-1.4375 z m 0,0"
               style="stroke:none"
               inkscape:connector-curvature="0" />
          </symbol>
          <symbol
             id="symbol7448"
             overflow="visible"
             style="overflow:visible">
            <path
               id="path7450"
               d="m 1.765625,-6.921875 -1.4375,0.109375 0,0.3125 c 0.703125,0 0.78125,0.0625 0.78125,0.5625 l 0,5.1875 c 0,0.4375 -0.109375,0.4375 -0.78125,0.4375 l 0,0.3125 C 0.65625,-0.015625 1.1875,-0.03125 1.4375,-0.03125 c 0.25,0 0.734375,0.015625 1.109375,0.03125 l 0,-0.3125 c -0.671875,0 -0.78125,0 -0.78125,-0.4375 z m 0,0"
               style="stroke:none"
               inkscape:connector-curvature="0" />
          </symbol>
        </g>
      </defs>
      <g
         id="g7452">
        <g
           id="g7454"
           style="fill:#000000;fill-opacity:1">
          <use
             id="use7456"
             y="134.765"
             x="223.43201"
             xlink:href="#textext-aa6e181b-1"
             width="100%"
             height="100%" />
          <use
             id="use7458"
             y="134.765"
             x="230.90395"
             xlink:href="#textext-aa6e181b-2"
             width="100%"
             height="100%" />
          <use
             id="use7460"
             y="134.765"
             x="236.43918"
             xlink:href="#textext-aa6e181b-3"
             width="100%"
             height="100%" />
          <use
             id="use7462"
             y="134.765"
             x="239.20679"
             xlink:href="#textext-aa6e181b-4"
             width="100%"
             height="100%" />
          <use
             id="use7464"
             y="134.765"
             x="244.742"
             xlink:href="#textext-aa6e181b-3"
             width="100%"
             height="100%" />
          <use
             id="use7466"
             y="134.765"
             x="247.50961"
             xlink:href="#textext-aa6e181b-5"
             width="100%"
             height="100%" />
          <use
             id="use7468"
             y="134.765"
             x="251.41196"
             xlink:href="#textext-aa6e181b-6"
             width="100%"
             height="100%" />
          <use
             id="use7470"
             y="134.765"
             x="255.83934"
             xlink:href="#textext-aa6e181b-7"
             width="100%"
             height="100%" />
          <use
             id="use7472"
             y="134.765"
             x="260.26672"
             xlink:href="#textext-aa6e181b-8"
             width="100%"
             height="100%" />
          <use
             id="use7474"
             y="134.765"
             x="264.14117"
             xlink:href="#textext-aa6e181b-3"
             width="100%"
             height="100%" />
          <use
             id="use7476"
             y="134.765"
             x="266.90878"
             xlink:href="#textext-aa6e181b-9"
             width="100%"
             height="100%" />
          <use
             id="use7478"
             y="134.765"
             x="271.89008"
             xlink:href="#textext-aa6e181b-2"
             width="100%"
             height="100%" />
          <use
             id="use7480"
             y="134.765"
             x="277.42529"
             xlink:href="#textext-aa6e181b-10"
             width="100%"
             height="100%" />
          <use
             id="use7482"
             y="134.765"
             x="282.40662"
             xlink:href="#textext-aa6e181b-11"
             width="100%"
             height="100%" />
        </g>
      </g>
    </g>
    <g
       id="lightFootprint">
      <path
         sodipodi:nodetypes="cccc"
         inkscape:connector-curvature="0"
         id="path7754"
         d="M 427.9968,122.54741 857.11841,281.79235 858.20765,250.17548 428.41041,109.96032"
         style="opacity:0.77300002;fill:#d7f1ff;fill-opacity:1;fill-rule:evenodd;stroke:#6acfff;stroke-width:1.19675624;stroke-linecap:square;stroke-linejoin:miter;stroke-miterlimit:4;stroke-dasharray:2.3935124, 4.78702479;stroke-dashoffset:0;stroke-opacity:0.77254902" />
      <path
         sodipodi:nodetypes="cc"
         style="fill:none;fill-rule:evenodd;stroke:#a3c9ff;stroke-width:2.86503434;stroke-linecap:butt;stroke-linejoin:miter;stroke-miterlimit:4;stroke-dasharray:none;stroke-opacity:1"
         d="M 854.98366,265.28374 430.93803,117.65805"
         id="path8269"
         inkscape:connector-curvature="0" />
      <circle
         style="opacity:1;fill:#ffffff;fill-opacity:1;fill-rule:evenodd;stroke:#6e88ff;stroke-width:3.59026861;stroke-linecap:square;stroke-linejoin:miter;stroke-miterlimit:4;stroke-dasharray:none;stroke-dashoffset:0;stroke-opacity:1"
         id="path7748"
         cx="431.51517"
         cy="118.06247"
         r="9.7506828" />
    </g>
    <g
       id="g10848"
       transform="matrix(-1.5413099,-0.29812281,-0.29812281,1.5413099,1574.2057,875.24219)">
      <g
         id="g2998"
         transform="matrix(0.69418387,-0.09004857,0.09004857,0.69418387,701.79358,-377.56863)"
         style="fill:#f1f1f1;fill-opacity:1;stroke:#000000;stroke-opacity:1">
        <path
           sodipodi:nodetypes="cscccsccc"
           inkscape:connector-curvature="0"
           id="path2988"
           d="m 166.27408,94.981375 c -4.94156,0 -8.94749,-8.345677 -8.94749,-18.640592 0,-10.294915 4.00593,-18.640593 8.94749,-18.640593 l 0,0 43.98798,0 c 4.94156,0 8.94749,8.345677 8.94749,18.640592 0,10.294915 -4.00593,18.640593 -8.94749,18.640593 l 0,0 z"
           style="fill:#f1f1f1;fill-opacity:1;stroke:#000000;stroke-width:2;stroke-miterlimit:4;stroke-dashoffset:0;stroke-opacity:1" />
        <path
           id="path2996"
           d="m 166.38914,57.70019 c 4.94156,0 8.94749,8.345677 8.94749,18.640592 0,10.294915 -4.00593,18.640593 -8.94749,18.640593 0,0 0,0 0,0"
           style="fill:#f1f1f1;fill-opacity:1;stroke:#000000;stroke-width:2;stroke-miterlimit:4;stroke-dashoffset:0;stroke-opacity:1"
           inkscape:connector-curvature="0" />
      </g>
      <ellipse
         style="fill:#fff300;fill-opacity:1;stroke:#000000;stroke-width:1.08485031;stroke-miterlimit:4;stroke-dasharray:none;stroke-dashoffset:0;stroke-opacity:1"
         id="path3770"
         transform="matrix(0.99438698,-0.10580426,0.10580427,0.99438698,0,0)"
         cx="855.58228"
         cy="-250.43788"
         rx="3.134017"
         ry="7.046144" />
    </g>
    <circle
       r="9.7506828"
       cy="264.05399"
       cx="857.38751"
       id="circle7750"
       style="opacity:1;fill:#ffffff;fill-opacity:1;fill-rule:evenodd;stroke:#6e88ff;stroke-width:3.59026861;stroke-linecap:square;stroke-linejoin:miter;stroke-miterlimit:4;stroke-dasharray:none;stroke-dashoffset:0;stroke-opacity:1" />
    <circle
       style="opacity:1;fill:#ffffff;fill-opacity:1;fill-rule:evenodd;stroke:#10d100;stroke-width:3.59026861;stroke-linecap:square;stroke-linejoin:miter;stroke-miterlimit:4;stroke-dasharray:none;stroke-dashoffset:0;stroke-opacity:1"
       id="circle8271"
       cx="857.38751"
       cy="264.21307"
       r="9.7506828" />
  </g>
  <g
     inkscape:groupmode="layer"
     id="layer2"
     inkscape:label="CovarianceTracing">
    <path
       style="fill:none;fill-rule:evenodd;stroke:#000000;stroke-width:2.52881026px;stroke-linecap:butt;stroke-linejoin:miter;stroke-opacity:1"
       d="M -396.39962,229.04242 -74.128852,82.242911"
       id="path4666"
       inkscape:connector-curvature="0" />
    <path
       style="fill:none;fill-rule:evenodd;stroke:#838383;stroke-width:2.52881026px;stroke-linecap:butt;stroke-linejoin:miter;stroke-opacity:1;marker-end:url(#Arrow1Send)"
       d="m -395.17138,234.10006 0,-111.24651"
       id="path4270"
       inkscape:connector-curvature="0" />
    <rect
       style="opacity:1;fill:#e2e2e2;fill-opacity:1;fill-rule:evenodd;stroke:#000000;stroke-width:2.52881026;stroke-linecap:square;stroke-linejoin:miter;stroke-miterlimit:4;stroke-dasharray:none;stroke-dashoffset:0;stroke-opacity:1"
       id="rect4242"
       width="37.932156"
       height="758.64307"
       x="-265.65338"
       y="-796.3158"
       transform="matrix(0,-1,1,0,0,0)" />
    <g
       id="eye01"
       inkscape:label="Layer 1"
       transform="matrix(-0.25483176,0.60479336,0.60479336,0.25483176,-83.22464,10.445825)">
      <path
         sodipodi:nodetypes="cccccc"
         id="path4246"
         d="m 93.452781,90.95392 c 1.57811,-12.459592 -3.10576,-25.401957 -9.72669,-36.301382 -4.02383,-6.005044 -14.28064,-24.214178 -21.542892,-15.456517 -4.787153,6.495994 -4.676738,16.027171 -1.790581,24.053099 3.464763,11.281383 9.846923,21.746746 18.085313,30.090719 3.43697,2.594446 8.81161,2.365175 10.82444,-1.437395"
         style="fill:#a97a21;fill-opacity:1;fill-rule:evenodd;stroke:none"
         inkscape:connector-curvature="0" />
      <path
         d="m 38.052694,62.916283 c 1.898197,-2.363774 3.499136,-4.836258 5.000642,-7.338685 2.656932,-3.63251 9.192705,-21.678792 3.301669,-6.12021 2.227475,-6.994586 3.810957,-13.937568 4.930355,-20.782332 0.106462,-0.862239 0.212911,-1.72448 0.319355,-2.586715 l 0.333751,-0.691867 c 0.174068,0.292231 0.348138,0.584471 0.522217,0.876705 1.286906,3.945246 0.198521,8.762955 -1.076083,13.482799 -3.101618,8.847965 -5.663057,17.938456 -10.866464,26.685355 -1.499706,2.331761 -3.014843,4.730357 -5.147341,6.749892 l 2.681899,-10.274942 z"
         id="path4248"
         style="fill:#000000;fill-opacity:1;stroke:none"
         inkscape:connector-curvature="0" />
      <path
         d="m 53.140525,49.567005 c 1.075,-2.531323 2.116098,-5.073767 3.138343,-7.623 1.707115,-4.617844 2.988652,-9.344822 4.310165,-14.055413 1.687575,-6.197283 3.424421,-12.386219 5.546227,-18.482335 0.228558,-0.713573 0.457117,-1.427138 0.685664,-2.140718 0.0928,-0.245174 0.185589,-0.490348 0.278364,-0.735528 l 0.440851,-1.168907 c -1.169028,7.047391 -0.58156,3.685733 -1.747196,10.086538 -1.653468,8.241494 -3.691602,16.419321 -5.923619,24.565507 -1.282498,4.695281 -2.513206,9.433339 -4.465398,13.954325 -0.980114,2.06452 -1.973634,4.121964 -3.048908,6.146772 l 0.785507,-10.547241 z"
         id="path4250"
         style="fill:#000000;fill-opacity:1;stroke:none"
         inkscape:connector-curvature="0" />
      <path
         d="m 62.923121,38.283695 c 1.396129,-2.456977 2.810927,-4.903852 4.199083,-7.365287 2.091906,-3.446087 3.519866,-7.152658 4.804106,-10.898799 1.38328,-4.548096 2.74525,-9.063508 4.7648,-13.422429 0.2824,-0.589808 0.56482,-1.179621 0.84722,-1.769438 l -0.10811,1.6625 c -0.33407,1.393442 -0.66815,2.78687 -1.00219,4.180308 -1.55496,6.5476 -3.00447,13.126885 -5.21152,19.547174 -1.20789,3.20359 -2.59973,6.326136 -4.889104,9.003466 -1.330921,1.546877 -2.685054,3.073212 -3.933297,4.685003 l 0.529012,-5.622498 z"
         id="path4252"
         style="fill:#000000;fill-opacity:1;stroke:none"
         inkscape:connector-curvature="0" />
      <path
         d="m 16.783282,97.477751 c 0.951509,-2.394743 2.074583,-4.732364 3.225871,-7.062857 1.430961,-2.700809 3.124937,-5.286594 4.778146,-7.884551 1.755367,-2.708712 3.483338,-5.431331 5.238039,-8.140336 1.486734,-2.397385 3.138426,-4.701031 4.827828,-6.983796 1.752013,-2.255342 3.661833,-4.393819 5.551717,-6.548661 1.826477,-1.985535 3.629107,-3.990146 5.443626,-5.985029 1.641654,-1.796771 3.299106,-3.578508 4.965913,-5.355373 1.782937,-1.804258 3.603256,-3.574038 5.420041,-5.34802 2.192928,-2.131076 4.233309,-4.37326 6.196685,-6.691364 1.569388,-2.621572 2.872491,-3.34366 4.968043,-3.7964 0.515409,0.283772 0.903256,0.710294 1.354886,1.065437 l -0.528563,3.999877 c -1.42683,3.517287 -0.718691,1.741896 -2.12341,5.326482 -1.464723,3.824853 -3.104305,7.516421 -5.957485,10.738273 -2.048679,2.288073 -4.119105,4.568424 -6.390574,6.668919 -1.789494,1.704254 -3.582582,3.406632 -5.348048,5.133233 -1.649286,1.598178 -3.300268,3.19369 -4.850447,4.880561 -1.798059,1.853134 -3.617909,3.688175 -5.364451,5.58547 -1.859803,1.988192 -3.700163,3.999712 -5.343552,6.150523 -1.592589,2.057407 -3.164389,4.128029 -4.617782,6.270761 -1.728031,2.545448 -3.474264,5.081019 -5.16418,7.647345 -1.583099,2.391925 -3.173467,4.781845 -4.563475,7.268815 -1.03686,1.90582 -2.067794,3.81536 -2.99157,5.76443 l 1.272742,-12.703739 z"
         id="path4254"
         style="fill:#000000;fill-opacity:1;stroke:none"
         inkscape:connector-curvature="0" />
      <path
         sodipodi:nodetypes="csccccccccccccc"
         d="m 15.178062,109.48072 c 2.906709,-1.44945 0.02294,-2.49111 3.088544,-3.61241 4.867798,-1.78051 9.806748,-3.39243 14.748189,-4.9977 5.490247,-1.76101 11.217813,-2.82778 16.931214,-3.90597 5.54469,-0.93217 11.078135,-1.90311 16.603634,-2.90557 5.747687,-1.062373 11.415397,-2.387909 17.100617,-3.65495 5.8674,-1.267625 13.7016,-2.595107 19.46857,-4.165385 l 7.1731,0.0176 c -0.64308,1.854977 -2.75124,1.567437 -4.5951,2.528246 -4.32006,1.880309 -12.82913,5.239716 -17.60725,5.982456 -5.65872,1.04333 -11.33106,2.03668 -17.03425,2.91557 -5.915233,1.02637 -11.849896,2.01468 -17.57635,3.656313 -5.335447,1.4828 -10.565229,3.22742 -15.820949,4.91509 -3.623719,1.15368 -7.242714,2.31962 -10.87719,3.44674 l -11.602779,-0.22003 z"
         id="path4256"
         style="fill:#000000;fill-opacity:1;stroke:none"
         inkscape:connector-curvature="0" />
      <path
         d="m 63.614836,41.813978 c 1.605008,-1.326387 3.275743,-2.568564 4.946185,-3.810331 1.371371,-1.1251 2.758319,-2.230672 4.136579,-3.345868 1.39347,-1.179116 2.86111,-2.267344 4.3055,-3.38166 1.32268,-1.079116 2.56919,-2.245633 3.8196,-3.405828 1.53807,-1.353911 2.99954,-2.787071 4.47246,-4.209183 1.28987,-1.246377 2.46966,-2.595772 3.67058,-3.925401 1.27093,-1.491813 2.56118,-2.967203 3.84823,-4.444409 0.46002,0.711827 4.35213,-7.106255 -0.05356,1.739537 l 2.24381,-2.775451 c -2.14544,4.03003 -4.1349,8.16015 -6.57405,12.024181 -1.38194,1.910519 -2.76699,3.816736 -4.39806,5.529716 -1.21332,1.305363 -2.41242,2.625005 -3.73026,3.828717 -1.4443,1.315983 -2.87299,2.650582 -4.38658,3.887734 -1.19521,0.989763 -2.35806,2.020708 -3.69506,2.826236 -1.32748,0.891522 -2.641024,1.8063 -3.996572,2.654945 -1.263083,0.845803 -2.526067,1.692659 -3.794537,2.531119 -1.586984,1.095383 -3.191637,2.166615 -4.70811,3.361311 l 3.893845,-9.085365 z"
         id="path4258"
         style="fill:#000000;fill-opacity:1;stroke:none"
         inkscape:connector-curvature="0" />
      <path
         sodipodi:nodetypes="cccccc"
         id="path4260"
         d="m 71.370462,56.47894 c 1.944525,7.339467 3.636822,14.73888 9.548986,19.533885 C 82.412405,77.515909 95.875482,88.707454 92.97079,74.01323 92.96619,70.758246 89.140419,65.315185 87.737864,62.520719 85.382041,57.567896 81.677172,49.895065 78.678629,45.173863 72.077226,37.56271 66.552362,44.387943 71.370462,56.47894 Z"
         style="fill:#000000;fill-opacity:1;fill-rule:evenodd;stroke:#000000;stroke-width:1.27730322px;stroke-linecap:butt;stroke-linejoin:miter;stroke-opacity:1"
         inkscape:connector-curvature="0" />
      <path
         sodipodi:nodetypes="cccsssc"
         id="path4262"
         d="m 72.364092,39.669757 c 0.217072,3.788542 6.510429,6.96185 8.925857,9.827738 4.272674,5.378966 4.762715,9.090205 7.251704,14.433006 1.190868,2.392908 1.97531,4.919088 2.946074,7.26398 0.965681,2.332613 1.452759,5.090456 1.964049,7.501365 0.558814,2.635007 0.423089,5.332668 0.930338,7.928658 0.338599,1.732871 -0.540436,3.452977 -0.930338,4.985084"
         style="fill:none;stroke:#000000;stroke-width:3.24899769;stroke-linecap:butt;stroke-linejoin:miter;stroke-miterlimit:4;stroke-dasharray:none;stroke-opacity:1"
         inkscape:connector-curvature="0" />
      <path
         sodipodi:nodetypes="ccc"
         id="path4264"
         d="m 57.428299,54.086563 c 1.658997,10.609506 3.727756,19.113324 10.974809,27.755788 3.387315,3.4879 7.266537,6.467304 10.531111,10.078567"
         style="fill:none;stroke:#000000;stroke-width:3.08373404;stroke-linecap:butt;stroke-linejoin:miter;stroke-miterlimit:4;stroke-dasharray:none;stroke-opacity:1"
         inkscape:connector-curvature="0" />
      <path
         d="m 82.53568,90.731002 c 1.819288,0.04834 3.639382,0.04218 5.459135,0.04609 6.303095,-1.501094 13.110845,0.730762 18.750825,1.067615 -0.67548,0.68882 -1.80317,1.173453 -2.70151,1.653315 l -3.0068,0.234716 c -2.69998,-0.193725 -5.393231,-0.441402 -8.106294,-0.371598 -1.217974,-0.0152 -4.87101,-0.103557 -3.653713,-0.0602 5.067331,0.1805 10.134707,0.359784 15.202057,0.539677 -0.26172,-0.02069 -0.52344,-0.04139 -0.78516,-0.06208 -1.79502,-0.01438 -3.59019,-0.03837 -5.38525,-0.02416 L 82.53568,90.731002 Z"
         id="path4266"
         style="fill:#000000;fill-opacity:1;stroke:none"
         inkscape:connector-curvature="0" />
      <path
         sodipodi:nodetypes="csssssssc"
         id="path4268"
         d="m 27.920516,87.676714 c -0.547361,1.108973 -1.094721,2.217944 -1.642082,3.326915 -1.207316,2.446063 -1.415171,4.866283 -0.2971,7.037701 1.557795,3.02542 5.98496,4.00471 9.663052,5.20364 0.263802,0.086 -3.844361,-0.0191 -6.750784,0.29857 -3.187644,0.3484 -6.563037,1.82676 -9.001046,2.38855 -5.353592,1.23365 -3.977429,-0.715 -2.858439,-3.54017 1.007147,-2.5428 3.027484,-5.209149 4.318068,-7.634848 1.950445,-3.665932 3.200683,-3.108244 6.568331,-7.080358 z"
         style="fill:#000000;fill-rule:evenodd;stroke:#000000;stroke-width:1.11350298px;stroke-linecap:butt;stroke-linejoin:miter;stroke-opacity:1"
         inkscape:connector-curvature="0" />
    </g>
    <path
       style="fill:none;fill-rule:evenodd;stroke:#000000;stroke-width:2.52881026px;stroke-linecap:butt;stroke-linejoin:miter;stroke-opacity:1"
       d="M -729.6406,34.074308 -397.04795,227.89555"
       id="path4664"
       inkscape:connector-curvature="0" />
    <path
       sodipodi:type="star"
       style="opacity:1;fill:#ffe70a;fill-opacity:1;fill-rule:evenodd;stroke:#ffd607;stroke-width:1.57236576;stroke-linecap:round;stroke-linejoin:round;stroke-miterlimit:4;stroke-dasharray:none;stroke-dashoffset:0;stroke-opacity:1"
       id="light01"
       sodipodi:sides="9"
       sodipodi:cx="-725.88312"
       sodipodi:cy="37.496532"
       sodipodi:r1="34.157639"
       sodipodi:r2="22.483055"
       sodipodi:arg1="0.66213924"
       sodipodi:arg2="1.0865153"
       inkscape:flatsided="false"
       inkscape:rounded="0.04"
       inkscape:randomized="0"
       d="m -698.94371,58.496834 c -0.44404,0.488771 -15.9123,-1.453125 -16.47192,-1.102575 -0.47153,0.295369 -2.77811,13.430763 -3.32944,13.505754 -0.65433,0.089 -11.25548,-11.341386 -11.9095,-11.432568 -0.55107,-0.07683 -10.76128,8.502827 -11.23183,8.205888 -0.55845,-0.352415 -1.33209,-15.922887 -1.77449,-16.413136 -0.37277,-0.413078 -13.70914,-0.403677 -13.87873,-0.933605 -0.20127,-0.628931 9.2146,-13.053892 9.19082,-13.713815 -0.02,-0.556043 -10.24232,-9.121295 -10.0316,-9.636254 0.25008,-0.611163 15.44966,-4.076835 15.85564,-4.597647 0.34207,-0.438829 -1.98302,-13.5709583 -1.49059,-13.8299916 0.58442,-0.3074262 14.45567,6.8078176 15.10144,6.6698106 0.54411,-0.116283 7.20416,-11.6706198 7.74788,-11.5525234 0.64531,0.1401592 6.69771,14.5070164 7.28111,14.8163894 0.49156,0.260674 13.02043,-4.309468 13.36104,-3.8695 0.40424,0.522162 -4.19419,15.418221 -3.94614,16.030215 0.209,0.515658 12.7443,5.068131 12.72242,5.624104 -0.026,0.659841 -13.12358,9.11507 -13.32695,9.743326 -0.17135,0.52936 6.50498,12.074296 6.13084,12.486128 z"
       inkscape:transform-center-x="4.5226117"
       inkscape:transform-center-y="-4.5226562" />
    <path
       style="opacity:0;fill:none;fill-rule:evenodd;stroke:#b7e844;stroke-width:5;stroke-linecap:butt;stroke-linejoin:miter;stroke-miterlimit:4;stroke-dasharray:none;stroke-opacity:1;marker-end:url(#marker5712)"
       d="m -656.22439,28.930609 c 0,0 94.10563,-20.6867359 153.33916,22.867337 59.23354,43.554073 83.73456,92.924164 93.68783,148.731564"
       id="arrowT"
       inkscape:connector-curvature="0"
       sodipodi:nodetypes="czc"
       inkscape:label="#path5675" />
    <circle
       style="opacity:1;fill:#ffffff;fill-opacity:1;fill-rule:evenodd;stroke:#b7e844;stroke-width:4.09961796;stroke-linecap:round;stroke-linejoin:round;stroke-miterlimit:4;stroke-dasharray:none;stroke-dashoffset:0;stroke-opacity:1"
       id="cursor"
       cx="-680.41504"
       cy="62.220352"
       r="7.730659"
       inkscape:label="#path8012" />
    <path
       sodipodi:nodetypes="czc"
       inkscape:connector-curvature="0"
       id="arrowB"
       d="m -427.23426,231.65457 c 0,0 -1.67585,36.59731 32.37775,36.59731 34.0536,0 31.43886,-19.40959 32.33021,-27.5209"
       style="opacity:0;fill:none;fill-rule:evenodd;stroke:#e84444;stroke-width:4.7201457;stroke-linecap:butt;stroke-linejoin:miter;stroke-miterlimit:4;stroke-dasharray:none;stroke-opacity:1;marker-end:url(#marker8344)"
       inkscape:label="#path8178" />
    <path
       inkscape:label="#path5675"
       sodipodi:nodetypes="czc"
       inkscape:connector-curvature="0"
       id="arrowTT"
       d="m -387.00557,205.65989 c 0,0 27.50264,-92.344 94.30368,-123.055383 66.80105,-30.711392 121.86019,-28.221857 175.50137,-9.887279"
       style="opacity:0;fill:none;fill-rule:evenodd;stroke:#b7e844;stroke-width:5;stroke-linecap:butt;stroke-linejoin:miter;stroke-miterlimit:4;stroke-dasharray:10, 5, 2.5, 5;stroke-dashoffset:0;stroke-opacity:0.5678392;marker-end:url(#marker4348)" />
  </g>
  <g
     inkscape:groupmode="layer"
     id="layer3"
     inkscape:label="CovarianceTracing2">
    <path
       style="fill:none;fill-rule:evenodd;stroke:#000000;stroke-width:2.52881026000000020px;stroke-linecap:butt;stroke-linejoin:miter;stroke-opacity:1"
       d="M -1175.957,228.61152 -853.68625,81.812022"
       id="path4666-1"
       inkscape:connector-curvature="0" />
    <path
       style="fill:none;fill-rule:evenodd;stroke:#838383;stroke-width:2.52881026000000020px;stroke-linecap:butt;stroke-linejoin:miter;stroke-opacity:1;marker-end:url(#Arrow1Send-1)"
       d="m -1174.7288,233.66916 0,-111.24651"
       id="path4270-1"
       inkscape:connector-curvature="0" />
    <rect
       style="opacity:1;fill:#e2e2e2;fill-opacity:1;fill-rule:evenodd;stroke:#000000;stroke-width:2.52881026;stroke-linecap:square;stroke-linejoin:miter;stroke-miterlimit:4;stroke-dasharray:none;stroke-dashoffset:0;stroke-opacity:1"
       id="rect4242-8"
       width="37.932156"
       height="758.64307"
       x="-265.22247"
       y="-1575.8732"
       transform="matrix(0,-1,1,0,0,0)" />
    <path
       style="fill:none;fill-rule:evenodd;stroke:#000000;stroke-width:2.52881026000000020px;stroke-linecap:butt;stroke-linejoin:miter;stroke-opacity:1"
       d="m -1509.198,33.643412 332.5926,193.821238"
       id="path4664-3"
       inkscape:connector-curvature="0" />
    <path
       style="opacity:0;fill:none;fill-rule:evenodd;stroke:#b7e844;stroke-width:5;stroke-linecap:butt;stroke-linejoin:miter;stroke-miterlimit:4;stroke-dasharray:none;stroke-opacity:1;marker-end:url(#marker5712-2)"
       d="m -1435.7818,28.499712 c 0,0 94.1056,-20.6867304 153.3392,22.86734 59.2335,43.55407 83.7345,92.924158 93.6878,148.731558"
       id="arrowT-8"
       inkscape:connector-curvature="0"
       sodipodi:nodetypes="czc"
       inkscape:label="#path5675" />
    <path
       sodipodi:nodetypes="czc"
       inkscape:connector-curvature="0"
       id="arrowB-5"
       d="m -1206.7917,231.22367 c 0,0 -1.6758,36.59731 32.3778,36.59731 34.0536,0 31.4388,-19.40959 32.3302,-27.5209"
       style="opacity:0;fill:none;fill-rule:evenodd;stroke:#e84444;stroke-width:4.7201457;stroke-linecap:butt;stroke-linejoin:miter;stroke-miterlimit:4;stroke-dasharray:none;stroke-opacity:1;marker-end:url(#marker8344-2)"
       inkscape:label="#path8178" />
    <path
       inkscape:label="#path5675"
       sodipodi:nodetypes="czc"
       inkscape:connector-curvature="0"
       id="arrowTT-6"
       d="m -1166.563,205.22899 c 0,0 27.5027,-92.344 94.3037,-123.055378 66.8011,-30.71139 121.8602,-28.22185 175.50138,-9.88728"
       style="opacity:0;fill:none;fill-rule:evenodd;stroke:#b7e844;stroke-width:5;stroke-linecap:butt;stroke-linejoin:miter;stroke-miterlimit:4;stroke-dasharray:10, 5, 2.50000000000000000, 5;stroke-dashoffset:0;stroke-opacity:0.5678392;marker-end:url(#marker4348-3)" />
    <path
       transform="matrix(0.25483176,0.60479336,-0.60479336,0.25483176,-1494.9106,10.014932)"
       sodipodi:nodetypes="cccccc"
       id="path4246-6"
       d="M 37.596459,67.418667 C 39.174569,54.959075 34.490699,42.01671 27.869769,31.117285 23.845939,25.112241 13.589129,6.9031066 6.3268765,15.660768 c -4.787153,6.495994 -4.676738,16.027171 -1.790581,24.053099 3.464763,11.281383 9.8469235,21.746746 18.0853135,30.090719 3.43697,2.594446 8.81161,2.365175 10.82444,-1.437395"
       style="fill:#a97a21;fill-opacity:1;fill-rule:evenodd;stroke:none"
       inkscape:connector-curvature="0" />
    <path
       transform="matrix(0.25483176,0.60479336,-0.60479336,0.25483176,-1494.9106,10.014932)"
       d="m 7.0667985,14.748442 c 1.396129,-2.456977 2.810927,-4.9038524 4.1990835,-7.3652874 2.091906,-3.446087 3.519866,-7.15265797 4.804106,-10.898799 1.38328,-4.548096 2.74525,-9.0635076 4.7648,-13.4224286 0.2824,-0.589808 0.56482,-1.179621 0.84722,-1.769438 l -0.10811,1.6625 c -0.33407,1.393442 -0.66815,2.78687 -1.00219,4.180308 -1.55496,6.5475996 -3.00447,13.12688463 -5.21152,19.5471736 -1.20789,3.20359 -2.59973,6.3261364 -4.889104,9.0034664 -1.3309215,1.546877 -2.6850545,3.073212 -3.9332975,4.685003 l 0.529012,-5.622498 z"
       id="path4252-2"
       style="fill:#000000;fill-opacity:1;stroke:none"
       inkscape:connector-curvature="0" />
    <path
       transform="matrix(0.25483176,0.60479336,-0.60479336,0.25483176,-1494.9106,10.014932)"
       d="m 7.7585135,18.278725 c 1.605008,-1.326387 3.2757435,-2.568564 4.9461855,-3.810331 1.371371,-1.1251 2.758319,-2.230672 4.136579,-3.345868 1.39347,-1.1791164 2.86111,-2.2673444 4.3055,-3.3816604 1.32268,-1.079116 2.56919,-2.245633 3.8196,-3.405828 1.53807,-1.353911 2.99954,-2.787071 4.47246,-4.20918297 1.28987,-1.24637703 2.46966,-2.59577203 3.67058,-3.92540103 1.27093,-1.491813 2.56118,-2.967203 3.84823,-4.444409 0.46002,0.711827 4.35213,-7.1062546 -0.05356,1.739537 l 2.24381,-2.775451 c -2.14544,4.03003 -4.1349,8.16015 -6.57405,12.024181 -1.38194,1.910519 -2.76699,3.816736 -4.39806,5.529716 -1.21332,1.305363 -2.41242,2.6250054 -3.73026,3.8287174 -1.4443,1.315983 -2.87299,2.650582 -4.38658,3.887734 -1.19521,0.989763 -2.35806,2.020708 -3.69506,2.826236 -1.32748,0.891522 -2.641024,1.8063 -3.996572,2.654945 -1.263083,0.845803 -2.5260675,1.692659 -3.7945375,2.531119 -1.586984,1.095383 -3.191637,2.166615 -4.70811,3.361311 l 3.893845,-9.085365 z"
       id="path4258-6"
       style="fill:#000000;fill-opacity:1;stroke:none"
       inkscape:connector-curvature="0" />
    <path
       transform="matrix(0.25483176,0.60479336,-0.60479336,0.25483176,-1494.9106,10.014932)"
       sodipodi:nodetypes="cccccc"
       id="path4260-9"
       d="m 15.51414,32.943687 c 1.944525,7.339467 3.636822,14.73888 9.548986,19.533885 1.492957,1.503084 14.956034,12.694629 12.051342,-1.999595 -0.0046,-3.254984 -3.830371,-8.698045 -5.232926,-11.492511 C 29.525719,34.032643 25.82085,26.359812 22.822307,21.63861 16.220904,14.027457 10.69604,20.85269 15.51414,32.943687 Z"
       style="fill:#000000;fill-opacity:1;fill-rule:evenodd;stroke:#000000;stroke-width:1.27730322000000007px;stroke-linecap:butt;stroke-linejoin:miter;stroke-opacity:1"
       inkscape:connector-curvature="0" />
    <path
       transform="matrix(0.25483176,0.60479336,-0.60479336,0.25483176,-1494.9106,10.014932)"
       sodipodi:nodetypes="cccsssc"
       id="path4262-5"
       d="m 16.50777,16.134504 c 0.217072,3.788542 6.510429,6.96185 8.925857,9.827738 4.272674,5.378966 4.762715,9.090205 7.251704,14.433006 1.190868,2.392908 1.97531,4.919088 2.946074,7.26398 0.965681,2.332613 1.452759,5.090456 1.964049,7.501365 0.558814,2.635007 0.423089,5.332668 0.930338,7.928658 0.338599,1.732871 -0.540436,3.452977 -0.930338,4.985084"
       style="fill:none;stroke:#000000;stroke-width:3.24899769;stroke-linecap:butt;stroke-linejoin:miter;stroke-miterlimit:4;stroke-dasharray:none;stroke-opacity:1"
       inkscape:connector-curvature="0" />
    <path
       transform="matrix(0.25483176,0.60479336,-0.60479336,0.25483176,-1494.9106,10.014932)"
       sodipodi:nodetypes="ccc"
       id="path4264-3"
       d="m 1.5719765,30.55131 c 1.658997,10.609506 3.727756,19.113324 10.9748095,27.755788 3.387315,3.4879 7.266537,6.467304 10.531111,10.078567"
       style="fill:none;stroke:#000000;stroke-width:3.08373404;stroke-linecap:butt;stroke-linejoin:miter;stroke-miterlimit:4;stroke-dasharray:none;stroke-opacity:1"
       inkscape:connector-curvature="0" />
    <path
       transform="matrix(0.25483176,0.60479336,-0.60479336,0.25483176,-1494.9106,10.014932)"
       d="m 26.679358,67.195749 c 1.819288,0.04834 3.639382,0.04218 5.459135,0.04609 6.303095,-1.501094 13.110845,0.730762 18.750825,1.067615 -0.67548,0.68882 -1.80317,1.173453 -2.70151,1.653315 l -3.0068,0.234716 c -2.69998,-0.193725 -5.393231,-0.441402 -8.106294,-0.371598 -1.217974,-0.0152 -4.87101,-0.103557 -3.653713,-0.0602 5.067331,0.1805 10.134707,0.359784 15.202057,0.539677 -0.26172,-0.02069 -0.52344,-0.04139 -0.78516,-0.06208 -1.79502,-0.01438 -3.59019,-0.03837 -5.38525,-0.02416 l -15.77329,-3.023375 z"
       id="path4266-8"
       style="fill:#000000;fill-opacity:1;stroke:none"
       inkscape:connector-curvature="0" />
    <circle
       style="opacity:1;fill:#ffffff;fill-opacity:1;fill-rule:evenodd;stroke:#b7e844;stroke-width:4.09961796;stroke-linecap:round;stroke-linejoin:round;stroke-miterlimit:4;stroke-dasharray:none;stroke-dashoffset:0;stroke-opacity:1"
       id="cursor-3"
       cx="-1459.9724"
       cy="61.789467"
       r="7.730659"
       inkscape:label="#path8012" />
    <g
       style=""
       id="eye02"
       inkscape:label="Layer 1"
       transform="matrix(0.25483176,0.60479336,-0.60479336,0.25483176,-1494.9106,10.014932)">
      <path
         d="m -17.803628,39.38103 c 1.898197,-2.363774 3.499136,-4.836258 5.000642,-7.338685 2.656932,-3.63251 9.1927045,-21.678792 3.3016685,-6.12021 2.227475,-6.994586 3.810957,-13.937568 4.930355,-20.7823324 0.106462,-0.862239 0.212911,-1.72448 0.319355,-2.586715 l 0.333751,-0.691867 c 0.174068,0.292231 0.348138,0.584471 0.522217,0.876705 1.286906,3.945246 0.198521,8.7629554 -1.076083,13.4827994 -3.101618,8.847965 -5.6630565,17.938456 -10.8664635,26.685355 -1.499706,2.331761 -3.014843,4.730357 -5.147341,6.749892 l 2.681899,-10.274942 z"
         id="path4248-7"
         style="fill:#000000;fill-opacity:1;stroke:none"
         inkscape:connector-curvature="0" />
      <path
         d="m -2.7157975,26.031752 c 1.075,-2.531323 2.11609801,-5.073767 3.13834301,-7.623 C 2.1296605,13.790908 3.4111975,9.0639296 4.7327105,4.3533386 c 1.687575,-6.197283 3.424421,-12.386219 5.5462275,-18.4823346 0.228558,-0.713573 0.457117,-1.427138 0.685664,-2.140718 0.0928,-0.245174 0.185589,-0.490348 0.278364,-0.735528 l 0.440851,-1.168907 c -1.169028,7.047391 -0.58156,3.685733 -1.7471965,10.0865376 -1.653468,8.24149403 -3.691602,16.419321 -5.923619,24.5655074 -1.282498,4.695281 -2.513206,9.433339 -4.46539799,13.954325 -0.98011401,2.06452 -1.97363401,4.121964 -3.04890801,6.146772 l 0.785507,-10.547241 z"
         id="path4250-9"
         style="fill:#000000;fill-opacity:1;stroke:none"
         inkscape:connector-curvature="0" />
      <path
         d="m -39.07304,73.942498 c 0.951509,-2.394743 2.074583,-4.732364 3.225871,-7.062857 1.430961,-2.700809 3.124937,-5.286594 4.778146,-7.884551 1.755367,-2.708712 3.483338,-5.431331 5.238039,-8.140336 1.486734,-2.397385 3.138426,-4.701031 4.827828,-6.983796 1.752013,-2.255342 3.661833,-4.393819 5.551717,-6.548661 1.826477,-1.985535 3.629107,-3.990146 5.443626,-5.985029 1.6416535,-1.796771 3.2991055,-3.578508 4.9659125,-5.355373 1.782937,-1.804258 3.603256,-3.574038 5.42004101,-5.34802 2.19292799,-2.131076 4.23330899,-4.37326 6.19668499,-6.691364 1.569388,-2.621572 2.872491,-3.34366 4.9680435,-3.7964 0.515409,0.283772 0.903256,0.710294 1.354886,1.065437 l -0.528563,3.999877 c -1.42683,3.517287 -0.718691,1.741896 -2.12341,5.326482 -1.4647235,3.824853 -3.1043055,7.516421 -5.9574855,10.738273 -2.048679,2.288073 -4.11910499,4.568424 -6.390574,6.668919 -1.789494,1.704254 -3.582582,3.406632 -5.348048,5.133233 -1.649286,1.598178 -3.3002675,3.19369 -4.8504465,4.880561 -1.798059,1.853134 -3.617909,3.688175 -5.364451,5.58547 -1.859803,1.988192 -3.700163,3.999712 -5.343552,6.150523 -1.592589,2.057407 -3.164389,4.128029 -4.617782,6.270761 -1.728031,2.545448 -3.474264,5.081019 -5.16418,7.647345 -1.583099,2.391925 -3.173467,4.781845 -4.563475,7.268815 -1.03686,1.90582 -2.067794,3.81536 -2.99157,5.76443 l 1.272742,-12.703739 z"
         id="path4254-7"
         style="fill:#000000;fill-opacity:1;stroke:none"
         inkscape:connector-curvature="0" />
      <path
         sodipodi:nodetypes="csccccccccccccc"
         d="m -40.67826,85.945467 c 2.906709,-1.44945 0.02294,-2.49111 3.088544,-3.61241 4.867798,-1.78051 9.806748,-3.39243 14.748189,-4.9977 5.490247,-1.76101 11.217813,-2.82778 16.9312135,-3.90597 5.54469001,-0.93217 11.078135,-1.90311 16.6036345,-2.90557 5.747687,-1.062373 11.415397,-2.387909 17.100617,-3.65495 5.8674,-1.267625 13.7016,-2.595107 19.46857,-4.165385 l 7.1731,0.0176 c -0.64308,1.854977 -2.75124,1.567437 -4.5951,2.528246 -4.32006,1.880309 -12.82913,5.239716 -17.60725,5.982456 -5.65872,1.04333 -11.33106,2.03668 -17.03425,2.91557 -5.9152335,1.02637 -11.8498965,2.01468 -17.5763505,3.656313 -5.335447,1.4828 -10.5652285,3.22742 -15.8209485,4.91509 -3.623719,1.15368 -7.242714,2.31962 -10.87719,3.44674 l -11.602779,-0.22003 z"
         id="path4256-8"
         style="fill:#000000;fill-opacity:1;stroke:none"
         inkscape:connector-curvature="0" />
      <path
         sodipodi:nodetypes="csssssssc"
         id="path4268-8"
         d="m -27.935806,64.141461 c -0.547361,1.108973 -1.094721,2.217944 -1.642082,3.326915 -1.207316,2.446063 -1.415171,4.866283 -0.2971,7.037701 1.557795,3.02542 5.98496,4.00471 9.663052,5.20364 0.263802,0.086 -3.844361,-0.0191 -6.750784,0.29857 -3.187644,0.3484 -6.563037,1.82676 -9.001046,2.38855 -5.353592,1.23365 -3.977429,-0.715 -2.858439,-3.54017 1.007147,-2.5428 3.027484,-5.209149 4.318068,-7.634848 1.950445,-3.665932 3.200683,-3.108244 6.568331,-7.080358 z"
         style="fill:#000000;fill-rule:evenodd;stroke:#000000;stroke-width:1.11350298px;stroke-linecap:butt;stroke-linejoin:miter;stroke-opacity:1"
         inkscape:connector-curvature="0" />
    </g>
    <path
       sodipodi:type="star"
       style="opacity:1;fill:#ffe70a;fill-opacity:1;fill-rule:evenodd;stroke:#ffd607;stroke-width:1.57236576;stroke-linecap:round;stroke-linejoin:round;stroke-miterlimit:4;stroke-dasharray:none;stroke-dashoffset:0;stroke-opacity:1"
       id="light02"
       sodipodi:sides="9"
       sodipodi:cx="-834.38507"
       sodipodi:cy="71.656143"
       sodipodi:r1="34.157639"
       sodipodi:r2="22.483055"
       sodipodi:arg1="0.66213924"
       sodipodi:arg2="1.0865153"
       inkscape:flatsided="false"
       inkscape:rounded="0.04"
       inkscape:randomized="0"
       d="m -807.44566,92.656445 c -0.44404,0.488771 -15.9123,-1.453125 -16.47193,-1.102575 -0.47153,0.295369 -2.77811,13.43076 -3.32943,13.50575 -0.65433,0.089 -11.25548,-11.341382 -11.9095,-11.432564 -0.55108,-0.07683 -10.76129,8.502824 -11.23183,8.205884 -0.55845,-0.35241 -1.33209,-15.922883 -1.7745,-16.413132 -0.37276,-0.413078 -13.70913,-0.403677 -13.87872,-0.933606 -0.20127,-0.62893 9.21459,-13.053891 9.19082,-13.713814 -0.02,-0.556043 -10.24233,-9.121295 -10.03161,-9.636254 0.25009,-0.611163 15.44967,-4.076835 15.85565,-4.597647 0.34207,-0.438829 -1.98303,-13.570959 -1.4906,-13.829992 0.58443,-0.307426 14.45567,6.807818 15.10144,6.669811 0.54412,-0.116283 7.20416,-11.67062 7.74789,-11.552524 0.64531,0.14016 6.69771,14.507017 7.2811,14.81639 0.49157,0.260674 13.02044,-4.309468 13.36105,-3.869501 0.40424,0.522163 -4.19419,15.418222 -3.94615,16.030216 0.20901,0.515658 12.74431,5.068131 12.72243,5.624104 -0.026,0.65984 -13.12358,9.115069 -13.32695,9.743325 -0.17135,0.529361 6.50497,12.074296 6.13084,12.486129 z"
       inkscape:transform-center-x="4.5226117"
       inkscape:transform-center-y="-4.5226562" />
  </g>
</svg>
