<?xml version="1.0" encoding="UTF-8" standalone="no"?>
<svg
   xmlns:ns0="http://www.iki.fi/pav/software/textext/"
   xmlns:dc="http://purl.org/dc/elements/1.1/"
   xmlns:cc="http://creativecommons.org/ns#"
   xmlns:rdf="http://www.w3.org/1999/02/22-rdf-syntax-ns#"
   xmlns:svg="http://www.w3.org/2000/svg"
   xmlns="http://www.w3.org/2000/svg"
   xmlns:xlink="http://www.w3.org/1999/xlink"
   width="210mm"
   height="297mm"
   viewBox="0 0 744.09448819 1052.3622047"
   id="svg2"
   version="1.1">
  <defs
     id="defs4">
    <linearGradient
       id="linearGradient4885">
      <stop
         id="stop4887"
         offset="0"
         style="stop-color:#7c80ff;stop-opacity:1" />
      <stop
         id="stop4889"
         offset="1"
         style="stop-color:#d5d7ff;stop-opacity:0" />
    </linearGradient>
    <marker
       orient="auto"
       refY="0.0"
       refX="0.0"
       id="marker4754"
       style="overflow:visible;">
      <path
         id="path4756"
         d="M 0.0,0.0 L 5.0,-5.0 L -12.5,0.0 L 5.0,5.0 L 0.0,0.0 z "
         style="fill-rule:evenodd;stroke:#000000;stroke-width:1pt;stroke-opacity:1;fill:#000000;fill-opacity:1"
         transform="scale(0.2) rotate(180) translate(6,0)" />
    </marker>
    <marker
       orient="auto"
       refY="0.0"
       refX="0.0"
       id="marker4594"
       style="overflow:visible;">
      <path
         id="path4596"
         style="fill-rule:evenodd;stroke-width:0.625;stroke-linejoin:round;stroke:#000000;stroke-opacity:1;fill:#000000;fill-opacity:1"
         d="M 8.7185878,4.0337352 L -2.2072895,0.016013256 L 8.7185884,-4.0017078 C 6.9730900,-1.6296469 6.9831476,1.6157441 8.7185878,4.0337352 z "
         transform="scale(0.6) rotate(180) translate(0,0)" />
    </marker>
    <marker
       style="overflow:visible;"
       id="Arrow1Send"
       refX="0.0"
       refY="0.0"
       orient="auto">
      <path
         transform="scale(0.2) rotate(180) translate(6,0)"
         style="fill-rule:evenodd;stroke:#000000;stroke-width:1pt;stroke-opacity:1;fill:#000000;fill-opacity:1"
         d="M 0.0,0.0 L 5.0,-5.0 L -12.5,0.0 L 5.0,5.0 L 0.0,0.0 z "
         id="path4159" />
    </marker>
    <marker
       style="overflow:visible;"
       id="Arrow1Mend"
       refX="0.0"
       refY="0.0"
       orient="auto">
      <path
         transform="scale(0.4) rotate(180) translate(10,0)"
         style="fill-rule:evenodd;stroke:#000000;stroke-width:1pt;stroke-opacity:1;fill:#000000;fill-opacity:1"
         d="M 0.0,0.0 L 5.0,-5.0 L -12.5,0.0 L 5.0,5.0 L 0.0,0.0 z "
         id="path4153" />
    </marker>
    <radialGradient
       gradientUnits="userSpaceOnUse"
       gradientTransform="matrix(1,0,0,1.9577633,-0.11336579,18.206127)"
       r="35.514103"
       fy="-20.438885"
       fx="208.36578"
       cy="-20.438885"
       cx="208.36578"
       id="radialGradient4891"
       xlink:href="#linearGradient4885" />
  </defs>
  <metadata
     id="metadata7">
    <rdf:RDF>
      <cc:Work
         rdf:about="">
        <dc:format>image/svg+xml</dc:format>
        <dc:type
           rdf:resource="http://purl.org/dc/dcmitype/StillImage" />
        <dc:title></dc:title>
      </cc:Work>
    </rdf:RDF>
  </metadata>
  <g
     id="layer1">
    <rect
       y="46.647919"
       x="60.94252"
       height="188.57143"
       width="188.57143"
       id="rect4136"
       style="opacity:1;fill:#ffffff;fill-opacity:1;fill-rule:evenodd;stroke:#000000;stroke-width:3;stroke-linecap:round;stroke-linejoin:round;stroke-miterlimit:4;stroke-dasharray:none;stroke-dashoffset:0;stroke-opacity:0.98627451" />
    <ellipse
       transform="matrix(0.66864746,0.74357957,-0.74357957,0.66864746,0,0)"
       ry="68.028206"
       rx="34.014103"
       cy="-21.808369"
       cx="208.25241"
       id="covariance"
       style="opacity:1;fill:url(#radialGradient4891);fill-opacity:1;fill-rule:evenodd;stroke:#1d00fe;stroke-width:1;stroke-linecap:round;stroke-linejoin:round;stroke-miterlimit:4;stroke-dasharray:1, 2;stroke-dashoffset:0;stroke-opacity:0.98627451" />
    <path
       id="path4138"
       d="m 48.963948,140.95285 237.692862,0"
       style="fill:none;fill-rule:evenodd;stroke:#000000;stroke-width:3;stroke-linecap:butt;stroke-linejoin:miter;stroke-miterlimit:4;stroke-dasharray:none;stroke-opacity:1;marker-end:url(#marker4754)" />
    <path
       style="fill:none;fill-rule:evenodd;stroke:#000000;stroke-width:3;stroke-linecap:butt;stroke-linejoin:miter;stroke-miterlimit:4;stroke-dasharray:none;stroke-opacity:1;marker-end:url(#Arrow1Send)"
       d="m 155.25706,254.03821 0,-237.692859"
       id="path4592" />
    <g
       ns0:preamble=""
       ns0:text="$$\\Omega_x$$"
       word-spacing="normal"
       letter-spacing="normal"
       font-size-adjust="none"
       font-stretch="normal"
       font-weight="normal"
       font-variant="normal"
       font-style="normal"
       stroke-miterlimit="10.433"
       xml:space="preserve"
       transform="matrix(2,0,0,-2,-515.81156,1546.0234)"
       id="omegax"
       style="font-style:normal;font-variant:normal;font-weight:normal;font-stretch:normal;letter-spacing:normal;word-spacing:normal;text-anchor:start;fill:none;fill-opacity:1;fill-rule:evenodd;stroke:#000000;stroke-linecap:butt;stroke-linejoin:miter;stroke-miterlimit:10.43299961;stroke-dasharray:none;stroke-dashoffset:0;stroke-opacity:1"><path
         id="path4811"
         d="m 395.93,708.73 -0.25,0 c -0.05,-0.25 -0.09,-0.48 -0.18,-0.72 -0.05,-0.16 -0.08,-0.24 -0.65,-0.24 l -0.8,0 c 0.13,0.56 0.44,1.03 0.89,1.69 0.46,0.7 0.87,1.39 0.87,2.18 0,1.38 -1.34,2.49 -3.03,2.49 -1.71,0 -3.04,-1.13 -3.04,-2.49 0,-0.79 0.41,-1.48 0.88,-2.18 0.44,-0.66 0.76,-1.13 0.89,-1.69 l -0.8,0 c -0.58,0 -0.61,0.08 -0.66,0.23 -0.08,0.23 -0.13,0.49 -0.18,0.73 l -0.25,0 0.33,-1.61 1.6,0 c 0.22,0 0.25,0 0.25,0.21 0,0.7 -0.31,1.57 -0.54,2.21 -0.21,0.57 -0.49,1.36 -0.49,2.11 0,1.58 1.09,2.26 2,2.26 0.96,0 2.02,-0.71 2.02,-2.26 0,-0.75 -0.27,-1.5 -0.56,-2.32 -0.15,-0.42 -0.47,-1.31 -0.47,-2 0,-0.21 0.03,-0.21 0.26,-0.21 l 1.58,0 z"
         style="fill:#000000;stroke-width:0" /><path
         id="path4813"
         d="m 398.12,706.37 -0.01,-0.02 -0.01,-0.03 -0.01,-0.02 -0.01,-0.03 -0.01,-0.02 -0.01,-0.03 -0.01,-0.02 -0.01,-0.03 -0.02,-0.02 -0.01,-0.03 -0.02,-0.02 -0.02,-0.03 -0.01,-0.02 -0.02,-0.03 -0.02,-0.02 -0.02,-0.03 -0.02,-0.02 -0.03,-0.02 -0.02,-0.02 -0.02,-0.02 -0.03,-0.02 -0.02,-0.02 -0.03,-0.02 -0.03,-0.01 -0.02,-0.02 -0.03,-0.01 -0.03,-0.01 -0.03,-0.01 -0.03,0 -0.03,-0.01 -0.04,0 -0.03,0 c -0.02,0 -0.23,0 -0.38,0.09 0.29,0.09 0.31,0.34 0.31,0.39 0,0.15 -0.12,0.25 -0.28,0.25 -0.19,0 -0.4,-0.16 -0.4,-0.42 0,-0.35 0.39,-0.51 0.74,-0.51 0.32,0 0.6,0.2 0.78,0.49 0.17,-0.36 0.55,-0.49 0.83,-0.49 0.81,0 1.23,0.87 1.23,1.06 0,0.1 -0.09,0.1 -0.11,0.1 -0.1,0 -0.1,-0.04 -0.13,-0.12 -0.15,-0.48 -0.57,-0.84 -0.96,-0.84 -0.28,0 -0.43,0.18 -0.43,0.45 0,0.18 0.17,0.81 0.37,1.58 0.14,0.54 0.45,0.71 0.68,0.71 0.02,0 0.23,0 0.38,-0.09 -0.22,-0.07 -0.31,-0.26 -0.31,-0.39 0,-0.15 0.12,-0.25 0.28,-0.25 0.16,0 0.39,0.13 0.39,0.42 0,0.39 -0.44,0.51 -0.72,0.51 -0.35,0 -0.63,-0.23 -0.79,-0.5 -0.12,0.29 -0.44,0.5 -0.84,0.5 -0.78,0 -1.23,-0.86 -1.23,-1.07 0,-0.09 0.1,-0.09 0.12,-0.09 0.09,0 0.1,0.03 0.13,0.12 0.18,0.54 0.62,0.84 0.96,0.84 0.23,0 0.42,-0.12 0.42,-0.46 0,-0.13 -0.08,-0.48 -0.14,-0.72 z"
         style="fill:#000000;stroke-width:0" /></g>    <g
       id="omegau"
       transform="matrix(2,0,0,-2,-612.21845,1439.9274)"
       xml:space="preserve"
       stroke-miterlimit="10.433"
       font-style="normal"
       font-variant="normal"
       font-weight="normal"
       font-stretch="normal"
       font-size-adjust="none"
       letter-spacing="normal"
       word-spacing="normal"
       ns0:text="$$\\Omega_u$$"
       ns0:preamble=""
       style="font-style:normal;font-variant:normal;font-weight:normal;font-stretch:normal;letter-spacing:normal;word-spacing:normal;text-anchor:start;fill:none;fill-opacity:1;fill-rule:evenodd;stroke:#000000;stroke-linecap:butt;stroke-linejoin:miter;stroke-miterlimit:10.43299961;stroke-dasharray:none;stroke-dashoffset:0;stroke-opacity:1"><path
         style="fill:#000000;stroke-width:0"
         d="m 395.84,708.73 -0.25,0 c -0.05,-0.25 -0.09,-0.48 -0.18,-0.72 -0.05,-0.16 -0.08,-0.24 -0.66,-0.24 l -0.8,0 c 0.13,0.56 0.44,1.03 0.89,1.69 0.47,0.7 0.88,1.39 0.88,2.18 0,1.38 -1.35,2.49 -3.03,2.49 -1.72,0 -3.05,-1.13 -3.05,-2.49 0,-0.79 0.41,-1.48 0.88,-2.18 0.44,-0.66 0.76,-1.13 0.89,-1.69 l -0.8,0 c -0.58,0 -0.61,0.08 -0.66,0.23 -0.08,0.23 -0.13,0.49 -0.18,0.73 l -0.25,0 0.33,-1.61 1.6,0 c 0.22,0 0.25,0 0.25,0.21 0,0.7 -0.31,1.57 -0.54,2.21 -0.21,0.57 -0.49,1.36 -0.49,2.11 0,1.58 1.1,2.26 2.01,2.26 0.95,0 2.01,-0.71 2.01,-2.26 0,-0.75 -0.27,-1.5 -0.56,-2.32 -0.15,-0.42 -0.47,-1.31 -0.47,-2 0,-0.21 0.03,-0.21 0.26,-0.21 l 1.59,0 z"
         id="path4859" /><path
         style="fill:#000000;stroke-width:0"
         d="m 399.24,706.76 0,-0.02 -0.01,-0.01 0,-0.01 -0.01,-0.02 0,-0.02 0,-0.01 -0.01,-0.03 -0.01,-0.04 -0.01,-0.03 -0.01,-0.04 0,-0.01 0,-0.02 -0.01,-0.01 0,-0.02 -0.01,-0.01 0,-0.02 0,-0.01 -0.01,-0.01 0,-0.01 0,-0.02 -0.01,-0.01 0,0 0,-0.01 -0.01,-0.01 0,0 0,0 0,-0.01 0,0 0,0 0,0 0,0 0,0 c -0.14,-0.22 -0.42,-0.59 -0.85,-0.59 -0.48,0 -0.48,0.45 -0.48,0.57 0,0.41 0.19,0.91 0.39,1.41 0.06,0.14 0.1,0.25 0.1,0.36 0,0.36 -0.31,0.6 -0.67,0.6 -0.7,0 -1.01,-0.96 -1.01,-1.07 0,-0.09 0.1,-0.09 0.12,-0.09 0.1,0 0.1,0.04 0.12,0.11 0.17,0.57 0.48,0.85 0.75,0.85 0.12,0 0.18,-0.07 0.18,-0.24 0,-0.16 -0.06,-0.31 -0.13,-0.47 -0.38,-0.96 -0.38,-1.16 -0.38,-1.34 0,-0.12 0,-0.44 0.26,-0.67 0.2,-0.16 0.48,-0.22 0.72,-0.22 0.44,0 0.68,0.24 0.91,0.46 0.16,-0.44 0.62,-0.46 0.71,-0.46 0.24,0 0.42,0.14 0.55,0.37 0.15,0.27 0.25,0.67 0.25,0.69 0,0.1 -0.1,0.1 -0.12,0.1 -0.1,0 -0.1,-0.03 -0.15,-0.22 -0.08,-0.33 -0.22,-0.74 -0.51,-0.74 -0.18,0 -0.23,0.16 -0.23,0.34 0,0.12 0.05,0.37 0.1,0.55 0.05,0.18 0.12,0.47 0.16,0.62 l 0.16,0.62 c 0.04,0.18 0.12,0.48 0.12,0.52 0,0.13 -0.12,0.22 -0.23,0.22 -0.26,0 -0.31,-0.2 -0.37,-0.43 z"
         id="path4861" /></g>    <g
       style="font-style:normal;font-variant:normal;font-weight:normal;font-stretch:normal;letter-spacing:normal;word-spacing:normal;text-anchor:start;fill:none;fill-opacity:1;fill-rule:evenodd;stroke:#000000;stroke-linecap:butt;stroke-linejoin:miter;stroke-miterlimit:10.43299961;stroke-dasharray:none;stroke-dashoffset:0;stroke-opacity:1"
       ns0:preamble=""
       ns0:text="$$\\Sigma = \n\\left[ \n\\begin{array}{cc}\n\\sigma^2_{x} &amp; \\rho \\\\\n\\rho &amp; \\sigma^2_{u}\n\\end{array}\n\\right]\n$$"
       word-spacing="normal"
       letter-spacing="normal"
       font-size-adjust="none"
       font-stretch="normal"
       font-weight="normal"
       font-variant="normal"
       font-style="normal"
       stroke-miterlimit="10.433"
       xml:space="preserve"
       transform="matrix(5.4254069,0,0,-5.4254069,-1620.362,3968.5096)"
       id="matrix"><path
         style="fill:#000000;stroke-width:0"
         id="path5582"
         d="m 362.73,705.88 0.01,0 0,0.01 0,0 0.01,0.01 0,0 0.01,0.01 0,0 0,0 0.01,0.01 0,0 0,0.01 0.01,0.01 0,0 0.01,0.01 0,0.01 0.01,0 0,0.01 0,0 0.01,0.01 0,0 0,0.01 0,0 0,0.01 0.01,0 0,0.01 0,0 0,0 0,0.01 0,0 0,0 0,0.01 0,0 0,0 0,0 0,0.01 0,0 c 0,0.05 -0.04,0.1 -0.07,0.14 l -2.04,2.94 2.3,0 c 1.69,0 2.19,-0.36 2.39,-1.93 l 0.25,0 -0.27,2.24 -5.54,0 c -0.24,0 -0.26,0 -0.26,-0.23 l 2.49,-3.6 -2.38,-2.69 c -0.1,-0.11 -0.1,-0.13 -0.1,-0.16 0,-0.11 0.1,-0.11 0.25,-0.11 l 5.54,0 0.27,2.35 -0.25,0 c -0.17,-1.66 -0.85,-1.93 -2.42,-1.93 l -2.75,0 z" /><path
         style="fill:#000000;stroke-width:0"
         id="path5584"
         d="m 375.83,705.89 0.03,0 0.03,0 0.03,0 0.01,0 0.01,0 0.02,0 0.01,0.01 0.02,0 0.01,0 0.02,0 0.01,0.01 0.01,0 0.01,0 0.02,0.01 0.01,0.01 0.01,0 0.01,0.01 0.01,0.01 0.01,0 0.01,0.01 0.01,0.01 0,0.01 0,0 0.01,0.01 0,0.01 0,0 0,0.01 0.01,0.01 0,0 0,0.01 0,0.01 0,0.01 0.01,0 0,0.01 0,0.01 0,0.01 0,0.01 c 0,0.2 -0.19,0.2 -0.33,0.2 l -5.98,0 c -0.13,0 -0.32,0 -0.32,-0.2 0,-0.2 0.19,-0.2 0.34,-0.2 z" /><path
         style="fill:#000000;stroke-width:0"
         id="path5586"
         d="m 375.84,703.96 0.01,0 0.01,0 0.03,0 0.03,0 0.01,0.01 0.02,0 0.01,0 0.02,0 0.01,0 0.01,0 0.02,0.01 0.01,0 0.01,0 0.02,0.01 0.01,0 0.01,0.01 0.01,0 0.01,0.01 0.01,0.01 0.01,0.01 0.01,0.01 0,0 0.01,0.01 0,0 0,0.01 0.01,0 0,0.01 0,0.01 0,0 0.01,0.01 0,0.01 0,0 0,0.01 0,0.01 0.01,0.01 0,0.01 0,0 0,0.01 0,0.01 c 0,0.2 -0.19,0.2 -0.34,0.2 l -5.95,0 c -0.15,0 -0.34,0 -0.34,-0.2 0,-0.2 0.19,-0.2 0.32,-0.2 z" /><polygon
         style="fill:#000000;stroke-width:0"
         id="polygon5588"
         points="384.62,693.8 382.54,693.8 382.54,716.54 384.62,716.54 384.62,717.09 381.99,717.09 381.99,693.26 384.62,693.26 " /><path
         style="fill:#000000;stroke-width:0"
         id="path5590"
         d="m 394.91,712.42 0.01,0 0.01,0 0.02,0 0.01,0 0.02,0.01 0.02,0 0.02,0 0.02,0 0.02,0 0.02,0 0.02,0.01 0.02,0 0.02,0.01 0.02,0 0.02,0.01 0.02,0.01 0.02,0 0.02,0.01 0.02,0.01 0.01,0.02 0.02,0.01 0.02,0.01 0.01,0.01 0,0.01 0.01,0.01 0.01,0.01 0,0.01 0.01,0.01 0.01,0.01 0,0.01 0.01,0.01 0,0.01 0.01,0.01 0,0.01 0,0.01 0.01,0.02 0,0.01 0,0.01 0,0.02 0,0.01 0,0.02 0,0.01 c 0,0.24 -0.2,0.24 -0.38,0.24 l -2.28,0 c -1.5,0 -2.61,-1.64 -2.61,-2.82 0,-0.88 0.59,-1.57 1.5,-1.57 l 0.01,0.22 c -0.49,0 -0.89,0.36 -0.89,1.07 0,0.3 0.12,1.11 0.47,1.7 0.42,0.68 1.01,0.82 1.35,0.82 0.84,0 0.92,-0.65 0.92,-0.96 0,-0.47 -0.2,-1.28 -0.54,-1.79 -0.39,-0.58 -0.92,-0.84 -1.31,-0.84 l 0,0 -0.01,-0.22 c 1.17,0 2.5,1.2 2.5,2.73 0,0.17 0,0.65 -0.31,1.08 z" /><path
         style="fill:#000000;stroke-width:0"
         id="path5592"
         d="m 399.32,713.6 -0.24,0 c -0.02,-0.15 -0.09,-0.56 -0.18,-0.63 -0.05,-0.05 -0.59,-0.05 -0.69,-0.05 l -1.29,0 c 0.74,0.65 0.98,0.85 1.4,1.17 0.52,0.41 1,0.84 1,1.5 0,0.85 -0.74,1.36 -1.63,1.36 -0.87,0 -1.46,-0.6 -1.46,-1.24 0,-0.36 0.3,-0.39 0.37,-0.39 0.17,0 0.37,0.11 0.37,0.37 0,0.12 -0.05,0.36 -0.41,0.36 0.22,0.5 0.69,0.65 1.02,0.65 0.7,0 1.06,-0.54 1.06,-1.11 0,-0.6 -0.43,-1.08 -0.65,-1.33 l -1.69,-1.66 c -0.07,-0.06 -0.07,-0.07 -0.07,-0.27 l 2.88,0 z" /><path
         style="fill:#000000;stroke-width:0"
         id="path5594"
         d="m 397.17,706.99 0,-0.02 -0.01,-0.02 -0.01,-0.03 -0.01,-0.02 -0.01,-0.03 -0.01,-0.02 -0.01,-0.03 -0.02,-0.02 -0.01,-0.03 -0.02,-0.02 -0.01,-0.03 -0.02,-0.02 -0.02,-0.03 -0.02,-0.02 -0.02,-0.03 -0.02,-0.02 -0.02,-0.02 -0.02,-0.03 -0.02,-0.02 -0.03,-0.02 -0.02,-0.02 -0.03,-0.01 -0.02,-0.02 -0.03,-0.02 -0.03,-0.01 -0.03,-0.01 -0.03,-0.01 -0.03,-0.01 -0.03,-0.01 -0.03,0 -0.03,-0.01 -0.03,0 c -0.02,0 -0.23,0 -0.38,0.1 0.29,0.09 0.31,0.34 0.31,0.38 0,0.15 -0.12,0.26 -0.28,0.26 -0.2,0 -0.4,-0.17 -0.4,-0.43 0,-0.34 0.39,-0.5 0.73,-0.5 0.32,0 0.61,0.2 0.79,0.49 0.16,-0.37 0.55,-0.49 0.83,-0.49 0.8,0 1.23,0.87 1.23,1.06 0,0.09 -0.09,0.09 -0.11,0.09 -0.1,0 -0.11,-0.03 -0.14,-0.12 -0.14,-0.48 -0.56,-0.84 -0.95,-0.84 -0.28,0 -0.43,0.19 -0.43,0.45 0,0.18 0.17,0.82 0.36,1.59 0.14,0.53 0.46,0.71 0.69,0.71 0.01,0 0.23,0 0.38,-0.1 -0.23,-0.06 -0.31,-0.26 -0.31,-0.38 0,-0.16 0.12,-0.26 0.28,-0.26 0.16,0 0.39,0.13 0.39,0.43 0,0.38 -0.45,0.5 -0.73,0.5 -0.35,0 -0.63,-0.23 -0.78,-0.49 -0.13,0.28 -0.45,0.49 -0.84,0.49 -0.78,0 -1.23,-0.85 -1.23,-1.06 0,-0.09 0.1,-0.09 0.12,-0.09 0.09,0 0.1,0.03 0.13,0.12 0.18,0.54 0.62,0.84 0.96,0.84 0.23,0 0.42,-0.13 0.42,-0.46 0,-0.14 -0.08,-0.49 -0.15,-0.72 z" /><path
         style="fill:#000000;stroke-width:0"
         id="path5596"
         d="m 413.62,707 -0.01,-0.01 0,0 0,-0.01 0,0 0,-0.01 0,0 0,-0.01 0,0 0,0 -0.01,-0.01 0,0 0,-0.01 0,0 0,0 0,-0.01 0,-0.01 0,-0.01 -0.01,0 0,-0.01 0,0 0,-0.01 0,0 0,-0.01 0,0 0,0 0,-0.01 0,0 0,0 0,-0.01 0,0 0,0 0,0 0,-0.01 0,0 0,-0.01 0,0 c 0,-0.15 0.11,-0.27 0.27,-0.27 0.22,0 0.33,0.18 0.35,0.21 0.05,0.09 0.37,1.42 0.64,2.5 0.2,-0.4 0.52,-0.67 0.99,-0.67 l -0.01,0.22 c -0.7,0 -0.86,0.79 -0.86,0.88 0,0.04 0.05,0.24 0.08,0.37 0.28,1.11 0.38,1.47 0.6,1.87 0.43,0.72 0.93,0.94 1.24,0.94 0.37,0 0.69,-0.29 0.69,-0.97 0,-0.55 -0.29,-1.66 -0.56,-2.15 -0.33,-0.62 -0.81,-0.94 -1.19,-0.94 l 0,0 0.01,-0.22 c 1.17,0 2.45,1.4 2.45,2.88 0,1.05 -0.65,1.62 -1.38,1.62 -0.97,0 -2.02,-0.99 -2.32,-2.21 z" /><path
         style="fill:#000000;stroke-width:0"
         id="path5598"
         d="m 392.85,695.04 0,0 0,-0.01 -0.01,0 0,-0.01 0,0 0,-0.01 0,0 0,-0.01 0,0 0,0 0,-0.01 0,0 -0.01,-0.01 0,0 0,-0.01 0,0 0,-0.01 0,-0.01 0,0 0,-0.01 -0.01,0 0,-0.01 0,0 0,-0.01 0,0 0,0 0,-0.01 0,0 0,0 0,0 0,-0.01 0,0 0,0 0,-0.01 0,0 0,0 c 0,-0.15 0.11,-0.27 0.28,-0.27 0.21,0 0.33,0.18 0.35,0.21 0.05,0.09 0.37,1.42 0.64,2.49 0.2,-0.4 0.51,-0.66 0.98,-0.66 l -0.01,0.21 c -0.7,0 -0.86,0.8 -0.86,0.89 0,0.04 0.06,0.24 0.09,0.36 0.27,1.12 0.37,1.47 0.59,1.87 0.43,0.73 0.93,0.95 1.24,0.95 0.37,0 0.69,-0.29 0.69,-0.98 0,-0.54 -0.29,-1.66 -0.56,-2.14 -0.33,-0.63 -0.81,-0.95 -1.19,-0.95 l 0,0 0.01,-0.21 c 1.17,0 2.46,1.39 2.46,2.88 0,1.05 -0.66,1.62 -1.39,1.62 -0.97,0 -2.02,-1 -2.31,-2.21 z" /><path
         style="fill:#000000;stroke-width:0"
         id="path5600"
         d="m 415.57,700.47 0.01,0 0.01,0 0.02,0 0.02,0 0.01,0 0.02,0 0.02,0 0.02,0 0.02,0.01 0.02,0 0.02,0 0.02,0.01 0.02,0 0.02,0.01 0.02,0 0.02,0.01 0.02,0.01 0.02,0.01 0.02,0.01 0.02,0.01 0.01,0.01 0.02,0.02 0.01,0.01 0,0 0.01,0.01 0.01,0.01 0.01,0.01 0,0.01 0.01,0.01 0,0.01 0.01,0.01 0,0.01 0.01,0.01 0,0.02 0,0.01 0.01,0.01 0,0.01 0,0.02 0,0.01 0.01,0.02 0,0.01 0,0.02 c 0,0.23 -0.21,0.23 -0.39,0.23 l -2.28,0 c -1.5,0 -2.61,-1.63 -2.61,-2.82 0,-0.87 0.59,-1.56 1.5,-1.56 l 0.01,0.21 c -0.49,0 -0.89,0.36 -0.89,1.08 0,0.29 0.12,1.11 0.47,1.7 0.42,0.68 1.02,0.82 1.36,0.82 0.83,0 0.91,-0.66 0.91,-0.96 0,-0.47 -0.2,-1.29 -0.54,-1.79 -0.39,-0.59 -0.92,-0.85 -1.31,-0.85 l 0,0 -0.01,-0.21 c 1.17,0 2.5,1.2 2.5,2.73 0,0.16 0,0.64 -0.31,1.08 z" /><path
         style="fill:#000000;stroke-width:0"
         id="path5602"
         d="m 419.99,701.65 -0.23,0 c -0.03,-0.16 -0.1,-0.57 -0.19,-0.64 -0.05,-0.04 -0.59,-0.04 -0.69,-0.04 l -1.28,0 c 0.73,0.65 0.97,0.84 1.39,1.17 0.52,0.41 1,0.84 1,1.5 0,0.84 -0.74,1.36 -1.63,1.36 -0.87,0 -1.46,-0.61 -1.46,-1.25 0,-0.35 0.3,-0.39 0.37,-0.39 0.17,0 0.37,0.12 0.37,0.37 0,0.13 -0.04,0.37 -0.41,0.37 0.22,0.49 0.69,0.65 1.02,0.65 0.7,0 1.07,-0.55 1.07,-1.11 0,-0.61 -0.44,-1.08 -0.66,-1.34 l -1.69,-1.65 c -0.07,-0.06 -0.07,-0.08 -0.07,-0.27 l 2.88,0 z" /><path
         style="fill:#000000;stroke-width:0"
         id="path5604"
         d="m 419.06,695.43 0,-0.02 0,-0.01 -0.01,-0.01 0,-0.02 -0.01,-0.02 0,-0.01 -0.01,-0.03 -0.01,-0.04 0,-0.03 -0.01,-0.04 -0.01,-0.01 0,-0.02 0,-0.01 -0.01,-0.02 0,-0.01 -0.01,-0.02 0,-0.01 0,-0.01 -0.01,-0.01 0,-0.02 0,-0.01 -0.01,0 0,-0.01 0,-0.01 0,0 0,0 0,-0.01 -0.01,0 0,0 0,0 0,0 0,0 c -0.13,-0.22 -0.41,-0.59 -0.84,-0.59 -0.49,0 -0.49,0.45 -0.49,0.57 0,0.41 0.2,0.91 0.39,1.41 0.06,0.14 0.1,0.25 0.1,0.36 0,0.36 -0.31,0.6 -0.66,0.6 -0.7,0 -1.02,-0.96 -1.02,-1.07 0,-0.09 0.1,-0.09 0.12,-0.09 0.1,0 0.11,0.04 0.13,0.11 0.17,0.58 0.47,0.85 0.75,0.85 0.12,0 0.17,-0.07 0.17,-0.24 0,-0.16 -0.05,-0.31 -0.12,-0.47 -0.38,-0.96 -0.38,-1.16 -0.38,-1.35 0,-0.11 0,-0.43 0.26,-0.66 0.2,-0.16 0.47,-0.22 0.72,-0.22 0.44,0 0.68,0.24 0.91,0.46 0.15,-0.45 0.62,-0.46 0.7,-0.46 0.24,0 0.42,0.14 0.55,0.37 0.16,0.27 0.26,0.67 0.26,0.69 0,0.1 -0.1,0.1 -0.12,0.1 -0.1,0 -0.11,-0.03 -0.16,-0.22 -0.08,-0.33 -0.21,-0.74 -0.51,-0.74 -0.18,0 -0.23,0.16 -0.23,0.34 0,0.12 0.06,0.37 0.11,0.55 0.05,0.18 0.12,0.47 0.15,0.62 l 0.16,0.62 c 0.04,0.17 0.12,0.48 0.12,0.52 0,0.14 -0.11,0.22 -0.23,0.22 -0.26,0 -0.31,-0.2 -0.36,-0.43 z" /><polygon
         style="fill:#000000;stroke-width:0"
         id="polygon5606"
         points="426.43,693.26 429.06,693.26 429.06,717.09 426.43,717.09 426.43,716.54 428.51,716.54 428.51,693.8 426.43,693.8 " /></g>  </g>
</svg>
