<?xml version="1.0" encoding="UTF-8" standalone="no"?>
<!-- Created with Inkscape (http://www.inkscape.org/) -->
<svg
   xmlns:dc="http://purl.org/dc/elements/1.1/"
   xmlns:cc="http://web.resource.org/cc/"
   xmlns:rdf="http://www.w3.org/1999/02/22-rdf-syntax-ns#"
   xmlns:svg="http://www.w3.org/2000/svg"
   xmlns="http://www.w3.org/2000/svg"
   xmlns:sodipodi="http://sodipodi.sourceforge.net/DTD/sodipodi-0.dtd"
   xmlns:inkscape="http://www.inkscape.org/namespaces/inkscape"
   width="120"
   height="120"
   id="svg2"
   sodipodi:version="0.32"
   inkscape:version="0.45.1"
   sodipodi:docbase="/home/mad"
   sodipodi:docname="detector_eye.svg"
   inkscape:output_extension="org.inkscape.output.svg.inkscape">
  <defs
     id="defs4" />
  <sodipodi:namedview
     id="base"
     pagecolor="#ffffff"
     bordercolor="#666666"
     borderopacity="1.0"
     gridtolerance="10000"
     guidetolerance="10"
     objecttolerance="10"
     inkscape:pageopacity="0.0"
     inkscape:pageshadow="2"
     inkscape:zoom="2.4914328"
     inkscape:cx="207.18044"
     inkscape:cy="149.40684"
     inkscape:document-units="px"
     inkscape:current-layer="layer1"
     inkscape:window-width="1353"
     inkscape:window-height="953"
     inkscape:window-x="19"
     inkscape:window-y="25" />
  <metadata
     id="metadata7">
    <rdf:RDF>
      <cc:Work
         rdf:about="">
        <dc:format>image/svg+xml</dc:format>
        <dc:type
           rdf:resource="http://purl.org/dc/dcmitype/StillImage" />
      </cc:Work>
    </rdf:RDF>
  </metadata>
  <g
     inkscape:label="Layer 1"
     inkscape:groupmode="layer"
     id="layer1">
    <path
       style="fill:#a97a21;fill-opacity:1;fill-rule:evenodd;stroke:none;stroke-width:1.02028775px;stroke-linecap:butt;stroke-linejoin:miter;stroke-opacity:1"
       d="M 93.452781,90.95392 C 95.030891,78.494328 90.347021,65.551963 83.726091,54.652538 C 79.702261,48.647494 69.445451,30.43836 62.183199,39.196021 C 57.396046,45.692015 57.506461,55.223192 60.392618,63.24912 C 63.857381,74.530503 70.239541,84.995866 78.477931,93.339839 C 81.914901,95.934285 87.289541,95.705014 89.302371,91.902444"
       id="path3359"
       sodipodi:nodetypes="cccccc" />
    <path
       style="fill:#000000;fill-opacity:1;stroke:none;stroke-width:3;stroke-miterlimit:4;stroke-dasharray:none;stroke-opacity:1"
       id="path3317"
       d="M 38.052694,62.916283 C 39.950891,60.552509 41.55183,58.080025 43.053336,55.577598 C 45.710268,51.945088 52.246041,33.898806 46.355005,49.457388 C 48.58248,42.462802 50.165962,35.51982 51.28536,28.675056 C 51.391822,27.812817 51.498271,26.950576 51.604715,26.088341 L 51.938466,25.396474 C 52.112534,25.688705 52.286604,25.980945 52.460683,26.273179 C 53.747589,30.218425 52.659204,35.036134 51.3846,39.755978 C 48.282982,48.603943 45.721543,57.694434 40.518136,66.441333 C 39.01843,68.773094 37.503293,71.17169 35.370795,73.191225 L 38.052694,62.916283 z " />
    <path
       style="fill:#000000;fill-opacity:1;stroke:none;stroke-width:3;stroke-miterlimit:4;stroke-dasharray:none;stroke-opacity:1"
       id="path3319"
       d="M 53.140525,49.567005 C 54.215525,47.035682 55.256623,44.493238 56.278868,41.944005 C 57.985983,37.326161 59.26752,32.599183 60.589033,27.888592 C 62.276608,21.691309 64.013454,15.502373 66.13526,9.406257 C 66.363818,8.692684 66.592377,7.979119 66.820924,7.265539 C 66.91372,7.020365 67.006513,6.775191 67.099288,6.530011 L 67.540139,5.361104 C 66.371111,12.408495 66.958579,9.046837 65.792943,15.447642 C 64.139475,23.689136 62.101341,31.866963 59.869324,40.013149 C 58.586826,44.70843 57.356118,49.446488 55.403926,53.967474 C 54.423812,56.031994 53.430292,58.089438 52.355018,60.114246 L 53.140525,49.567005 z " />
    <path
       style="fill:#000000;fill-opacity:1;stroke:none;stroke-width:3;stroke-miterlimit:4;stroke-dasharray:none;stroke-opacity:1"
       id="path3321"
       d="M 62.923121,38.283695 C 64.31925,35.826718 65.734048,33.379843 67.122204,30.918408 C 69.21411,27.472321 70.64207,23.76575 71.92631,20.019609 C 73.30959,15.471513 74.67156,10.956101 76.69111,6.59718 C 76.97351,6.007372 77.25593,5.417559 77.53833,4.827742 L 77.43022,6.490242 C 77.09615,7.883684 76.76207,9.277112 76.42803,10.67055 C 74.87307,17.21815 73.42356,23.797435 71.21651,30.217724 C 70.00862,33.421314 68.61678,36.54386 66.327406,39.22119 C 64.996485,40.768067 63.642352,42.294402 62.394109,43.906193 L 62.923121,38.283695 z " />
    <path
       style="fill:#000000;fill-opacity:1;stroke:none;stroke-width:3;stroke-miterlimit:4;stroke-dasharray:none;stroke-opacity:1"
       id="path3323"
       d="M 16.783282,97.477751 C 17.734791,95.083008 18.857865,92.745387 20.009153,90.414894 C 21.440114,87.714085 23.13409,85.1283 24.787299,82.530343 C 26.542666,79.821631 28.270637,77.099012 30.025338,74.390007 C 31.512072,71.992622 33.163764,69.688976 34.853166,67.406211 C 36.605179,65.150869 38.514999,63.012392 40.404883,60.85755 C 42.23136,58.872015 44.03399,56.867404 45.848509,54.872521 C 47.490163,53.07575 49.147615,51.294013 50.814422,49.517148 C 52.597359,47.71289 54.417678,45.94311 56.234463,44.169128 C 58.427391,42.038052 60.467772,39.795868 62.431148,37.477764 C 64.000536,34.856192 65.303639,34.134104 67.399191,33.681364 C 67.9146,33.965136 68.302447,34.391658 68.754077,34.746801 L 68.225514,38.746678 C 66.798684,42.263965 67.506823,40.488574 66.102104,44.07316 C 64.637381,47.898013 62.997799,51.589581 60.144619,54.811433 C 58.09594,57.099506 56.025514,59.379857 53.754045,61.480352 C 51.964551,63.184606 50.171463,64.886984 48.405997,66.613585 C 46.756711,68.211763 45.105729,69.807275 43.55555,71.494146 C 41.757491,73.34728 39.937641,75.182321 38.191099,77.079616 C 36.331296,79.067808 34.490936,81.079328 32.847547,83.230139 C 31.254958,85.287546 29.683158,87.358168 28.229765,89.5009 C 26.501734,92.046348 24.755501,94.581919 23.065585,97.148245 C 21.482486,99.54017 19.892118,101.93009 18.50211,104.41706 C 17.46525,106.32288 16.434316,108.23242 15.51054,110.18149 L 16.783282,97.477751 z " />
    <path
       style="fill:#000000;fill-opacity:1;stroke:none;stroke-width:3;stroke-miterlimit:4;stroke-dasharray:none;stroke-opacity:1"
       id="path3349"
       d="M 15.178062,109.48072 C 18.084771,108.03127 15.200999,106.98961 18.266606,105.86831 C 23.134404,104.0878 28.073354,102.47588 33.014795,100.87061 C 38.505042,99.1096 44.232608,98.04283 49.946009,96.96464 C 55.490699,96.03247 61.024144,95.06153 66.549643,94.05907 C 72.29733,92.996697 77.96504,91.671161 83.65026,90.40412 C 89.51766,89.136495 97.35186,87.809013 103.11883,86.238735 L 110.29193,86.256338 C 109.64885,88.111315 107.54069,87.823775 105.69683,88.784584 C 101.37677,90.664893 92.8677,94.0243 88.08958,94.76704 C 82.43086,95.81037 76.75852,96.80372 71.05533,97.68261 C 65.140097,98.70898 59.205434,99.69729 53.47898,101.33892 C 48.143533,102.82172 42.913751,104.56634 37.658031,106.25401 C 34.034312,107.40769 30.415317,108.57363 26.780841,109.70075 L 15.178062,109.48072 z "
       sodipodi:nodetypes="csccccccccccccc" />
    <path
       style="fill:#000000;fill-opacity:1;stroke:none;stroke-width:3;stroke-miterlimit:4;stroke-dasharray:none;stroke-opacity:1"
       id="path3357"
       d="M 63.614836,41.813978 C 65.219844,40.487591 66.890579,39.245414 68.561021,38.003647 C 69.932392,36.878547 71.31934,35.772975 72.6976,34.657779 C 74.09107,33.478663 75.55871,32.390435 77.0031,31.276119 C 78.32578,30.197003 79.57229,29.030486 80.8227,27.870291 C 82.36077,26.51638 83.82224,25.08322 85.29516,23.661108 C 86.58503,22.414731 87.76482,21.065336 88.96574,19.735707 C 90.23667,18.243894 91.52692,16.768504 92.81397,15.291298 C 93.27399,16.003125 97.1661,8.185043 92.76041,17.030835 L 95.00422,14.255384 C 92.85878,18.285414 90.86932,22.415534 88.43017,26.279565 C 87.04823,28.190084 85.66318,30.096301 84.03211,31.809281 C 82.81879,33.114644 81.61969,34.434286 80.30185,35.637998 C 78.85755,36.953981 77.42886,38.28858 75.91527,39.525732 C 74.72006,40.515495 73.55721,41.54644 72.22021,42.351968 C 70.89273,43.24349 69.579186,44.158268 68.223638,45.006913 C 66.960555,45.852716 65.697571,46.699572 64.429101,47.538032 C 62.842117,48.633415 61.237464,49.704647 59.720991,50.899343 L 63.614836,41.813978 z " />
    <path
       style="fill:#000000;fill-opacity:1;fill-rule:evenodd;stroke:#000000;stroke-width:1.27730322px;stroke-linecap:butt;stroke-linejoin:miter;stroke-opacity:1"
       d="M 71.370462,56.47894 C 73.314987,63.818407 75.007284,71.21782 80.919448,76.012825 C 82.412405,77.515909 95.875482,88.707454 92.97079,74.01323 C 92.966222,70.758246 89.140419,65.315185 87.737864,62.520719 C 85.382041,57.567896 81.677172,49.895065 78.678629,45.173863 C 72.077226,37.56271 66.552362,44.387943 71.370462,56.47894 z "
       id="path3468"
       sodipodi:nodetypes="cccccc" />
    <path
       style="fill:none;fill-rule:evenodd;stroke:#000000;stroke-width:3.24899769;stroke-linecap:butt;stroke-linejoin:miter;stroke-miterlimit:4;stroke-dasharray:none;stroke-opacity:1"
       d="M 72.364092,39.669757 C 72.581164,43.458299 78.874521,46.631607 81.289949,49.497495 C 85.562623,54.876461 86.052664,58.5877 88.541653,63.930501 C 89.732521,66.323409 90.516963,68.849589 91.487727,71.194481 C 92.453408,73.527094 92.940486,76.284937 93.451776,78.695846 C 94.01059,81.330853 93.874865,84.028514 94.382114,86.624504 C 94.720713,88.357375 93.841678,90.077481 93.451776,91.609588"
       id="path3742"
       sodipodi:nodetypes="cccsssc" />
    <path
       style="fill:none;fill-rule:evenodd;stroke:#000000;stroke-width:3.08373404;stroke-linecap:butt;stroke-linejoin:miter;stroke-miterlimit:4;stroke-dasharray:none;stroke-opacity:1"
       d="M 57.428299,54.086563 C 59.087296,64.696069 61.156055,73.199887 68.403108,81.842351 C 71.790423,85.330251 75.669645,88.309655 78.934219,91.920918"
       id="path3744"
       sodipodi:nodetypes="ccc" />
    <path
       style="fill:#000000;fill-opacity:1;stroke:none;stroke-width:3;stroke-miterlimit:4;stroke-dasharray:none;stroke-opacity:1"
       id="path3785"
       d="M 82.53568,90.731002 C 84.354968,90.779344 86.175062,90.77318 87.994815,90.777091 C 94.29791,89.275997 101.10566,91.507853 106.74564,91.844706 C 106.07016,92.533526 104.94247,93.018159 104.04413,93.498021 L 101.03733,93.732737 C 98.33735,93.539012 95.644099,93.291335 92.931036,93.361139 C 91.713062,93.345937 88.060026,93.257582 89.277323,93.300943 C 94.344654,93.481443 99.41203,93.660727 104.47938,93.84062 C 104.21766,93.819927 103.95594,93.799235 103.69422,93.778542 C 101.8992,93.764162 100.10403,93.740176 98.30897,93.754387 L 82.53568,90.731002 z " />
    <path
       style="fill:#000000;fill-rule:evenodd;stroke:#000000;stroke-width:1.11350298px;stroke-linecap:butt;stroke-linejoin:miter;stroke-opacity:1"
       d="M 27.920516,87.676714 C 27.373155,88.785687 26.825795,89.894658 26.278434,91.003629 C 25.071118,93.449692 24.863263,95.869912 25.981334,98.04133 C 27.539129,101.06675 31.966294,102.04604 35.644386,103.24497 C 35.908188,103.33096 31.800025,103.22588 28.893602,103.54354 C 25.705958,103.89194 22.330565,105.3703 19.892556,105.93209 C 14.538964,107.16574 15.915127,105.21709 17.034117,102.39192 C 18.041264,99.84912 20.061601,97.182771 21.352185,94.757072 C 23.30263,91.09114 24.552868,91.648828 27.920516,87.676714 z "
       id="path3936"
       sodipodi:nodetypes="csssssssc" />
  </g>
</svg>
