<?xml version="1.0" encoding="UTF-8" standalone="no"?><svg xmlns="http://www.w3.org/2000/svg" xmlns:xlink="http://www.w3.org/1999/xlink" clip-rule="evenodd" stroke-miterlimit="10" viewBox="0 0 67 16"><desc>SVG generated by Keynote</desc><defs></defs><g transform="matrix(1.00, 0.00, -0.00, -1.00, 0.0, 16.0)"><text xml:space="preserve" font-family="MyriadPro-BoldCond,Myriad Pro" font-weight="bold" font-size="18.0" fill="#000000" transform="matrix(1.00, 0.00, -0.00, -1.00, 2.6, 2.1)">/</text><text xml:space="preserve" font-family="MyriadPro-BoldCond,Myriad Pro" font-weight="bold" font-size="16.0" fill="#993300" transform="matrix(1.00, 0.00, -0.00, -1.00, 7.7, 2.1)">h</text><text xml:space="preserve" font-family="MyriadPro-BoldCond,Myriad Pro" font-weight="bold" font-size="16.0" fill="#993300" transform="matrix(1.00, 0.00, -0.00, -1.00, 15.0, 2.1)">i</text><text xml:space="preserve" font-family="MyriadPro-BoldCond,Myriad Pro" font-weight="bold" font-size="16.0" fill="#993300" transform="matrix(1.00, 0.00, -0.00, -1.00, 18.6, 2.1)">v</text><text xml:space="preserve" font-family="MyriadPro-BoldCond,Myriad Pro" font-weight="bold" font-size="16.0" fill="#993300" transform="matrix(1.00, 0.00, -0.00, -1.00, 24.7, 2.1)">e</text><text xml:space="preserve" font-family="MyriadPro-BoldCond,Myriad Pro" font-weight="bold" font-size="16.0" fill="#993300" transform="matrix(1.00, 0.00, -0.00, -1.00, 31.4, 2.1)">/</text><text xml:space="preserve" font-family="MyriadPro-BoldCond,Myriad Pro" font-weight="bold" font-size="16.0" fill="#993300" transform="matrix(1.00, 0.00, -0.00, -1.00, 35.8, 2.1)">c</text><text xml:space="preserve" font-family="MyriadPro-BoldCond,Myriad Pro" font-weight="bold" font-size="16.0" fill="#993300" transform="matrix(1.00, 0.00, -0.00, -1.00, 41.0, 2.1)">l</text><text xml:space="preserve" font-family="MyriadPro-BoldCond,Myriad Pro" font-weight="bold" font-size="16.0" fill="#993300" transform="matrix(1.00, 0.00, -0.00, -1.00, 44.6, 2.1)">i</text><text xml:space="preserve" font-family="MyriadPro-BoldCond,Myriad Pro" font-weight="bold" font-size="16.0" fill="#993300" transform="matrix(1.00, 0.00, -0.00, -1.00, 48.2, 2.1)">c</text><text xml:space="preserve" font-family="MyriadPro-BoldCond,Myriad Pro" font-weight="bold" font-size="16.0" fill="#993300" transform="matrix(1.00, 0.00, -0.00, -1.00, 53.3, 2.1)">k</text><text xml:space="preserve" font-family="MyriadPro-BoldCond,Myriad Pro" font-weight="bold" font-size="16.0" fill="#993300" transform="matrix(1.00, 0.00, -0.00, -1.00, 60.0, 2.1)">s</text></g></svg>