<?xml version="1.0" encoding="UTF-8" standalone="no"?><svg xmlns="http://www.w3.org/2000/svg" xmlns:xlink="http://www.w3.org/1999/xlink" clip-rule="evenodd" stroke-miterlimit="10" viewBox="0 0 118 24"><desc>SVG generated by Keynote</desc><defs></defs><g transform="matrix(1.00, 0.00, -0.00, -1.00, 0.0, 24.0)"><path d="M 0.5 0.5 L 114.5 0.5 L 114.5 20.5 L 0.5 20.5 Z M 0.0 0.0 " fill="none" stroke="#000000" stroke-width="0.50" stroke-linejoin="round" transform="matrix(1.00, 0.00, 0.00, -1.00, 2.0, 22.0)"></path><g><clipPath id="clip0x6180002b9920"><path d="M -2.8 -7.3 L 120.7 -7.3 L 120.7 26.8 L -2.8 26.8 Z M -2.8 -7.3 "></path></clipPath><g clip-path="url(#clip0x6180002b9920)"><text xml:space="preserve" font-family="MyriadPro-BoldCond,Myriad Pro" font-weight="bold" font-size="20.0" fill="#808086" transform="matrix(1.00, 0.00, -0.00, -1.00, 37.1, 6.8)">P</text><text xml:space="preserve" font-family="MyriadPro-BoldCond,Myriad Pro" font-weight="bold" font-size="20.0" fill="#808086" transform="matrix(1.00, 0.00, -0.00, -1.00, 45.9, 6.8)">a</text><text xml:space="preserve" font-family="MyriadPro-BoldCond,Myriad Pro" font-weight="bold" font-size="20.0" fill="#808086" transform="matrix(1.00, 0.00, -0.00, -1.00, 54.3, 6.8)">r</text><text xml:space="preserve" font-family="MyriadPro-BoldCond,Myriad Pro" font-weight="bold" font-size="20.0" fill="#808086" transform="matrix(1.00, 0.00, -0.00, -1.00, 60.2, 6.8)">s</text><text xml:space="preserve" font-family="MyriadPro-BoldCond,Myriad Pro" font-weight="bold" font-size="20.0" fill="#808086" transform="matrix(1.00, 0.00, -0.00, -1.00, 66.7, 6.8)">e</text><text xml:space="preserve" font-family="MyriadPro-BoldCond,Myriad Pro" font-weight="bold" font-size="20.0" fill="#808086" transform="matrix(1.00, 0.00, -0.00, -1.00, 75.1, 6.8)">r</text></g></g></g></svg>