<?xml version="1.0" encoding="UTF-8" standalone="no"?><svg xmlns="http://www.w3.org/2000/svg" xmlns:xlink="http://www.w3.org/1999/xlink" clip-rule="evenodd" stroke-miterlimit="10" viewBox="0 0 20 90"><desc>SVG generated by Keynote</desc><defs></defs><g transform="matrix(1.00, 0.00, -0.00, -1.00, 0.0, 90.0)"><text xml:space="preserve" font-family="MyriadPro-BoldCond,Myriad Pro" font-weight="bold" font-size="18.0" fill="#0000FF" transform="matrix(0.00, 1.00, 1.00, -0.00, 14.2, 2.0)">M</text><text xml:space="preserve" font-family="MyriadPro-BoldCond,Myriad Pro" font-weight="bold" font-size="18.0" fill="#0000FF" transform="matrix(0.00, 1.00, 1.00, -0.00, 14.2, 13.4)">g</text><text xml:space="preserve" font-family="MyriadPro-BoldCond,Myriad Pro" font-weight="bold" font-size="18.0" fill="#0000FF" transform="matrix(0.00, 1.00, 1.00, -0.00, 14.2, 21.4)">m</text><text xml:space="preserve" font-family="MyriadPro-BoldCond,Myriad Pro" font-weight="bold" font-size="18.0" fill="#0000FF" transform="matrix(0.00, 1.00, 1.00, -0.00, 14.2, 33.7)">t</text><text xml:space="preserve" font-family="MyriadPro-BoldCond,Myriad Pro" font-weight="bold" font-size="18.0" fill="#0000FF" transform="matrix(0.00, 1.00, 1.00, -0.00, 14.2, 39.1)">.</text><text xml:space="preserve" font-family="MyriadPro-BoldCond,Myriad Pro" font-weight="bold" font-size="18.0" fill="#0000FF" transform="matrix(0.00, 1.00, 1.00, -0.00, 14.2, 43.3)"> </text><text xml:space="preserve" font-family="MyriadPro-BoldCond,Myriad Pro" font-weight="bold" font-size="18.0" fill="#0000FF" transform="matrix(0.00, 1.00, 1.00, -0.00, 14.2, 45.9)">W</text><text xml:space="preserve" font-family="MyriadPro-BoldCond,Myriad Pro" font-weight="bold" font-size="18.0" fill="#0000FF" transform="matrix(0.00, 1.00, 1.00, -0.00, 14.2, 57.7)">e</text><text xml:space="preserve" font-family="MyriadPro-BoldCond,Myriad Pro" font-weight="bold" font-size="18.0" fill="#0000FF" transform="matrix(0.00, 1.00, 1.00, -0.00, 14.2, 65.3)">b</text><text xml:space="preserve" font-family="MyriadPro-BoldCond,Myriad Pro" font-weight="bold" font-size="18.0" fill="#0000FF" transform="matrix(0.00, 1.00, 1.00, -0.00, 14.2, 73.3)"> </text><text xml:space="preserve" font-family="MyriadPro-BoldCond,Myriad Pro" font-weight="bold" font-size="18.0" fill="#0000FF" transform="matrix(0.00, 1.00, 1.00, -0.00, 14.2, 76.2)">U</text><text xml:space="preserve" font-family="MyriadPro-BoldCond,Myriad Pro" font-weight="bold" font-size="18.0" fill="#0000FF" transform="matrix(0.00, 1.00, 1.00, -0.00, 14.2, 85.2)">I</text></g></svg>