<?xml version="1.0" encoding="UTF-8" standalone="no"?><svg xmlns="http://www.w3.org/2000/svg" xmlns:xlink="http://www.w3.org/1999/xlink" clip-rule="evenodd" stroke-miterlimit="10" viewBox="0 0 80 56"><desc>SVG generated by Keynote</desc><defs></defs><g transform="matrix(1.00, 0.00, -0.00, -1.00, 0.0, 56.0)"><g><clipPath id="clip0x600000ca1020"><path d="M 1.0 1.9 L 79.0 1.9 L 79.0 55.0 L 1.0 55.0 Z M 1.0 1.9 "></path></clipPath><g clip-path="url(#clip0x600000ca1020)"><path d="M 25.0 23.1 L 25.0 26.7 L 25.6 26.7 L 26.3 26.6 L 26.8 26.6 L 27.4 26.6 L 28.1 26.5 L 28.7 26.4 L 29.3 26.4 L 29.9 26.4 L 30.5 26.3 L 31.1 26.3 L 31.7 26.2 L 32.3 26.2 L 32.9 26.1 L 33.5 26.1 L 34.2 26.0 L 34.8 26.0 L 34.9 26.1 L 35.2 27.6 L 35.6 29.1 L 36.0 30.6 L 36.4 32.1 L 36.8 33.5 L 37.2 35.0 L 37.8 36.5 L 38.3 37.9 L 38.8 39.4 L 39.3 40.8 L 39.9 42.2 L 40.5 43.5 L 41.1 44.9 L 41.8 46.2 L 42.4 47.4 L 43.1 48.7 L 43.2 48.8 L 43.4 48.8 L 43.6 48.9 L 43.7 49.1 L 44.3 49.0 L 44.8 49.0 L 45.3 49.0 L 45.8 48.9 L 46.4 48.9 L 46.9 48.8 L 47.4 48.8 L 48.0 48.7 L 48.5 48.7 L 49.0 48.6 L 49.5 48.5 L 50.1 48.4 L 50.6 48.4 L 51.1 48.3 L 51.7 48.2 L 52.3 48.2 L 53.3 48.0 L 54.3 47.7 L 55.3 47.5 L 56.3 47.3 L 57.4 47.1 L 58.4 46.9 L 59.4 46.6 L 60.4 46.4 L 61.4 46.1 L 62.5 45.8 L 63.5 45.6 L 64.5 45.3 L 65.4 45.0 L 66.4 44.6 L 67.4 44.3 L 68.4 43.9 L 69.2 43.7 L 69.9 43.5 L 70.7 43.2 L 71.4 42.9 L 72.2 42.6 L 72.9 42.3 L 73.7 42.0 L 74.4 41.7 L 74.7 41.2 L 74.9 40.6 L 75.2 40.1 L 75.5 39.6 L 75.8 39.0 L 76.0 38.5 L 76.4 37.9 L 76.6 37.4 L 77.0 36.7 L 77.3 35.9 L 77.5 35.2 L 77.5 34.5 L 77.5 33.7 L 77.5 33.0 L 77.3 32.2 L 77.2 31.4 L 77.7 30.5 L 77.9 29.6 L 77.9 28.6 L 77.7 27.6 L 77.3 26.6 L 77.0 25.5 L 76.7 24.5 L 76.4 23.6 L 76.3 23.1 L 76.1 22.7 L 76.0 22.3 L 75.9 21.8 L 75.7 21.4 L 75.6 20.9 L 75.4 20.5 L 75.2 20.1 L 74.9 20.0 L 74.7 19.8 L 74.4 19.7 L 74.1 19.6 L 73.8 19.4 L 73.6 19.3 L 73.3 19.2 L 73.1 19.0 L 72.8 18.4 L 72.6 17.7 L 72.4 17.0 L 72.1 16.4 L 71.6 16.1 L 71.1 15.9 L 70.6 15.7 L 70.0 15.6 L 69.4 15.5 L 68.8 15.4 L 68.2 15.2 L 67.6 15.0 L 67.4 14.6 L 67.3 13.8 L 67.2 13.0 L 67.0 12.1 L 66.9 11.3 L 66.3 11.0 L 65.7 10.7 L 65.1 10.4 L 64.5 10.1 L 63.8 9.9 L 63.2 9.6 L 62.6 9.3 L 62.0 9.0 L 61.7 9.0 L 61.4 9.1 L 61.1 9.1 L 60.7 9.1 L 60.4 9.2 L 60.1 9.3 L 59.7 9.3 L 59.4 9.3 L 59.3 9.2 L 59.2 9.0 L 59.2 8.8 L 59.2 8.5 L 59.2 8.3 L 58.6 7.8 L 58.1 7.4 L 57.6 7.0 L 57.0 6.6 L 56.5 6.1 L 55.9 5.7 L 55.3 5.3 L 54.8 4.9 L 54.2 4.4 L 53.6 4.0 L 53.0 3.6 L 52.4 3.3 L 51.7 2.9 L 51.1 2.5 L 50.5 2.2 L 49.8 1.9 L 49.5 1.9 L 49.1 2.2 L 48.4 2.3 L 47.6 2.4 L 46.9 2.5 L 46.2 2.7 L 45.5 2.8 L 44.8 3.0 L 44.1 3.1 L 43.3 3.3 L 42.6 3.4 L 41.9 3.6 L 41.2 3.8 L 40.5 3.9 L 39.8 4.1 L 39.0 4.2 L 38.3 4.4 L 37.6 4.5 L 36.9 4.6 L 36.3 4.8 L 35.7 4.9 L 35.2 5.0 L 34.5 5.1 L 33.9 5.3 L 33.3 5.3 L 32.7 5.4 L 32.2 5.6 L 31.6 5.7 L 31.1 5.8 L 30.6 6.0 L 30.0 6.1 L 29.5 6.2 L 29.0 6.3 L 28.4 6.4 L 27.9 6.6 L 27.4 6.7 L 26.8 6.8 L 26.3 7.0 L 25.7 7.1 L 25.2 7.3 L 24.7 7.4 L 24.1 7.6 L 24.0 8.1 L 24.0 8.7 L 24.0 9.3 L 24.2 9.9 L 24.3 10.6 L 24.5 11.2 L 24.7 11.8 L 24.8 12.4 L 25.1 12.6 L 25.5 12.8 L 26.0 13.1 L 26.4 13.3 L 26.9 13.5 L 27.3 13.8 L 27.8 14.0 L 28.3 14.3 L 28.8 14.5 L 28.6 14.7 L 28.1 14.7 L 27.6 14.8 L 27.0 14.8 L 26.5 14.8 L 26.0 14.8 L 25.4 14.8 L 24.9 14.9 L 24.4 14.9 L 23.8 15.0 L 23.3 15.0 L 22.7 15.1 L 22.2 15.2 L 21.7 15.3 L 21.1 15.4 L 20.6 15.5 L 20.0 15.7 L 20.0 13.1 L 20.1 10.3 L 20.0 7.5 L 19.8 4.8 L 19.4 4.5 L 18.5 4.4 L 17.5 4.2 L 16.5 4.1 L 15.5 4.0 L 14.5 3.9 L 13.5 3.8 L 12.5 3.8 L 11.5 3.8 L 10.5 3.8 L 9.5 3.9 L 8.5 4.0 L 7.5 4.1 L 6.6 4.3 L 5.6 4.5 L 4.6 4.9 L 3.7 5.2 L 3.4 5.5 L 3.1 5.7 L 2.8 5.9 L 2.5 6.3 L 2.7 7.4 L 2.9 8.5 L 3.0 9.6 L 3.2 10.6 L 3.5 12.0 L 3.8 13.4 L 4.1 14.7 L 4.3 16.0 L 4.6 17.2 L 5.0 18.5 L 5.4 19.6 L 5.9 20.7 L 6.0 21.2 L 6.6 22.5 L 7.2 23.7 L 7.9 24.9 L 8.5 26.2 L 9.2 27.4 L 9.9 28.6 L 10.7 29.7 L 11.4 30.8 L 11.4 32.8 L 11.4 34.8 L 11.3 36.7 L 11.2 38.7 L 11.0 38.7 L 10.9 38.6 L 10.8 38.5 L 10.6 38.5 L 10.5 38.4 L 10.3 38.3 L 10.1 38.2 L 9.9 38.2 L 9.3 38.2 L 9.0 37.7 L 8.7 37.1 L 8.4 36.6 L 8.1 36.1 L 7.7 35.6 L 7.3 35.2 L 6.8 34.9 L 6.2 34.6 L 6.1 34.6 L 6.0 34.6 L 5.8 34.6 L 5.7 34.7 L 5.6 34.8 L 5.4 34.8 L 5.3 34.9 L 5.1 34.9 L 4.6 35.5 L 4.3 36.1 L 4.2 36.8 L 4.2 37.5 L 4.2 38.3 L 4.2 39.0 L 4.3 39.7 L 4.3 40.4 L 4.1 40.3 L 3.8 40.3 L 3.6 40.2 L 3.4 40.2 L 3.2 40.2 L 3.0 40.2 L 2.9 40.2 L 2.6 40.3 L 2.3 40.8 L 1.9 42.0 L 1.7 43.3 L 1.6 44.6 L 1.6 45.9 L 1.8 47.2 L 2.1 48.5 L 2.5 49.8 L 3.0 51.0 L 3.1 51.1 L 3.3 51.3 L 3.4 51.5 L 3.5 51.9 L 3.8 52.1 L 4.1 52.3 L 4.3 52.6 L 4.6 52.8 L 4.9 53.0 L 5.2 53.2 L 5.5 53.3 L 5.8 53.5 L 6.3 53.5 L 6.8 53.5 L 7.2 53.5 L 7.7 53.5 L 8.2 53.4 L 8.6 53.3 L 9.1 53.1 L 9.5 52.9 L 9.8 52.7 L 9.9 52.5 L 10.1 52.2 L 10.3 52.1 L 10.5 52.2 L 10.8 52.5 L 11.0 52.9 L 11.3 53.3 L 11.6 53.7 L 11.9 54.1 L 12.3 54.4 L 12.7 54.7 L 13.1 54.9 L 13.3 54.9 L 13.4 54.9 L 13.6 55.0 L 13.8 55.0 L 14.0 55.0 L 14.1 55.0 L 14.3 55.0 L 14.5 55.0 L 14.8 54.8 L 15.1 54.6 L 15.4 54.4 L 15.6 54.1 L 15.8 53.9 L 16.0 53.6 L 16.2 53.3 L 16.4 53.0 L 16.4 52.8 L 16.5 52.4 L 16.6 52.2 L 16.6 51.9 L 16.9 51.9 L 17.2 51.9 L 17.5 51.9 L 17.8 51.9 L 18.1 51.8 L 18.5 51.8 L 18.8 51.8 L 19.1 51.7 L 19.4 51.9 L 19.6 52.1 L 19.8 52.3 L 20.0 52.6 L 20.3 52.9 L 20.5 53.0 L 20.6 53.0 L 20.8 53.1 L 21.0 53.2 L 21.8 53.2 L 22.1 53.1 L 22.4 52.9 L 22.6 52.7 L 22.9 52.5 L 23.1 52.2 L 23.2 52.1 L 23.3 51.9 L 23.4 51.6 L 23.5 51.3 L 23.5 50.6 L 23.5 49.9 L 23.5 49.3 L 23.4 48.6 L 23.2 48.1 L 23.0 47.6 L 22.7 47.1 L 22.3 46.7 L 22.1 46.7 L 22.0 46.7 L 21.8 46.7 L 21.6 46.7 L 21.4 46.7 L 21.2 46.7 L 21.1 46.8 L 20.9 46.9 L 20.5 46.7 L 20.3 45.5 L 20.3 44.2 L 20.6 43.0 L 21.0 41.9 L 21.5 40.8 L 22.1 39.8 L 22.7 38.8 L 23.5 37.9 L 23.5 37.4 L 23.3 37.4 L 23.2 37.3 L 23.0 37.2 L 22.8 37.0 L 22.5 36.9 L 22.3 36.9 L 22.0 36.9 L 21.7 36.9 L 21.4 36.9 L 21.2 36.9 L 20.9 36.8 L 20.6 36.8 L 20.2 35.9 L 19.9 35.2 L 19.5 34.3 L 19.1 33.5 L 18.7 32.8 L 18.3 32.0 L 17.8 31.3 L 17.3 30.5 L 17.3 29.7 L 17.5 28.8 L 17.7 28.0 L 17.9 27.1 L 18.4 27.1 L 18.8 27.1 L 19.2 27.1 L 19.7 27.1 L 20.1 27.0 L 20.6 27.0 L 21.0 27.0 L 21.5 27.0 L 22.0 26.9 L 22.4 26.9 L 22.8 26.9 L 23.3 26.9 L 23.7 26.8 L 24.2 26.8 L 24.6 26.7 L 25.0 26.7 L 25.0 23.1 L 24.4 23.1 L 23.7 23.0 L 23.0 23.0 L 22.3 22.9 L 21.6 22.8 L 20.9 22.7 L 20.3 22.7 L 19.6 22.5 L 19.4 22.3 L 19.5 22.0 L 19.6 21.7 L 19.6 21.4 L 19.8 21.2 L 20.3 20.9 L 20.9 20.6 L 21.5 20.3 L 22.1 20.1 L 22.7 19.9 L 23.3 19.7 L 24.0 19.5 L 24.6 19.3 L 25.3 19.1 L 26.0 19.0 L 26.6 18.8 L 27.3 18.7 L 27.9 18.6 L 28.6 18.5 L 29.3 18.5 L 29.9 18.4 L 30.2 18.4 L 30.6 18.4 L 30.9 18.4 L 31.2 18.4 L 31.5 18.4 L 31.8 18.4 L 32.0 18.4 L 32.3 18.4 L 32.8 18.7 L 33.3 19.0 L 33.9 19.3 L 34.4 19.6 L 35.0 19.9 L 35.7 20.1 L 36.3 20.1 L 37.0 20.2 L 37.1 20.4 L 36.8 20.5 L 36.5 20.5 L 36.1 20.6 L 35.9 20.6 L 35.5 20.6 L 35.3 20.6 L 35.0 20.6 L 34.7 20.7 L 34.4 20.8 L 34.3 21.3 L 34.4 21.9 L 34.6 22.4 L 34.7 22.9 L 34.3 23.1 L 34.1 22.8 L 33.9 22.6 L 33.7 22.3 L 33.4 22.2 L 33.1 22.0 L 32.9 21.8 L 32.6 21.6 L 32.3 21.6 L 32.1 21.6 L 31.9 21.6 L 31.7 21.6 L 31.5 21.6 L 31.3 21.6 L 31.1 21.7 L 30.9 21.7 L 30.7 21.8 L 30.5 21.9 L 30.4 22.0 L 30.2 22.1 L 30.1 22.2 L 29.9 22.3 L 29.8 22.4 L 29.6 22.5 L 29.5 22.6 L 29.0 22.7 L 28.4 22.9 L 27.8 22.9 L 27.3 23.0 L 26.7 23.1 L 26.1 23.1 L 25.6 23.1 L 25.0 23.1 Z M 25.0 23.1 " fill="#000000"></path><path d="M 49.7 2.4 L 49.8 3.0 L 49.8 3.5 L 50.0 4.1 L 50.1 4.6 L 50.3 5.2 L 50.4 5.7 L 50.6 6.2 L 50.9 6.7 L 51.3 7.1 L 51.9 7.4 L 52.4 7.7 L 52.9 8.0 L 53.5 8.3 L 54.0 8.7 L 54.5 9.0 L 55.0 9.5 L 55.2 9.5 L 55.3 9.7 L 55.5 9.8 L 55.7 9.8 L 56.1 10.0 L 56.5 10.3 L 56.8 10.6 L 57.2 10.8 L 57.6 11.1 L 58.0 11.3 L 58.4 11.6 L 58.8 11.8 L 58.8 11.0 L 58.8 10.2 L 58.7 9.4 L 58.5 8.5 L 58.0 8.1 L 57.5 7.7 L 57.0 7.2 L 56.4 6.8 L 55.9 6.4 L 55.4 6.0 L 54.9 5.6 L 54.4 5.2 L 53.8 4.8 L 53.3 4.5 L 52.8 4.1 L 52.2 3.8 L 51.6 3.4 L 51.1 3.1 L 50.5 2.8 L 49.8 2.5 L 49.7 2.4 Z M 49.7 2.4 " fill="#C9B181"></path><path d="M 48.1 2.9 L 47.6 2.9 L 47.2 3.0 L 46.7 3.1 L 46.3 3.2 L 45.8 3.3 L 45.4 3.4 L 44.9 3.5 L 44.5 3.6 L 44.0 3.6 L 43.5 3.8 L 43.1 3.8 L 42.6 3.9 L 42.1 4.0 L 41.7 4.1 L 41.2 4.2 L 40.7 4.3 L 40.2 4.4 L 39.6 4.6 L 39.1 4.7 L 38.5 4.8 L 38.0 4.9 L 37.4 5.0 L 36.8 5.1 L 36.3 5.2 L 35.6 5.4 L 34.8 5.5 L 34.1 5.7 L 33.4 5.8 L 32.6 6.0 L 31.9 6.1 L 31.1 6.3 L 30.4 6.4 L 29.7 6.6 L 28.9 6.7 L 28.2 6.9 L 27.4 7.1 L 26.7 7.3 L 26.0 7.5 L 25.2 7.7 L 24.5 8.0 L 24.6 8.9 L 24.8 9.9 L 25.1 11.0 L 25.5 11.9 L 25.7 11.9 L 25.9 11.9 L 26.1 11.9 L 26.3 11.8 L 26.6 11.8 L 26.8 11.7 L 27.1 11.6 L 27.3 11.5 L 27.7 11.4 L 28.1 11.3 L 28.5 11.2 L 29.0 11.1 L 29.4 11.0 L 29.8 11.0 L 30.3 10.9 L 30.7 10.8 L 31.1 10.6 L 31.6 10.6 L 32.0 10.4 L 32.5 10.3 L 32.9 10.2 L 33.3 10.1 L 33.8 10.0 L 34.2 9.9 L 34.7 9.9 L 35.6 9.6 L 36.6 9.3 L 37.5 9.1 L 38.4 8.9 L 39.4 8.7 L 40.3 8.5 L 41.3 8.3 L 42.2 8.1 L 43.1 7.9 L 44.1 7.7 L 45.0 7.5 L 45.9 7.3 L 46.9 7.1 L 47.8 6.8 L 48.7 6.6 L 49.7 6.3 L 49.7 5.5 L 49.5 4.6 L 49.2 3.7 L 48.9 2.9 L 48.1 2.9 Z M 48.1 2.9 " fill="#DDC696"></path><path d="M 9.4 4.4 L 8.6 4.5 L 7.8 4.6 L 7.0 4.7 L 6.2 4.9 L 5.5 5.1 L 4.7 5.4 L 4.0 5.8 L 3.4 6.3 L 3.5 7.9 L 3.7 9.5 L 3.9 11.2 L 4.2 12.8 L 4.5 14.4 L 4.9 16.0 L 5.4 17.6 L 5.9 19.2 L 6.5 20.7 L 7.1 22.2 L 7.8 23.7 L 8.5 25.1 L 9.3 26.5 L 10.1 27.8 L 11.0 29.0 L 11.9 30.2 L 12.5 30.0 L 13.0 29.8 L 13.6 29.7 L 14.2 29.6 L 14.8 29.5 L 15.4 29.5 L 16.0 29.6 L 16.6 29.6 L 16.9 28.6 L 17.2 27.7 L 17.5 26.7 L 17.8 25.7 L 18.1 24.7 L 18.4 23.8 L 18.6 22.8 L 18.8 21.8 L 18.3 21.8 L 17.7 22.2 L 17.2 22.6 L 16.6 22.9 L 16.0 23.3 L 15.5 23.7 L 14.9 24.1 L 14.4 24.5 L 13.7 24.9 L 13.4 24.5 L 13.7 24.2 L 14.0 24.0 L 14.4 23.7 L 14.7 23.5 L 15.1 23.3 L 15.5 23.0 L 15.9 22.8 L 16.2 22.5 L 16.5 22.3 L 16.8 22.2 L 17.0 22.0 L 17.3 21.8 L 17.5 21.6 L 17.8 21.4 L 18.1 21.3 L 18.4 21.2 L 18.6 21.1 L 18.8 20.9 L 19.0 20.7 L 19.3 20.5 L 19.5 20.6 L 20.1 20.3 L 20.8 20.1 L 21.4 19.8 L 22.1 19.5 L 22.7 19.2 L 23.4 19.0 L 24.1 18.8 L 24.8 18.6 L 25.2 18.5 L 25.6 18.4 L 26.1 18.3 L 26.5 18.2 L 26.9 18.1 L 27.3 18.1 L 27.8 18.0 L 28.2 18.0 L 28.7 17.9 L 29.1 17.9 L 29.5 17.8 L 30.0 17.8 L 30.4 17.7 L 30.8 17.7 L 31.2 17.6 L 31.6 17.5 L 31.5 17.0 L 31.4 16.5 L 31.2 16.0 L 31.0 15.4 L 30.6 15.4 L 30.2 15.4 L 29.7 15.4 L 29.2 15.4 L 28.8 15.3 L 28.4 15.4 L 27.9 15.4 L 27.5 15.4 L 27.0 15.4 L 26.6 15.4 L 26.1 15.4 L 25.7 15.5 L 25.2 15.5 L 24.8 15.5 L 24.3 15.5 L 23.9 15.6 L 23.3 15.6 L 22.6 15.7 L 22.0 15.8 L 21.4 15.9 L 20.8 16.1 L 20.1 16.3 L 19.6 16.5 L 19.0 16.6 L 18.4 16.8 L 17.9 17.1 L 17.3 17.3 L 16.8 17.5 L 16.2 17.7 L 15.7 18.0 L 15.2 18.3 L 14.7 18.5 L 14.4 18.8 L 14.0 19.0 L 13.6 19.2 L 13.3 19.5 L 12.9 19.7 L 12.5 20.0 L 12.1 20.3 L 11.7 20.6 L 11.3 20.3 L 11.4 19.9 L 11.8 19.7 L 12.1 19.5 L 12.4 19.2 L 12.7 19.0 L 13.1 18.8 L 13.4 18.6 L 13.8 18.4 L 14.2 18.2 L 14.3 17.9 L 14.9 17.7 L 15.4 17.5 L 16.0 17.2 L 16.5 16.9 L 17.1 16.6 L 17.7 16.4 L 18.3 16.2 L 19.0 15.9 L 19.4 13.3 L 19.5 10.6 L 19.4 7.9 L 19.1 5.2 L 18.6 5.1 L 18.0 4.9 L 17.4 4.9 L 16.9 4.7 L 16.3 4.7 L 15.7 4.6 L 15.1 4.5 L 14.6 4.5 L 14.0 4.5 L 13.4 4.5 L 12.9 4.4 L 12.3 4.4 L 11.7 4.4 L 11.1 4.4 L 10.5 4.4 L 9.9 4.4 L 9.4 4.4 Z M 9.4 4.4 " fill="#9999FF"></path><path d="M 49.8 6.9 L 48.4 7.3 L 47.1 7.6 L 45.7 7.8 L 44.3 8.2 L 43.0 8.5 L 41.6 8.8 L 40.2 9.1 L 38.9 9.4 L 37.5 9.7 L 36.1 10.0 L 34.8 10.4 L 33.4 10.7 L 32.0 11.0 L 30.6 11.4 L 29.2 11.8 L 27.8 12.1 L 27.4 12.1 L 27.3 12.2 L 27.1 12.2 L 27.0 12.2 L 26.8 12.2 L 26.7 12.3 L 26.5 12.3 L 26.4 12.4 L 26.2 12.4 L 26.4 12.8 L 26.9 13.0 L 27.4 13.2 L 27.9 13.4 L 28.3 13.7 L 28.8 13.9 L 29.3 14.1 L 29.8 14.4 L 30.4 14.6 L 31.0 14.6 L 30.9 14.3 L 30.9 14.1 L 30.7 13.9 L 30.5 13.7 L 30.4 13.5 L 30.3 13.3 L 30.2 13.1 L 30.1 12.8 L 30.2 12.6 L 31.1 12.4 L 32.0 12.2 L 32.9 12.0 L 33.9 11.8 L 34.9 11.6 L 35.8 11.4 L 36.8 11.2 L 37.8 11.0 L 38.7 10.8 L 39.7 10.5 L 40.7 10.2 L 41.7 10.0 L 42.6 9.7 L 43.5 9.4 L 44.5 9.1 L 45.4 8.8 L 45.9 8.6 L 46.5 8.5 L 47.1 8.6 L 47.6 8.7 L 48.2 8.9 L 48.7 9.1 L 49.2 9.4 L 49.7 9.7 L 49.8 10.0 L 49.9 10.3 L 49.8 10.7 L 49.7 11.0 L 49.6 11.1 L 49.4 11.2 L 49.2 11.3 L 49.0 11.4 L 48.5 11.5 L 48.1 11.6 L 47.7 11.7 L 47.2 11.9 L 46.8 12.0 L 46.3 12.1 L 45.9 12.2 L 45.5 12.4 L 45.0 12.6 L 44.6 12.7 L 44.1 12.9 L 43.7 13.0 L 43.2 13.2 L 42.8 13.3 L 42.3 13.5 L 41.9 13.7 L 42.0 13.9 L 42.2 14.0 L 42.4 14.1 L 42.7 14.3 L 42.9 14.4 L 43.2 14.5 L 43.5 14.6 L 43.7 14.7 L 43.9 14.9 L 44.1 15.2 L 44.2 15.5 L 44.3 15.9 L 44.3 16.3 L 43.6 16.5 L 43.0 16.6 L 42.3 16.7 L 41.6 16.8 L 40.9 17.0 L 40.3 17.1 L 39.6 17.2 L 39.0 17.4 L 39.2 17.7 L 39.3 17.7 L 39.5 17.6 L 39.7 17.6 L 39.9 17.5 L 40.3 17.5 L 41.1 17.3 L 41.8 17.1 L 42.6 16.9 L 43.3 16.7 L 44.1 16.5 L 44.8 16.3 L 45.6 16.1 L 46.3 15.9 L 46.9 15.7 L 47.4 15.6 L 48.0 15.5 L 48.5 15.3 L 49.1 15.2 L 49.6 15.1 L 50.1 14.9 L 50.6 14.8 L 51.1 14.7 L 51.6 14.6 L 52.1 14.4 L 52.6 14.3 L 53.1 14.2 L 53.6 14.1 L 54.1 13.9 L 54.5 13.8 L 55.0 13.8 L 55.2 13.7 L 55.5 13.7 L 55.7 13.6 L 56.0 13.5 L 56.4 13.5 L 56.7 13.4 L 56.9 13.3 L 57.2 13.3 L 57.5 13.2 L 57.8 13.1 L 58.0 13.0 L 58.4 13.0 L 58.6 12.9 L 58.2 12.4 L 57.6 12.0 L 57.2 11.5 L 56.7 11.1 L 56.1 10.8 L 55.6 10.4 L 55.0 10.0 L 54.5 9.7 L 53.9 9.3 L 53.4 9.0 L 52.8 8.7 L 52.3 8.3 L 51.7 8.0 L 51.1 7.7 L 50.5 7.3 L 49.9 6.9 L 49.8 6.9 Z M 49.8 6.9 " fill="#FFE7B7"></path><path d="M 46.4 9.1 L 45.4 9.5 L 44.5 9.8 L 43.5 10.0 L 42.6 10.4 L 41.6 10.6 L 40.6 10.9 L 39.7 11.1 L 38.7 11.3 L 37.8 11.6 L 36.8 11.8 L 35.9 12.1 L 34.9 12.2 L 33.9 12.4 L 32.9 12.7 L 31.9 12.9 L 30.9 13.1 L 31.3 13.5 L 32.2 13.5 L 33.1 13.4 L 34.1 13.3 L 35.1 13.2 L 36.1 13.1 L 37.0 12.9 L 38.0 12.7 L 39.0 12.4 L 40.0 12.2 L 41.0 11.9 L 41.9 11.6 L 42.9 11.3 L 43.9 11.0 L 44.8 10.6 L 45.8 10.3 L 46.7 10.0 L 46.9 9.8 L 46.9 9.7 L 46.8 9.4 L 46.8 9.2 L 46.4 9.1 Z M 46.4 9.1 " fill="#B1B1B1"></path><path d="M 47.6 9.5 L 47.7 10.1 L 47.8 10.2 L 47.9 10.3 L 48.1 10.4 L 48.3 10.4 L 48.4 10.5 L 48.6 10.5 L 48.8 10.6 L 49.0 10.6 L 49.3 10.2 L 49.2 10.0 L 49.0 9.9 L 48.9 9.9 L 48.7 9.8 L 48.5 9.7 L 48.4 9.6 L 48.2 9.6 L 48.0 9.5 L 47.8 9.5 L 47.6 9.5 Z M 47.6 9.5 " fill="#7E7E7E"></path><path d="M 61.0 9.6 L 60.8 9.7 L 60.6 9.7 L 60.4 9.8 L 60.2 9.8 L 60.0 9.8 L 59.8 9.9 L 59.6 9.9 L 59.4 10.0 L 59.5 10.8 L 59.5 11.5 L 59.6 12.3 L 59.7 13.1 L 59.4 13.4 L 58.2 13.7 L 56.9 14.0 L 55.6 14.3 L 54.3 14.6 L 53.0 14.9 L 51.7 15.2 L 50.4 15.5 L 49.2 15.9 L 47.9 16.2 L 46.6 16.5 L 45.3 16.8 L 44.0 17.2 L 42.7 17.5 L 41.5 17.8 L 40.2 18.2 L 38.9 18.5 L 38.7 18.8 L 38.4 19.1 L 38.1 19.4 L 37.8 19.8 L 38.0 20.2 L 38.2 20.3 L 38.9 20.1 L 39.6 20.0 L 40.3 19.9 L 41.0 19.8 L 41.7 19.6 L 42.4 19.5 L 43.1 19.4 L 43.7 19.2 L 44.5 19.1 L 45.1 19.0 L 45.8 18.8 L 46.5 18.7 L 47.2 18.5 L 47.9 18.4 L 48.6 18.2 L 49.3 18.0 L 49.8 17.9 L 50.2 17.8 L 50.7 17.7 L 51.1 17.6 L 51.5 17.4 L 52.0 17.3 L 52.4 17.2 L 52.9 17.1 L 53.3 17.0 L 53.8 16.9 L 54.2 16.8 L 54.7 16.6 L 55.1 16.5 L 55.6 16.5 L 56.0 16.3 L 56.5 16.3 L 57.2 16.1 L 57.9 15.9 L 58.6 15.7 L 59.3 15.5 L 60.1 15.4 L 60.8 15.2 L 61.5 15.0 L 62.3 14.8 L 62.2 13.6 L 61.9 12.3 L 61.7 11.1 L 61.4 9.8 L 61.0 9.6 Z M 61.0 9.6 " fill="#C9B181"></path><path d="M 62.1 9.6 L 62.2 10.8 L 62.5 12.1 L 62.7 13.3 L 63.0 14.6 L 63.2 14.6 L 63.4 14.6 L 63.6 14.5 L 63.7 14.5 L 63.9 14.4 L 64.1 14.4 L 64.3 14.3 L 64.5 14.3 L 64.7 14.3 L 65.0 14.4 L 65.3 14.5 L 65.6 14.6 L 65.9 14.6 L 66.2 14.7 L 66.6 14.7 L 66.9 14.6 L 66.8 13.9 L 66.6 13.2 L 66.4 12.4 L 66.3 11.7 L 66.1 11.5 L 65.7 11.3 L 65.2 11.0 L 64.7 10.8 L 64.2 10.6 L 63.8 10.4 L 63.2 10.1 L 62.7 9.9 L 62.2 9.7 L 62.1 9.6 Z M 62.1 9.6 " fill="#B19A6A"></path><path d="M 46.9 10.6 L 46.2 10.9 L 45.5 11.1 L 44.8 11.4 L 44.1 11.6 L 43.3 11.9 L 42.6 12.1 L 41.9 12.3 L 41.1 12.5 L 40.4 12.7 L 39.6 12.9 L 38.8 13.1 L 38.1 13.3 L 37.3 13.5 L 36.5 13.6 L 35.8 13.7 L 35.0 13.9 L 35.2 14.0 L 35.5 14.2 L 35.7 14.4 L 36.1 14.5 L 36.8 14.3 L 37.6 14.1 L 38.3 13.9 L 39.1 13.7 L 39.8 13.5 L 40.5 13.3 L 41.3 13.1 L 42.0 12.9 L 42.7 12.7 L 43.5 12.4 L 44.2 12.2 L 44.9 12.0 L 45.7 11.7 L 46.4 11.5 L 47.1 11.3 L 47.8 11.0 L 47.7 10.9 L 47.5 10.8 L 47.2 10.7 L 46.9 10.6 Z M 46.9 10.6 " fill="#FFFFFF"></path><path d="M 51.8 11.3 L 51.1 11.5 L 50.4 11.7 L 49.7 11.9 L 49.0 12.1 L 48.4 12.3 L 47.6 12.5 L 46.9 12.7 L 46.2 12.8 L 46.0 13.2 L 46.1 13.7 L 46.2 14.2 L 46.4 14.6 L 46.7 14.7 L 46.9 14.8 L 47.1 14.9 L 47.4 15.0 L 47.6 15.0 L 47.9 15.1 L 48.2 15.1 L 48.5 15.2 L 49.2 15.0 L 49.9 14.7 L 50.6 14.5 L 51.4 14.3 L 52.1 14.1 L 52.9 13.9 L 53.7 13.7 L 54.4 13.4 L 54.5 13.2 L 54.5 12.8 L 54.5 12.5 L 54.5 12.1 L 54.3 12.0 L 54.1 11.9 L 53.9 11.8 L 53.7 11.7 L 53.5 11.6 L 53.2 11.5 L 53.0 11.4 L 52.7 11.3 L 51.8 11.3 Z M 51.8 11.3 " fill="#000000"></path><path d="M 51.8 11.8 L 51.1 12.0 L 50.6 12.2 L 49.9 12.4 L 49.3 12.6 L 48.6 12.8 L 48.0 13.0 L 47.3 13.1 L 46.7 13.3 L 46.7 13.7 L 47.3 13.7 L 48.0 13.5 L 48.6 13.4 L 49.3 13.2 L 49.9 13.0 L 50.5 12.8 L 51.1 12.5 L 51.7 12.3 L 51.8 11.8 Z M 51.8 11.8 " fill="#B1B1B1"></path><path d="M 52.6 11.9 L 53.0 12.3 L 53.1 12.3 L 53.2 12.4 L 53.4 12.4 L 53.6 12.5 L 53.6 12.3 L 53.3 12.2 L 53.2 12.1 L 53.0 12.0 L 52.6 11.9 Z M 52.6 11.9 " fill="#7E7E7E"></path><path d="M 52.1 12.9 L 51.5 13.0 L 51.0 13.2 L 50.5 13.4 L 49.9 13.6 L 49.4 13.8 L 48.8 14.0 L 48.3 14.1 L 47.7 14.2 L 47.6 14.4 L 48.3 14.4 L 49.0 14.4 L 49.7 14.2 L 50.4 14.0 L 51.1 13.8 L 51.8 13.5 L 52.5 13.3 L 53.2 13.1 L 53.0 13.0 L 52.8 12.9 L 52.5 12.9 L 52.3 12.9 L 52.1 12.9 Z M 52.1 12.9 " fill="#FFFFFF"></path><path d="M 41.0 13.9 L 40.5 14.1 L 39.9 14.2 L 39.3 14.4 L 38.7 14.5 L 38.1 14.6 L 37.6 14.8 L 37.0 14.9 L 36.4 15.1 L 36.3 15.4 L 36.5 15.9 L 36.5 16.5 L 36.4 17.0 L 36.5 17.7 L 36.9 17.5 L 37.0 17.0 L 37.0 16.5 L 36.9 16.0 L 36.9 15.4 L 37.3 15.2 L 37.7 15.0 L 38.2 14.8 L 38.7 14.7 L 39.3 14.6 L 39.8 14.4 L 40.3 14.3 L 40.8 14.1 L 41.0 13.9 Z M 41.0 13.9 " fill="#FFE7B7"></path><path d="M 34.1 14.6 L 33.9 14.6 L 33.7 14.6 L 33.6 14.6 L 33.4 14.6 L 33.2 14.6 L 33.1 14.7 L 32.9 14.7 L 32.7 14.7 L 32.5 14.8 L 32.3 14.8 L 32.0 14.9 L 31.8 15.0 L 31.8 15.6 L 32.0 16.2 L 32.2 16.7 L 32.3 17.3 L 32.8 17.7 L 33.2 18.1 L 33.7 18.5 L 34.3 18.8 L 34.9 19.0 L 35.5 19.2 L 36.2 19.4 L 36.9 19.4 L 37.3 19.2 L 37.8 18.7 L 38.0 18.4 L 38.2 17.9 L 38.3 17.4 L 38.2 16.9 L 37.6 17.0 L 37.7 17.2 L 37.6 17.4 L 37.6 17.6 L 37.4 17.9 L 37.2 18.1 L 37.1 18.2 L 37.0 18.3 L 36.8 18.4 L 36.6 18.5 L 36.1 18.3 L 35.9 18.1 L 35.7 17.4 L 35.7 16.6 L 35.7 15.9 L 35.5 15.1 L 35.0 14.7 L 34.8 14.6 L 34.6 14.6 L 34.3 14.6 L 34.1 14.6 Z M 34.1 14.6 " fill="#814E1B"></path><path d="M 41.9 14.6 L 42.0 14.9 L 42.0 15.0 L 42.2 15.1 L 42.3 15.2 L 42.5 15.4 L 43.2 15.5 L 43.0 15.2 L 42.8 15.1 L 42.5 15.0 L 42.2 14.8 L 41.9 14.6 Z M 41.9 14.6 " fill="#7E7E7E"></path><path d="M 40.9 14.7 L 40.6 14.8 L 40.2 15.0 L 39.8 15.1 L 39.4 15.2 L 39.0 15.3 L 38.6 15.4 L 38.1 15.6 L 37.7 15.7 L 37.8 16.1 L 38.0 16.1 L 38.1 16.1 L 38.3 16.1 L 38.4 16.1 L 38.6 16.0 L 38.8 15.9 L 39.0 15.9 L 39.2 15.9 L 39.4 15.8 L 39.6 15.7 L 39.8 15.7 L 40.0 15.6 L 40.3 15.5 L 40.6 15.5 L 40.8 15.4 L 41.0 15.4 L 41.2 15.2 L 41.2 15.0 L 41.1 14.8 L 40.9 14.7 Z M 40.9 14.7 " fill="#B1B1B1"></path><path d="M 64.1 15.0 L 63.2 15.2 L 62.3 15.4 L 61.4 15.7 L 60.5 15.9 L 59.6 16.1 L 58.7 16.3 L 57.8 16.5 L 56.9 16.7 L 56.0 17.0 L 55.1 17.2 L 54.2 17.4 L 53.3 17.6 L 52.4 17.9 L 51.5 18.1 L 50.6 18.3 L 49.7 18.5 L 48.8 18.7 L 47.9 19.0 L 47.0 19.2 L 46.1 19.4 L 45.2 19.6 L 44.3 19.8 L 43.4 20.0 L 42.5 20.1 L 41.6 20.3 L 40.7 20.5 L 39.8 20.6 L 38.9 20.8 L 38.0 20.9 L 37.1 21.0 L 36.2 21.1 L 35.3 21.2 L 35.1 21.5 L 35.1 21.8 L 35.2 22.2 L 35.3 22.5 L 35.6 22.4 L 35.9 22.5 L 36.2 22.5 L 36.5 22.7 L 36.6 22.8 L 36.7 22.9 L 36.7 23.2 L 36.8 23.4 L 36.8 24.3 L 36.7 24.6 L 36.6 24.9 L 36.5 25.2 L 36.3 25.5 L 36.1 25.5 L 36.0 25.6 L 35.8 25.7 L 35.6 25.9 L 35.9 27.4 L 36.2 28.9 L 36.6 30.4 L 37.0 31.9 L 37.4 33.3 L 37.8 34.8 L 38.3 36.3 L 38.8 37.8 L 39.3 39.2 L 39.9 40.6 L 40.5 42.0 L 41.1 43.3 L 41.7 44.7 L 42.4 46.0 L 43.1 47.2 L 43.7 48.4 L 44.9 48.4 L 46.1 48.3 L 47.3 48.2 L 48.5 48.1 L 49.7 47.9 L 50.8 47.8 L 52.1 47.6 L 53.2 47.4 L 54.4 47.2 L 55.6 46.9 L 56.8 46.7 L 58.0 46.4 L 59.2 46.1 L 60.4 45.8 L 61.6 45.5 L 62.8 45.1 L 63.6 44.9 L 64.3 44.7 L 65.0 44.5 L 65.7 44.3 L 66.4 44.1 L 67.1 43.9 L 67.8 43.6 L 68.4 43.4 L 69.1 43.2 L 69.8 42.9 L 70.4 42.7 L 71.1 42.4 L 71.7 42.2 L 72.3 41.9 L 73.0 41.6 L 73.6 41.4 L 73.7 40.7 L 73.1 39.1 L 72.5 37.5 L 71.9 35.9 L 71.4 34.3 L 70.8 32.6 L 70.3 31.0 L 69.7 29.3 L 69.2 27.7 L 68.6 26.0 L 68.0 24.4 L 67.5 22.8 L 66.9 21.2 L 66.3 19.7 L 65.6 18.1 L 65.0 16.6 L 64.3 15.1 L 64.1 15.0 Z M 64.1 15.0 " fill="#DDC696"></path><path d="M 65.2 15.2 L 65.8 16.6 L 66.4 18.1 L 67.0 19.6 L 67.6 21.2 L 68.1 22.7 L 68.7 24.4 L 69.2 25.9 L 69.8 27.5 L 70.3 29.1 L 70.9 30.8 L 71.4 32.4 L 72.0 34.0 L 72.5 35.6 L 73.1 37.2 L 73.7 38.7 L 74.3 40.2 L 74.5 40.0 L 74.9 39.4 L 75.3 38.7 L 75.6 38.0 L 75.9 37.3 L 76.2 36.5 L 76.6 35.8 L 76.8 35.0 L 77.1 34.2 L 76.6 32.0 L 75.9 29.8 L 75.3 27.6 L 74.6 25.4 L 73.8 23.2 L 73.1 21.0 L 72.3 18.8 L 71.5 16.7 L 70.7 16.5 L 70.0 16.2 L 69.2 16.0 L 68.4 15.8 L 67.6 15.6 L 66.8 15.5 L 66.0 15.4 L 65.2 15.2 Z M 65.2 15.2 " fill="#C9B181"></path><path d="M 41.6 15.9 L 41.3 16.0 L 41.0 16.1 L 40.7 16.1 L 40.4 16.2 L 40.2 16.3 L 39.9 16.4 L 39.6 16.5 L 39.3 16.6 L 39.6 16.6 L 40.0 16.5 L 40.4 16.5 L 40.8 16.4 L 41.2 16.3 L 41.6 16.2 L 42.0 16.1 L 42.4 16.1 L 41.6 15.9 Z M 41.6 15.9 " fill="#FFFFFF"></path><path d="M 73.5 20.0 L 73.9 21.2 L 74.3 22.5 L 74.7 23.8 L 75.1 25.1 L 75.6 26.4 L 76.0 27.8 L 76.4 29.1 L 76.9 30.5 L 77.1 30.5 L 77.3 29.3 L 77.2 28.1 L 76.9 26.9 L 76.5 25.7 L 76.1 24.5 L 75.6 23.3 L 75.2 22.0 L 74.9 20.8 L 74.5 20.4 L 74.4 20.3 L 74.2 20.2 L 73.9 20.1 L 73.6 20.0 L 73.5 20.0 Z M 73.5 20.0 " fill="#C9B181"></path><path d="M 61.6 20.8 L 60.8 20.9 L 60.0 21.1 L 59.1 21.2 L 58.4 21.4 L 57.5 21.5 L 56.7 21.7 L 56.0 21.8 L 55.1 22.0 L 54.3 22.2 L 53.5 22.3 L 52.7 22.5 L 51.9 22.7 L 51.1 22.8 L 50.2 23.0 L 49.4 23.1 L 48.6 23.3 L 48.0 23.4 L 47.5 23.6 L 46.9 23.8 L 46.3 23.9 L 45.8 24.0 L 45.2 24.1 L 44.6 24.2 L 44.1 24.3 L 43.5 24.4 L 43.0 24.5 L 42.4 24.6 L 41.8 24.8 L 41.3 24.9 L 40.7 25.1 L 40.2 25.2 L 39.6 25.4 L 40.1 27.6 L 40.6 29.9 L 41.2 32.2 L 41.9 34.4 L 42.6 36.7 L 43.4 38.9 L 44.3 40.9 L 45.3 42.9 L 46.7 42.8 L 48.1 42.7 L 49.5 42.6 L 51.0 42.4 L 52.4 42.2 L 53.9 42.0 L 55.4 41.7 L 56.8 41.4 L 58.2 41.0 L 59.7 40.7 L 61.1 40.2 L 62.5 39.8 L 63.9 39.3 L 65.3 38.8 L 66.6 38.2 L 67.9 37.6 L 67.2 35.9 L 66.6 34.1 L 66.0 32.3 L 65.4 30.5 L 64.8 28.7 L 64.3 26.8 L 63.7 25.0 L 63.1 23.2 L 62.8 22.5 L 62.7 21.9 L 62.6 21.4 L 62.4 21.0 L 61.6 20.8 Z M 61.6 20.8 " fill="#000000"></path><path d="M 61.8 21.3 L 61.7 21.4 L 61.5 21.4 L 61.4 21.5 L 61.2 21.5 L 60.4 21.6 L 59.6 21.7 L 58.8 21.8 L 58.0 21.9 L 57.2 22.1 L 56.5 22.2 L 55.7 22.4 L 54.9 22.5 L 54.1 22.7 L 53.3 22.9 L 52.5 23.1 L 51.7 23.3 L 51.0 23.4 L 50.2 23.6 L 49.4 23.7 L 48.6 23.8 L 48.2 24.0 L 47.8 24.1 L 47.3 24.2 L 46.9 24.3 L 46.4 24.4 L 45.9 24.5 L 45.5 24.6 L 45.0 24.7 L 44.6 24.8 L 44.1 24.9 L 43.7 24.9 L 43.2 25.1 L 42.8 25.1 L 42.3 25.3 L 41.9 25.4 L 41.4 25.5 L 43.9 35.1 L 44.1 35.7 L 44.4 36.4 L 44.6 37.0 L 44.9 37.7 L 45.2 38.4 L 45.5 39.0 L 45.8 39.7 L 46.1 40.3 L 46.5 40.9 L 47.3 40.9 L 48.2 40.9 L 49.0 40.9 L 49.9 40.8 L 50.8 40.7 L 51.7 40.5 L 52.5 40.4 L 53.4 40.2 L 54.3 40.0 L 55.2 39.8 L 56.1 39.6 L 57.0 39.4 L 57.9 39.2 L 58.8 38.9 L 59.7 38.7 L 60.6 38.5 L 61.0 38.5 L 61.6 38.3 L 62.1 38.1 L 62.7 37.9 L 63.2 37.8 L 63.8 37.5 L 64.3 37.4 L 64.9 37.2 L 65.4 37.0 L 65.6 36.9 L 65.7 36.8 L 65.8 36.8 L 66.0 36.7 L 66.2 36.6 L 66.3 36.6 L 66.5 36.5 L 66.6 36.4 L 66.1 34.5 L 65.5 32.7 L 64.9 30.8 L 64.4 28.9 L 63.8 27.1 L 63.2 25.2 L 62.6 23.3 L 62.0 21.5 L 61.8 21.3 Z M 61.8 21.3 " fill="#669999"></path><path d="M 31.8 22.2 L 31.6 22.2 L 31.5 22.3 L 31.3 22.3 L 31.1 22.4 L 30.8 22.5 L 30.6 22.6 L 30.4 22.7 L 30.2 22.8 L 29.8 23.2 L 29.9 23.7 L 30.0 24.3 L 30.0 24.9 L 30.2 25.5 L 30.8 25.6 L 31.4 25.7 L 32.1 25.8 L 32.7 25.7 L 33.4 25.6 L 34.1 25.5 L 34.7 25.3 L 35.4 25.1 L 35.5 25.0 L 35.7 24.9 L 35.9 24.8 L 36.0 24.7 L 36.1 24.4 L 36.1 24.0 L 36.1 23.6 L 35.9 23.2 L 35.7 23.3 L 35.5 23.4 L 35.3 23.5 L 35.2 23.8 L 34.5 23.9 L 34.2 23.8 L 33.9 23.6 L 33.7 23.3 L 33.4 22.9 L 33.1 22.6 L 33.0 22.6 L 32.9 22.5 L 32.7 22.4 L 32.6 22.3 L 32.4 22.3 L 32.2 22.2 L 32.0 22.2 L 31.8 22.2 Z M 31.8 22.2 " fill="#814E1B"></path><path d="M 19.3 23.3 L 19.0 23.9 L 18.8 24.6 L 18.6 25.3 L 18.3 26.1 L 18.4 26.4 L 19.0 26.4 L 19.8 26.4 L 20.4 26.4 L 21.1 26.4 L 21.8 26.4 L 22.5 26.4 L 23.1 26.4 L 23.8 26.3 L 24.5 26.3 L 25.2 26.2 L 25.9 26.1 L 26.6 26.0 L 27.3 25.9 L 28.0 25.8 L 28.7 25.6 L 29.4 25.5 L 29.3 25.0 L 29.3 24.5 L 29.2 24.1 L 29.1 23.6 L 28.5 23.7 L 27.9 23.7 L 27.2 23.7 L 26.6 23.7 L 26.0 23.8 L 25.4 23.8 L 24.8 23.7 L 24.2 23.7 L 23.6 23.7 L 23.0 23.6 L 22.4 23.6 L 21.8 23.6 L 21.1 23.5 L 20.5 23.4 L 19.9 23.4 L 19.3 23.3 Z M 19.3 23.3 " fill="#9999FF"></path><path d="M 40.8 25.6 L 40.4 25.8 L 40.7 27.8 L 41.2 29.9 L 41.7 32.0 L 42.4 34.1 L 43.1 36.1 L 43.8 38.1 L 44.6 40.0 L 45.4 42.0 L 45.8 41.5 L 45.2 40.2 L 44.7 38.9 L 44.2 37.5 L 43.6 36.1 L 43.1 34.7 L 42.6 33.2 L 42.2 31.8 L 41.8 30.2 L 41.2 27.7 L 40.8 25.6 Z M 40.8 25.6 " fill="#BBA474"></path><path d="M 54.2 29.4 L 53.9 29.5 L 53.7 29.6 L 53.4 29.7 L 53.2 29.9 L 52.9 30.0 L 52.7 30.2 L 52.4 30.3 L 52.2 30.5 L 52.3 30.8 L 52.5 31.1 L 52.7 31.4 L 53.0 31.7 L 53.2 32.0 L 53.4 32.2 L 53.7 32.5 L 53.9 32.7 L 54.2 32.7 L 54.5 32.6 L 54.7 32.5 L 54.9 32.3 L 55.1 32.2 L 55.3 32.0 L 55.6 31.8 L 55.8 31.7 L 55.9 31.5 L 55.7 31.2 L 55.6 30.9 L 55.4 30.6 L 55.2 30.3 L 55.0 30.1 L 54.8 29.9 L 54.5 29.6 L 54.2 29.4 Z M 54.2 29.4 " fill="#FFFFFF"></path><path d="M 54.2 30.0 L 53.7 30.2 L 53.6 30.3 L 53.4 30.4 L 53.3 30.5 L 53.1 30.6 L 53.0 30.8 L 53.2 31.1 L 53.5 31.4 L 53.7 31.7 L 53.9 32.0 L 54.3 32.0 L 54.6 31.8 L 54.9 31.7 L 55.1 31.5 L 55.1 31.1 L 54.9 30.8 L 54.7 30.5 L 54.5 30.2 L 54.2 30.0 Z M 54.2 30.0 " fill="#FFFFFF"></path><path d="M 14.0 30.2 L 13.7 30.2 L 13.5 30.3 L 13.3 30.4 L 13.1 30.4 L 12.8 30.5 L 12.6 30.6 L 12.3 30.8 L 12.1 31.0 L 12.0 33.1 L 12.0 35.2 L 11.9 37.4 L 11.8 39.6 L 12.4 40.5 L 13.0 41.4 L 13.7 42.2 L 14.4 43.1 L 15.1 44.0 L 15.7 44.9 L 16.4 45.8 L 17.0 46.6 L 17.4 46.1 L 17.5 46.0 L 17.6 45.9 L 17.8 45.8 L 17.9 45.8 L 18.1 45.7 L 18.2 45.6 L 18.4 45.5 L 18.6 45.5 L 18.8 45.5 L 19.0 45.5 L 19.2 45.6 L 19.5 45.7 L 19.7 44.6 L 19.9 43.5 L 20.2 42.5 L 20.5 41.4 L 21.0 40.5 L 21.5 39.6 L 22.2 38.7 L 22.8 37.9 L 22.6 37.5 L 22.3 37.5 L 22.0 37.4 L 21.8 37.4 L 21.5 37.4 L 21.2 37.4 L 20.9 37.4 L 20.6 37.4 L 20.3 37.4 L 20.1 37.3 L 19.9 37.0 L 19.9 36.7 L 19.8 36.4 L 19.4 35.6 L 19.0 34.8 L 18.6 34.1 L 18.3 33.3 L 17.9 32.5 L 17.4 31.8 L 17.0 31.1 L 16.5 30.4 L 16.2 30.3 L 15.9 30.3 L 15.6 30.2 L 15.3 30.2 L 14.9 30.2 L 14.6 30.2 L 14.3 30.2 L 14.0 30.2 Z M 14.0 30.2 " fill="#814E1B"></path><path d="M 50.9 31.0 L 50.7 31.1 L 50.5 31.3 L 50.3 31.4 L 50.1 31.5 L 49.8 31.6 L 49.6 31.7 L 49.3 31.7 L 49.0 31.8 L 49.2 32.3 L 49.4 32.5 L 49.6 32.8 L 49.8 33.0 L 50.0 33.3 L 50.2 33.5 L 50.4 33.8 L 50.6 34.1 L 50.8 34.3 L 51.2 34.4 L 51.4 34.3 L 51.7 34.1 L 52.0 33.9 L 52.3 33.7 L 52.4 33.6 L 52.6 33.5 L 52.8 33.4 L 53.0 33.2 L 52.8 32.9 L 52.7 32.6 L 52.5 32.4 L 52.3 32.1 L 52.0 31.8 L 51.7 31.5 L 51.5 31.3 L 51.2 31.1 L 50.9 31.0 Z M 50.9 31.0 " fill="#FFFFFF"></path><path d="M 33.1 31.3 L 32.8 31.5 L 33.0 32.0 L 33.1 32.6 L 33.3 33.2 L 33.5 33.7 L 33.7 34.3 L 33.9 34.9 L 34.2 35.4 L 34.5 35.9 L 34.6 35.8 L 34.5 35.3 L 34.4 34.7 L 34.2 34.2 L 34.0 33.7 L 33.9 33.2 L 33.7 32.7 L 33.5 32.2 L 33.4 31.6 L 33.1 31.3 Z M 33.1 31.3 " fill="#000000"></path><path d="M 31.3 31.5 L 31.4 35.1 L 31.5 38.9 L 31.8 42.6 L 32.2 46.4 L 32.6 46.3 L 32.3 42.6 L 32.2 38.9 L 31.9 35.2 L 31.5 31.5 L 31.3 31.5 Z M 31.3 31.5 " fill="#000000"></path><path d="M 51.0 31.6 L 50.7 31.7 L 50.5 31.8 L 50.2 31.9 L 49.8 32.1 L 50.0 32.5 L 50.3 32.9 L 50.6 33.2 L 51.0 33.5 L 51.5 33.5 L 51.7 33.5 L 51.8 33.3 L 52.0 33.3 L 52.2 33.2 L 52.3 33.0 L 52.1 32.7 L 51.8 32.3 L 51.5 32.0 L 51.2 31.7 L 51.0 31.6 Z M 51.0 31.6 " fill="#FFFFFF"></path><path d="M 28.6 31.9 L 28.4 33.0 L 28.2 34.3 L 28.1 35.5 L 28.0 36.8 L 28.4 36.9 L 28.5 35.7 L 28.6 34.5 L 28.7 33.2 L 28.9 32.0 L 28.6 31.9 Z M 28.6 31.9 " fill="#000000"></path><path d="M 16.0 32.2 L 15.6 32.4 L 15.5 32.7 L 15.5 32.9 L 15.3 33.2 L 15.2 33.5 L 15.2 34.0 L 15.1 34.4 L 15.1 34.9 L 15.1 35.4 L 15.5 35.3 L 15.6 34.8 L 15.7 34.2 L 15.7 33.7 L 15.8 33.2 L 15.9 33.0 L 16.0 32.9 L 16.1 32.8 L 16.3 32.6 L 16.6 32.7 L 16.9 33.2 L 17.2 33.7 L 17.3 34.2 L 17.6 34.7 L 18.0 34.5 L 17.8 34.0 L 17.6 33.4 L 17.3 32.9 L 17.0 32.4 L 16.9 32.4 L 16.7 32.3 L 16.5 32.2 L 16.3 32.2 L 16.0 32.2 Z M 16.0 32.2 " fill="#000000"></path><path d="M 56.5 32.6 L 56.3 32.7 L 56.1 32.8 L 55.9 32.9 L 55.7 33.0 L 55.5 33.1 L 55.3 33.3 L 55.2 33.4 L 55.0 33.5 L 54.9 33.8 L 55.0 34.1 L 55.2 34.5 L 55.4 34.8 L 55.7 35.2 L 56.0 35.5 L 56.2 35.8 L 56.5 36.1 L 56.8 36.4 L 57.1 36.3 L 57.3 36.2 L 57.6 36.1 L 57.8 35.9 L 58.0 35.8 L 58.2 35.6 L 58.4 35.4 L 58.6 35.2 L 58.5 34.8 L 58.3 34.5 L 58.1 34.3 L 58.0 34.1 L 57.8 33.8 L 57.6 33.5 L 57.4 33.3 L 57.2 33.0 L 56.9 32.8 L 56.5 32.6 Z M 56.5 32.6 " fill="#FFFFFF"></path><path d="M 56.5 33.2 L 56.3 33.3 L 56.1 33.4 L 56.0 33.5 L 55.8 33.7 L 55.6 33.9 L 55.7 34.3 L 56.0 34.6 L 56.2 35.0 L 56.5 35.3 L 56.9 35.6 L 57.1 35.5 L 57.4 35.5 L 57.6 35.4 L 57.8 35.1 L 57.6 34.6 L 57.3 34.2 L 57.0 33.7 L 56.7 33.3 L 56.5 33.2 Z M 56.5 33.2 " fill="#FFFFFF"></path><path d="M 53.6 34.4 L 53.2 34.7 L 53.0 34.8 L 52.9 34.9 L 52.7 35.0 L 52.6 35.2 L 52.4 35.2 L 52.3 35.4 L 52.1 35.5 L 51.9 35.5 L 51.8 35.8 L 52.0 36.1 L 52.2 36.3 L 52.5 36.6 L 52.8 36.9 L 53.0 37.2 L 53.3 37.5 L 53.5 37.8 L 53.7 38.1 L 54.0 38.2 L 54.3 38.1 L 54.5 37.9 L 54.9 37.7 L 55.0 37.6 L 55.3 37.4 L 55.5 37.2 L 55.7 37.0 L 55.8 36.8 L 55.6 36.5 L 55.3 36.2 L 55.0 35.9 L 54.7 35.5 L 54.5 35.1 L 54.4 35.0 L 54.3 34.8 L 54.2 34.6 L 54.0 34.4 L 53.6 34.4 Z M 53.6 34.4 " fill="#FFFFFF"></path><path d="M 53.6 35.1 L 53.4 35.2 L 53.3 35.2 L 53.2 35.3 L 53.0 35.4 L 52.8 35.6 L 52.9 35.9 L 53.0 36.1 L 53.1 36.3 L 53.3 36.6 L 53.5 36.8 L 53.7 37.0 L 53.9 37.2 L 54.0 37.4 L 54.3 37.3 L 54.5 37.2 L 54.7 37.1 L 55.0 36.9 L 54.9 36.6 L 54.7 36.4 L 54.6 36.1 L 54.4 35.9 L 54.3 35.7 L 54.1 35.5 L 53.9 35.3 L 53.6 35.1 Z M 53.6 35.1 " fill="#FFFFFF"></path><path d="M 6.0 35.2 L 5.8 35.2 L 5.6 35.3 L 5.5 35.4 L 5.3 35.5 L 5.2 35.6 L 5.1 35.9 L 5.0 36.1 L 4.8 36.4 L 4.7 37.2 L 4.7 38.1 L 4.8 39.0 L 4.9 39.8 L 5.0 40.2 L 5.1 40.5 L 5.1 40.9 L 5.0 41.2 L 4.8 41.4 L 4.6 41.3 L 4.4 41.2 L 4.2 41.1 L 4.0 41.0 L 3.7 40.9 L 3.5 40.8 L 3.2 40.7 L 2.9 40.8 L 2.8 41.0 L 2.6 41.4 L 2.5 41.8 L 2.3 42.2 L 2.1 43.3 L 2.1 44.5 L 2.1 45.7 L 2.3 46.9 L 2.5 48.1 L 2.9 49.3 L 3.4 50.4 L 3.9 51.4 L 4.1 51.6 L 4.4 51.9 L 4.7 52.2 L 5.0 52.5 L 5.2 52.6 L 5.3 52.6 L 5.5 52.7 L 5.6 52.8 L 5.8 52.8 L 6.0 52.9 L 6.2 53.0 L 6.4 53.0 L 6.6 53.0 L 6.8 53.0 L 7.0 53.0 L 7.2 53.0 L 7.4 53.0 L 7.6 53.0 L 7.8 53.0 L 8.0 53.0 L 8.2 53.0 L 8.3 52.9 L 8.4 52.8 L 8.6 52.8 L 8.7 52.7 L 8.9 52.6 L 9.0 52.6 L 9.2 52.5 L 9.5 52.2 L 9.7 51.8 L 9.9 51.4 L 10.3 51.1 L 10.5 51.2 L 10.7 51.5 L 11.0 51.9 L 11.3 52.3 L 11.6 52.7 L 11.9 53.1 L 12.2 53.5 L 12.5 53.9 L 12.9 54.3 L 13.1 54.3 L 13.3 54.3 L 13.5 54.4 L 13.8 54.4 L 14.0 54.4 L 14.2 54.4 L 14.5 54.4 L 14.7 54.3 L 14.9 54.1 L 15.1 53.9 L 15.3 53.6 L 15.6 53.4 L 15.7 53.2 L 15.8 53.0 L 15.9 52.8 L 16.0 52.5 L 16.0 52.0 L 15.2 50.7 L 14.4 49.3 L 13.7 47.9 L 13.0 46.5 L 12.3 44.9 L 11.8 43.4 L 11.4 41.7 L 11.0 40.0 L 11.0 39.8 L 10.8 39.5 L 10.6 39.2 L 10.3 39.0 L 10.0 38.8 L 9.7 38.8 L 9.6 38.9 L 9.4 39.0 L 9.2 39.1 L 8.9 38.9 L 8.7 38.4 L 8.4 37.8 L 8.2 37.2 L 7.9 36.6 L 7.7 36.4 L 7.5 36.1 L 7.2 35.8 L 6.9 35.5 L 6.7 35.5 L 6.6 35.4 L 6.4 35.2 L 6.2 35.2 L 6.0 35.2 Z M 6.0 35.2 " fill="#000000"></path><path d="M 66.9 37.1 L 65.6 37.6 L 64.4 38.0 L 63.2 38.4 L 61.9 38.8 L 60.7 39.2 L 59.4 39.5 L 58.1 39.8 L 56.8 40.1 L 55.5 40.4 L 54.2 40.7 L 52.9 40.9 L 51.6 41.1 L 50.3 41.3 L 49.0 41.5 L 47.7 41.6 L 46.5 41.7 L 46.2 42.2 L 47.5 42.1 L 48.8 42.0 L 50.1 41.9 L 51.5 41.7 L 52.8 41.5 L 54.1 41.3 L 55.4 41.0 L 56.7 40.7 L 58.0 40.4 L 59.3 40.1 L 60.6 39.7 L 61.9 39.3 L 63.2 38.9 L 64.5 38.4 L 65.7 37.9 L 66.9 37.4 L 66.9 37.1 Z M 66.9 37.1 " fill="#BBA474"></path><path d="M 17.5 40.0 L 17.4 40.9 L 17.4 41.8 L 17.4 42.7 L 17.4 43.7 L 17.7 44.0 L 17.9 43.8 L 17.9 42.9 L 17.9 42.0 L 17.9 41.1 L 17.7 40.1 L 17.5 40.0 Z M 17.5 40.0 " fill="#000000"></path><path d="M 12.0 41.1 L 12.2 42.3 L 12.6 43.5 L 13.0 44.7 L 13.4 45.9 L 13.9 47.0 L 14.5 48.1 L 15.0 49.1 L 15.7 50.1 L 15.8 50.3 L 16.0 50.6 L 16.2 50.8 L 16.4 51.0 L 16.6 51.2 L 16.9 51.3 L 17.2 51.3 L 17.5 51.3 L 17.8 51.3 L 18.1 51.3 L 18.4 51.3 L 18.6 51.3 L 19.0 51.3 L 19.0 50.9 L 18.6 50.2 L 18.2 49.6 L 17.8 49.0 L 17.4 48.4 L 17.0 47.8 L 16.6 47.2 L 16.2 46.6 L 15.8 46.0 L 15.3 45.4 L 14.9 44.8 L 14.4 44.2 L 14.0 43.6 L 13.5 43.0 L 13.1 42.4 L 12.6 41.8 L 12.1 41.2 L 12.0 41.1 Z M 12.0 41.1 " fill="#9999FF"></path><path d="M 18.8 41.2 L 18.5 41.7 L 18.6 42.2 L 18.6 42.7 L 18.6 43.2 L 18.7 43.7 L 19.1 43.5 L 19.1 43.0 L 19.1 42.5 L 19.1 42.0 L 19.2 41.5 L 18.8 41.2 Z M 18.8 41.2 " fill="#000000"></path><path d="M 18.6 46.1 L 18.5 46.2 L 18.3 46.2 L 18.2 46.4 L 18.1 46.5 L 17.9 46.6 L 17.9 46.8 L 17.8 46.9 L 17.7 47.1 L 17.6 47.3 L 17.6 47.5 L 17.7 47.6 L 17.8 47.8 L 17.9 47.9 L 18.1 48.2 L 18.3 48.6 L 18.5 48.9 L 18.7 49.3 L 19.0 49.6 L 19.2 49.9 L 19.4 50.3 L 19.6 50.6 L 19.8 51.0 L 19.9 51.4 L 20.1 51.7 L 20.3 52.1 L 20.5 52.2 L 20.7 52.3 L 20.9 52.5 L 21.0 52.6 L 21.8 52.6 L 22.0 52.4 L 22.2 52.3 L 22.4 52.1 L 22.7 51.9 L 22.9 51.5 L 22.9 50.8 L 22.9 50.1 L 22.9 49.4 L 22.8 48.7 L 22.7 48.4 L 22.6 48.0 L 22.5 47.8 L 22.3 47.5 L 22.1 47.4 L 21.9 47.3 L 21.7 47.2 L 21.4 47.3 L 21.0 47.8 L 20.5 47.8 L 20.3 47.5 L 20.2 47.3 L 20.0 47.0 L 19.8 46.8 L 19.6 46.6 L 19.3 46.4 L 19.0 46.2 L 18.6 46.1 Z M 18.6 46.1 " fill="#000000"></path></g></g></g></svg>