<?xml version="1.0" encoding="UTF-8" standalone="no"?><svg xmlns="http://www.w3.org/2000/svg" xmlns:xlink="http://www.w3.org/1999/xlink" clip-rule="evenodd" stroke-miterlimit="10" viewBox="0 0 155 15"><desc>SVG generated by Keynote</desc><defs></defs><g transform="matrix(1.00, 0.00, -0.00, -1.00, 0.0, 15.0)"><text xml:space="preserve" font-family="MyriadPro-BoldCond,Myriad Pro" font-weight="bold" font-size="16.0" fill="#993300" transform="matrix(1.00, 0.00, -0.00, -1.00, 2.8, 2.2)">/</text><text xml:space="preserve" font-family="MyriadPro-BoldCond,Myriad Pro" font-weight="bold" font-size="16.0" fill="#993300" transform="matrix(1.00, 0.00, -0.00, -1.00, 7.3, 2.2)">h</text><text xml:space="preserve" font-family="MyriadPro-BoldCond,Myriad Pro" font-weight="bold" font-size="16.0" fill="#993300" transform="matrix(1.00, 0.00, -0.00, -1.00, 14.6, 2.2)">i</text><text xml:space="preserve" font-family="MyriadPro-BoldCond,Myriad Pro" font-weight="bold" font-size="16.0" fill="#993300" transform="matrix(1.00, 0.00, -0.00, -1.00, 18.2, 2.2)">v</text><text xml:space="preserve" font-family="MyriadPro-BoldCond,Myriad Pro" font-weight="bold" font-size="16.0" fill="#993300" transform="matrix(1.00, 0.00, -0.00, -1.00, 24.2, 2.2)">e</text><text xml:space="preserve" font-family="MyriadPro-BoldCond,Myriad Pro" font-weight="bold" font-size="16.0" fill="#993300" transform="matrix(1.00, 0.00, -0.00, -1.00, 31.0, 2.2)">/</text><text xml:space="preserve" font-family="MyriadPro-BoldCond,Myriad Pro" font-weight="bold" font-size="16.0" fill="#993300" transform="matrix(1.00, 0.00, -0.00, -1.00, 35.4, 2.2)">c</text><text xml:space="preserve" font-family="MyriadPro-BoldCond,Myriad Pro" font-weight="bold" font-size="16.0" fill="#993300" transform="matrix(1.00, 0.00, -0.00, -1.00, 40.6, 2.2)">l</text><text xml:space="preserve" font-family="MyriadPro-BoldCond,Myriad Pro" font-weight="bold" font-size="16.0" fill="#993300" transform="matrix(1.00, 0.00, -0.00, -1.00, 44.2, 2.2)">i</text><text xml:space="preserve" font-family="MyriadPro-BoldCond,Myriad Pro" font-weight="bold" font-size="16.0" fill="#993300" transform="matrix(1.00, 0.00, -0.00, -1.00, 47.8, 2.2)">c</text><text xml:space="preserve" font-family="MyriadPro-BoldCond,Myriad Pro" font-weight="bold" font-size="16.0" fill="#993300" transform="matrix(1.00, 0.00, -0.00, -1.00, 52.9, 2.2)">k</text><text xml:space="preserve" font-family="MyriadPro-BoldCond,Myriad Pro" font-weight="bold" font-size="16.0" fill="#993300" transform="matrix(1.00, 0.00, -0.00, -1.00, 59.5, 2.2)">s</text><text xml:space="preserve" font-family="MyriadPro-BoldCond,Myriad Pro" font-weight="bold" font-size="16.0" fill="#993300" transform="matrix(1.00, 0.00, -0.00, -1.00, 64.7, 2.2)">/</text><text xml:space="preserve" font-family="MyriadPro-BoldCond,Myriad Pro" font-weight="bold" font-size="16.0" fill="#993300" transform="matrix(1.00, 0.00, -0.00, -1.00, 69.2, 2.2)">d</text><text xml:space="preserve" font-family="MyriadPro-BoldCond,Myriad Pro" font-weight="bold" font-size="16.0" fill="#993300" transform="matrix(1.00, 0.00, -0.00, -1.00, 76.4, 2.2)">s</text><text xml:space="preserve" font-family="MyriadPro-BoldCond,Myriad Pro" font-weight="bold" font-size="16.0" fill="#993300" transform="matrix(1.00, 0.00, -0.00, -1.00, 81.5, 2.2)">=</text><text xml:space="preserve" font-family="MyriadPro-BoldCond,Myriad Pro" font-weight="bold" font-size="16.0" fill="#993300" transform="matrix(1.00, 0.00, -0.00, -1.00, 91.1, 2.2)">2</text><text xml:space="preserve" font-family="MyriadPro-BoldCond,Myriad Pro" font-weight="bold" font-size="16.0" fill="#993300" transform="matrix(1.00, 0.00, -0.00, -1.00, 97.9, 2.2)">0</text><text xml:space="preserve" font-family="MyriadPro-BoldCond,Myriad Pro" font-weight="bold" font-size="16.0" fill="#993300" transform="matrix(1.00, 0.00, -0.00, -1.00, 104.7, 2.2)">0</text><text xml:space="preserve" font-family="MyriadPro-BoldCond,Myriad Pro" font-weight="bold" font-size="16.0" fill="#993300" transform="matrix(1.00, 0.00, -0.00, -1.00, 111.5, 2.2)">8</text><text xml:space="preserve" font-family="MyriadPro-BoldCond,Myriad Pro" font-weight="bold" font-size="16.0" fill="#993300" transform="matrix(1.00, 0.00, -0.00, -1.00, 118.3, 2.2)">-</text><text xml:space="preserve" font-family="MyriadPro-BoldCond,Myriad Pro" font-weight="bold" font-size="16.0" fill="#993300" transform="matrix(1.00, 0.00, -0.00, -1.00, 122.5, 2.2)">0</text><text xml:space="preserve" font-family="MyriadPro-BoldCond,Myriad Pro" font-weight="bold" font-size="16.0" fill="#993300" transform="matrix(1.00, 0.00, -0.00, -1.00, 129.3, 2.2)">3</text><text xml:space="preserve" font-family="MyriadPro-BoldCond,Myriad Pro" font-weight="bold" font-size="16.0" fill="#993300" transform="matrix(1.00, 0.00, -0.00, -1.00, 136.1, 2.2)">-</text><text xml:space="preserve" font-family="MyriadPro-BoldCond,Myriad Pro" font-weight="bold" font-size="16.0" fill="#993300" transform="matrix(1.00, 0.00, -0.00, -1.00, 140.3, 2.2)">2</text><text xml:space="preserve" font-family="MyriadPro-BoldCond,Myriad Pro" font-weight="bold" font-size="16.0" fill="#993300" transform="matrix(1.00, 0.00, -0.00, -1.00, 147.1, 2.2)">5</text></g></svg>