<?xml version="1.0" encoding="UTF-8" standalone="no"?><svg xmlns="http://www.w3.org/2000/svg" xmlns:xlink="http://www.w3.org/1999/xlink" clip-rule="evenodd" stroke-miterlimit="10" viewBox="0 0 125 24"><desc>SVG generated by Keynote</desc><defs></defs><g transform="matrix(1.00, 0.00, -0.00, -1.00, 0.0, 24.0)"><text xml:space="preserve" font-family="MyriadPro-BlackCond,Myriad Pro" font-weight="bold" font-size="30.0" fill="#3B5898" transform="matrix(1.00, 0.00, -0.00, -1.00, 0.0, 1.5)">D</text><text xml:space="preserve" font-family="MyriadPro-BlackCond,Myriad Pro" font-weight="bold" font-size="30.0" fill="#3B5898" transform="matrix(1.00, 0.00, -0.00, -1.00, 15.6, 1.5)">a</text><text xml:space="preserve" font-family="MyriadPro-BlackCond,Myriad Pro" font-weight="bold" font-size="30.0" fill="#3B5898" transform="matrix(1.00, 0.00, -0.00, -1.00, 28.7, 1.5)">t</text><text xml:space="preserve" font-family="MyriadPro-BlackCond,Myriad Pro" font-weight="bold" font-size="30.0" fill="#3B5898" transform="matrix(1.00, 0.00, -0.00, -1.00, 38.8, 1.5)">a</text><text xml:space="preserve" font-family="MyriadPro-BlackCond,Myriad Pro" font-weight="bold" font-size="30.0" fill="#3B5898" transform="matrix(1.00, 0.00, -0.00, -1.00, 52.2, 1.5)"> </text><text xml:space="preserve" font-family="MyriadPro-BlackCond,Myriad Pro" font-weight="bold" font-size="30.0" fill="#3B5898" transform="matrix(1.00, 0.00, -0.00, -1.00, 57.0, 1.5)">M</text><text xml:space="preserve" font-family="MyriadPro-BlackCond,Myriad Pro" font-weight="bold" font-size="30.0" fill="#3B5898" transform="matrix(1.00, 0.00, -0.00, -1.00, 76.6, 1.5)">o</text><text xml:space="preserve" font-family="MyriadPro-BlackCond,Myriad Pro" font-weight="bold" font-size="30.0" fill="#3B5898" transform="matrix(1.00, 0.00, -0.00, -1.00, 90.2, 1.5)">d</text><text xml:space="preserve" font-family="MyriadPro-BlackCond,Myriad Pro" font-weight="bold" font-size="30.0" fill="#3B5898" transform="matrix(1.00, 0.00, -0.00, -1.00, 104.2, 1.5)">e</text><text xml:space="preserve" font-family="MyriadPro-BlackCond,Myriad Pro" font-weight="bold" font-size="30.0" fill="#3B5898" transform="matrix(1.00, 0.00, -0.00, -1.00, 117.5, 1.5)">l</text></g></svg>