<?xml version="1.0" encoding="UTF-8" standalone="no"?><svg xmlns="http://www.w3.org/2000/svg" xmlns:xlink="http://www.w3.org/1999/xlink" clip-rule="evenodd" stroke-miterlimit="10" viewBox="0 0 119 69"><desc>SVG generated by Keynote</desc><defs></defs><g transform="matrix(1.00, 0.00, -0.00, -1.00, 0.0, 69.0)"><text xml:space="preserve" font-family="MyriadPro-BoldCond,Myriad Pro" font-weight="bold" font-size="20.0" fill="#993300" transform="matrix(1.00, 0.00, -0.00, -1.00, 1.6, 54.0)">#</text><text xml:space="preserve" font-family="MyriadPro-BoldCond,Myriad Pro" font-weight="bold" font-size="20.0" fill="#993300" transform="matrix(1.00, 0.00, -0.00, -1.00, 10.1, 54.0)">B</text><text xml:space="preserve" font-family="MyriadPro-BoldCond,Myriad Pro" font-weight="bold" font-size="20.0" fill="#993300" transform="matrix(1.00, 0.00, -0.00, -1.00, 19.8, 54.0)">u</text><text xml:space="preserve" font-family="MyriadPro-BoldCond,Myriad Pro" font-weight="bold" font-size="20.0" fill="#993300" transform="matrix(1.00, 0.00, -0.00, -1.00, 28.8, 54.0)">c</text><text xml:space="preserve" font-family="MyriadPro-BoldCond,Myriad Pro" font-weight="bold" font-size="20.0" fill="#993300" transform="matrix(1.00, 0.00, -0.00, -1.00, 35.3, 54.0)">k</text><text xml:space="preserve" font-family="MyriadPro-BoldCond,Myriad Pro" font-weight="bold" font-size="20.0" fill="#993300" transform="matrix(1.00, 0.00, -0.00, -1.00, 43.3, 54.0)">e</text><text xml:space="preserve" font-family="MyriadPro-BoldCond,Myriad Pro" font-weight="bold" font-size="20.0" fill="#993300" transform="matrix(1.00, 0.00, -0.00, -1.00, 51.7, 54.0)">t</text><text xml:space="preserve" font-family="MyriadPro-BoldCond,Myriad Pro" font-weight="bold" font-size="20.0" fill="#993300" transform="matrix(1.00, 0.00, -0.00, -1.00, 57.9, 54.0)">s</text><text xml:space="preserve" font-family="MyriadPro-BoldCond,Myriad Pro" font-weight="bold" font-size="20.0" fill="#993300" transform="matrix(1.00, 0.00, -0.00, -1.00, 64.4, 54.0)">=</text><text xml:space="preserve" font-family="MyriadPro-BoldCond,Myriad Pro" font-weight="bold" font-size="20.0" fill="#993300" transform="matrix(1.00, 0.00, -0.00, -1.00, 76.3, 54.0)">3</text><text xml:space="preserve" font-family="MyriadPro-BoldCond,Myriad Pro" font-weight="bold" font-size="20.0" fill="#993300" transform="matrix(1.00, 0.00, -0.00, -1.00, 84.9, 54.0)">2</text><text xml:space="preserve" font-family="MyriadPro-BoldCond,Myriad Pro" font-weight="bold" font-size="20.0" fill="#993300" transform="matrix(1.00, 0.00, -0.00, -1.00, 93.4, 54.0)"> </text><text xml:space="preserve" font-family="MyriadPro-BoldCond,Myriad Pro" font-weight="bold" font-size="20.0" fill="#993300" transform="matrix(1.00, 0.00, -0.00, -1.00, 1.6, 30.0)">B</text><text xml:space="preserve" font-family="MyriadPro-BoldCond,Myriad Pro" font-weight="bold" font-size="20.0" fill="#993300" transform="matrix(1.00, 0.00, -0.00, -1.00, 11.3, 30.0)">u</text><text xml:space="preserve" font-family="MyriadPro-BoldCond,Myriad Pro" font-weight="bold" font-size="20.0" fill="#993300" transform="matrix(1.00, 0.00, -0.00, -1.00, 20.3, 30.0)">c</text><text xml:space="preserve" font-family="MyriadPro-BoldCond,Myriad Pro" font-weight="bold" font-size="20.0" fill="#993300" transform="matrix(1.00, 0.00, -0.00, -1.00, 26.8, 30.0)">k</text><text xml:space="preserve" font-family="MyriadPro-BoldCond,Myriad Pro" font-weight="bold" font-size="20.0" fill="#993300" transform="matrix(1.00, 0.00, -0.00, -1.00, 34.8, 30.0)">e</text><text xml:space="preserve" font-family="MyriadPro-BoldCond,Myriad Pro" font-weight="bold" font-size="20.0" fill="#993300" transform="matrix(1.00, 0.00, -0.00, -1.00, 43.2, 30.0)">t</text><text xml:space="preserve" font-family="MyriadPro-BoldCond,Myriad Pro" font-weight="bold" font-size="20.0" fill="#993300" transform="matrix(1.00, 0.00, -0.00, -1.00, 49.4, 30.0)">i</text><text xml:space="preserve" font-family="MyriadPro-BoldCond,Myriad Pro" font-weight="bold" font-size="20.0" fill="#993300" transform="matrix(1.00, 0.00, -0.00, -1.00, 53.9, 30.0)">n</text><text xml:space="preserve" font-family="MyriadPro-BoldCond,Myriad Pro" font-weight="bold" font-size="20.0" fill="#993300" transform="matrix(1.00, 0.00, -0.00, -1.00, 63.0, 30.0)">g</text><text xml:space="preserve" font-family="MyriadPro-BoldCond,Myriad Pro" font-weight="bold" font-size="20.0" fill="#993300" transform="matrix(1.00, 0.00, -0.00, -1.00, 72.0, 30.0)"> </text><text xml:space="preserve" font-family="MyriadPro-BoldCond,Myriad Pro" font-weight="bold" font-size="20.0" fill="#993300" transform="matrix(1.00, 0.00, -0.00, -1.00, 75.2, 30.0)">I</text><text xml:space="preserve" font-family="MyriadPro-BoldCond,Myriad Pro" font-weight="bold" font-size="20.0" fill="#993300" transform="matrix(1.00, 0.00, -0.00, -1.00, 80.1, 30.0)">n</text><text xml:space="preserve" font-family="MyriadPro-BoldCond,Myriad Pro" font-weight="bold" font-size="20.0" fill="#993300" transform="matrix(1.00, 0.00, -0.00, -1.00, 89.3, 30.0)">f</text><text xml:space="preserve" font-family="MyriadPro-BoldCond,Myriad Pro" font-weight="bold" font-size="20.0" fill="#993300" transform="matrix(1.00, 0.00, -0.00, -1.00, 94.8, 30.0)">o</text><text xml:space="preserve" font-family="MyriadPro-BoldCond,Myriad Pro" font-weight="bold" font-size="20.0" fill="#993300" transform="matrix(1.00, 0.00, -0.00, -1.00, 103.5, 30.0)"> </text><text xml:space="preserve" font-family="MyriadPro-BoldCond,Myriad Pro" font-weight="bold" font-size="20.0" fill="#993300" transform="matrix(1.00, 0.00, -0.00, -1.00, 1.6, 6.0)">P</text><text xml:space="preserve" font-family="MyriadPro-BoldCond,Myriad Pro" font-weight="bold" font-size="20.0" fill="#993300" transform="matrix(1.00, 0.00, -0.00, -1.00, 10.5, 6.0)">a</text><text xml:space="preserve" font-family="MyriadPro-BoldCond,Myriad Pro" font-weight="bold" font-size="20.0" fill="#993300" transform="matrix(1.00, 0.00, -0.00, -1.00, 18.9, 6.0)">r</text><text xml:space="preserve" font-family="MyriadPro-BoldCond,Myriad Pro" font-weight="bold" font-size="20.0" fill="#993300" transform="matrix(1.00, 0.00, -0.00, -1.00, 25.1, 6.0)">t</text><text xml:space="preserve" font-family="MyriadPro-BoldCond,Myriad Pro" font-weight="bold" font-size="20.0" fill="#993300" transform="matrix(1.00, 0.00, -0.00, -1.00, 31.4, 6.0)">i</text><text xml:space="preserve" font-family="MyriadPro-BoldCond,Myriad Pro" font-weight="bold" font-size="20.0" fill="#993300" transform="matrix(1.00, 0.00, -0.00, -1.00, 35.8, 6.0)">t</text><text xml:space="preserve" font-family="MyriadPro-BoldCond,Myriad Pro" font-weight="bold" font-size="20.0" fill="#993300" transform="matrix(1.00, 0.00, -0.00, -1.00, 42.0, 6.0)">i</text><text xml:space="preserve" font-family="MyriadPro-BoldCond,Myriad Pro" font-weight="bold" font-size="20.0" fill="#993300" transform="matrix(1.00, 0.00, -0.00, -1.00, 46.5, 6.0)">o</text><text xml:space="preserve" font-family="MyriadPro-BoldCond,Myriad Pro" font-weight="bold" font-size="20.0" fill="#993300" transform="matrix(1.00, 0.00, -0.00, -1.00, 55.1, 6.0)">n</text><text xml:space="preserve" font-family="MyriadPro-BoldCond,Myriad Pro" font-weight="bold" font-size="20.0" fill="#993300" transform="matrix(1.00, 0.00, -0.00, -1.00, 64.3, 6.0)">i</text><text xml:space="preserve" font-family="MyriadPro-BoldCond,Myriad Pro" font-weight="bold" font-size="20.0" fill="#993300" transform="matrix(1.00, 0.00, -0.00, -1.00, 68.7, 6.0)">n</text><text xml:space="preserve" font-family="MyriadPro-BoldCond,Myriad Pro" font-weight="bold" font-size="20.0" fill="#993300" transform="matrix(1.00, 0.00, -0.00, -1.00, 77.9, 6.0)">g</text><text xml:space="preserve" font-family="MyriadPro-BoldCond,Myriad Pro" font-weight="bold" font-size="20.0" fill="#993300" transform="matrix(1.00, 0.00, -0.00, -1.00, 86.8, 6.0)"> </text><text xml:space="preserve" font-family="MyriadPro-BoldCond,Myriad Pro" font-weight="bold" font-size="20.0" fill="#993300" transform="matrix(1.00, 0.00, -0.00, -1.00, 90.0, 6.0)">C</text><text xml:space="preserve" font-family="MyriadPro-BoldCond,Myriad Pro" font-weight="bold" font-size="20.0" fill="#993300" transform="matrix(1.00, 0.00, -0.00, -1.00, 97.8, 6.0)">o</text><text xml:space="preserve" font-family="MyriadPro-BoldCond,Myriad Pro" font-weight="bold" font-size="20.0" fill="#993300" transform="matrix(1.00, 0.00, -0.00, -1.00, 106.4, 6.0)">l</text><text xml:space="preserve" font-family="MyriadPro-BoldCond,Myriad Pro" font-weight="bold" font-size="20.0" fill="#993300" transform="matrix(1.00, 0.00, -0.00, -1.00, 110.9, 6.0)">s</text></g></svg>