<?xml version="1.0" encoding="UTF-8" standalone="no"?><svg xmlns="http://www.w3.org/2000/svg" xmlns:xlink="http://www.w3.org/1999/xlink" clip-rule="evenodd" stroke-miterlimit="10" viewBox="0 0 720 540"><desc>SVG generated by Keynote</desc><defs></defs><g transform="matrix(1.00, 0.00, -0.00, -1.00, 0.0, 540.0)"><path d="M 0.0 540.0 L 720.0 540.0 L 720.0 0.0 L 0.0 0.0 Z M 0.0 540.0 " fill="#FFFFFF"></path><path d="M 0.0 210.0 L 720.0 210.0 L 720.0 438.0 L 0.0 438.0 Z M -0.0 210.0 " fill="#F7F7F7"></path><g><clipPath id="clip0x6000006b7280"><path d="M 20.7 518.2 L 581.7 518.2 L 581.7 466.2 L 20.7 466.2 Z M 20.7 518.2 "></path></clipPath><g clip-path="url(#clip0x6000006b7280)"><g><clipPath id="clip0x6000006a3540"><path d="M 20.7 518.2 L 20.7 518.2 L 20.7 464.8 L 583.0 464.8 L 583.0 518.2 "></path></clipPath><g clip-path="url(#clip0x6000006a3540)"><g><clipPath id="clip0x6000006a3300"><path d="M 20.7 518.2 L 581.7 518.2 L 581.7 466.2 L 20.7 466.2 Z M 20.7 518.2 "></path></clipPath><g clip-path="url(#clip0x6000006a3300)"><g><clipPath id="clip0x6000006a3000"><path d="M 20.7 466.2 L 581.7 466.2 L 581.7 518.2 L 20.7 518.2 Z M 20.7 466.2 "></path></clipPath><g clip-path="url(#clip0x6000006a3000)"><path d="M 243.9 516.3 L 243.9 516.3 L 262.4 516.3 L 262.4 469.2 L 243.9 469.2 L 243.9 516.3 Z M 243.9 516.3 " fill="#1B63AA"></path><path d="M 93.9 516.3 L 93.9 516.3 L 93.9 506.4 L 115.5 506.4 L 115.5 469.2 L 134.1 469.2 L 134.1 506.4 L 155.6 506.4 L 155.6 516.3 L 93.9 516.3 Z M 93.9 516.3 " fill="#1B63AA"></path><path d="M 83.0 506.4 L 83.0 506.4 L 83.0 516.3 L 22.6 516.3 L 22.6 478.2 C 22.6 473.2 26.6 469.2 31.5 469.2 L 83.0 469.2 L 83.0 479.1 L 41.1 479.1 L 41.1 487.8 L 83.0 487.8 L 83.0 497.7 L 41.1 497.7 L 41.1 506.4 L 83.0 506.4 Z M 83.0 506.4 " fill="#1B63AA"></path><path d="M 211.4 491.2 L 211.4 491.2 L 189.6 491.2 L 214.6 466.0 L 236.4 466.0 L 211.4 491.2 Z M 211.4 491.2 " fill="#F0471D"></path><path d="M 221.1 516.3 L 221.1 516.3 L 164.9 516.3 L 164.9 469.2 L 183.5 469.2 L 183.5 506.4 L 211.4 506.4 L 211.4 491.2 L 229.9 491.2 L 229.9 507.3 C 229.9 512.3 225.9 516.3 221.1 516.3 Z M 221.1 516.3 " fill="#F0471D"></path><path d="M 280.6 505.7 L 280.6 505.7 L 288.0 505.7 L 288.0 503.4 L 283.1 503.4 L 283.1 499.9 L 287.6 499.9 L 287.6 497.6 L 283.1 497.6 L 283.1 493.5 L 288.1 493.5 L 288.1 491.2 L 280.6 491.2 L 280.6 505.7 Z M 280.6 505.7 " fill="#1B63AA"></path><path d="M 290.5 506.8 L 290.5 506.8 L 292.9 506.8 L 292.9 491.2 L 290.5 491.2 L 290.5 506.8 Z M 290.5 506.8 " fill="#1B63AA"></path><path d="M 297.1 497.6 L 297.1 497.6 C 297.2 499.1 297.9 500.2 299.3 500.2 C 300.6 500.2 301.1 499.0 301.2 497.6 L 297.1 497.6 Z M 302.9 494.1 L 302.9 494.1 C 302.0 493.5 300.9 493.1 299.8 493.1 C 298.3 493.1 297.2 494.0 297.1 495.7 L 303.5 495.7 C 303.5 499.5 302.6 502.2 299.1 502.2 C 296.3 502.2 294.8 499.6 294.8 496.6 C 294.8 493.1 296.6 491.0 299.6 491.0 C 300.9 491.0 302.0 491.3 302.9 491.8 L 302.9 494.1 Z M 302.9 494.1 " fill="#1B63AA"></path><path d="M 311.4 499.6 L 311.4 499.6 C 311.0 499.9 310.5 500.0 309.8 500.0 C 308.3 500.0 307.3 498.6 307.3 496.7 C 307.3 494.7 308.1 493.1 309.9 493.1 C 310.5 493.1 311.3 493.4 311.7 493.7 L 311.8 491.4 C 311.1 491.1 310.4 491.0 309.4 491.0 C 306.3 491.0 304.8 493.4 304.8 496.7 C 304.8 499.8 306.4 502.2 309.3 502.2 C 310.2 502.2 311.0 502.1 311.7 501.8 L 311.4 499.6 Z M 311.4 499.6 " fill="#1B63AA"></path><path d="M 314.2 499.9 L 314.2 499.9 L 312.4 499.9 L 312.4 501.9 L 314.2 501.9 L 314.2 504.1 L 316.6 505.0 L 316.6 501.9 L 318.7 501.9 L 318.7 499.9 L 316.6 499.9 L 316.6 494.9 C 316.6 494.0 316.8 493.1 317.7 493.1 C 318.2 493.1 318.6 493.3 318.8 493.4 L 318.9 491.2 C 318.4 491.1 317.8 491.0 317.1 491.0 C 315.3 491.0 314.2 492.4 314.2 494.4 L 314.2 499.9 Z M 314.2 499.9 " fill="#1B63AA"></path><path d="M 320.4 501.9 L 320.4 501.9 L 322.6 501.9 L 322.6 499.6 L 322.6 499.6 C 322.7 500.5 323.8 502.2 325.2 502.2 C 325.4 502.2 325.6 502.2 325.9 502.1 L 325.9 499.3 C 325.7 499.5 325.3 499.6 324.8 499.6 C 322.9 499.6 322.9 496.7 322.9 495.2 L 322.9 491.2 L 320.4 491.2 L 320.4 501.9 Z M 320.4 501.9 " fill="#1B63AA"></path><path d="M 329.0 496.9 L 329.0 496.9 C 329.0 498.5 329.8 500.0 331.3 500.0 C 332.9 500.0 333.7 498.5 333.7 496.9 C 333.7 495.1 333.1 493.1 331.3 493.1 C 329.5 493.1 329.0 495.1 329.0 496.9 Z M 326.5 496.5 L 326.5 496.5 C 326.5 493.4 328.3 491.0 331.3 491.0 C 334.4 491.0 336.2 493.4 336.2 496.5 C 336.2 500.1 334.0 502.2 331.3 502.2 C 328.6 502.2 326.5 500.1 326.5 496.5 Z M 326.5 496.5 " fill="#1B63AA"></path><path d="M 338.0 501.9 L 338.0 501.9 L 340.4 501.9 L 340.4 500.5 L 340.4 500.5 C 341.1 501.7 342.2 502.2 343.4 502.2 C 345.6 502.2 346.6 500.4 346.6 498.0 L 346.6 491.2 L 344.2 491.2 L 344.2 497.0 C 344.2 498.3 344.1 500.0 342.6 500.0 C 340.9 500.0 340.5 497.9 340.5 496.5 L 340.5 491.2 L 338.0 491.2 L 338.0 501.9 Z M 338.0 501.9 " fill="#1B63AA"></path><path d="M 349.1 501.9 L 349.1 501.9 L 351.6 501.9 L 351.6 491.2 L 349.1 491.2 L 349.1 501.9 Z M 349.1 506.6 L 349.1 506.6 L 351.6 506.6 L 351.6 503.9 L 349.1 503.9 L 349.1 506.6 Z M 349.1 506.6 " fill="#1B63AA"></path><path d="M 360.0 499.6 L 360.0 499.6 C 359.7 499.9 359.1 500.0 358.5 500.0 C 357.0 500.0 356.0 498.6 356.0 496.7 C 356.0 494.7 356.8 493.1 358.5 493.1 C 359.1 493.1 359.9 493.4 360.3 493.7 L 360.4 491.4 C 359.7 491.1 359.0 491.0 358.0 491.0 C 355.0 491.0 353.4 493.4 353.4 496.7 C 353.4 499.8 355.1 502.2 357.9 502.2 C 358.9 502.2 359.6 502.1 360.3 501.8 L 360.0 499.6 Z M 360.0 499.6 " fill="#1B63AA"></path><path d="M 367.6 499.7 L 367.6 499.7 C 366.8 500.0 366.3 500.2 365.4 500.2 C 364.8 500.2 363.9 499.9 363.9 499.0 C 363.9 497.3 368.2 498.3 368.2 494.5 C 368.2 492.0 366.2 491.0 364.2 491.0 C 363.3 491.0 362.4 491.2 361.5 491.5 L 361.7 493.8 C 362.4 493.3 363.3 493.1 364.1 493.1 C 364.7 493.1 365.7 493.3 365.7 494.4 C 365.7 496.4 361.5 495.1 361.5 498.9 C 361.5 501.2 363.2 502.2 365.1 502.2 C 366.2 502.2 367.0 502.0 367.7 501.8 L 367.6 499.7 Z M 367.6 499.7 " fill="#1B63AA"></path><path d="M 376.7 494.4 L 376.7 494.4 C 376.7 496.0 378.4 496.2 379.4 496.2 L 380.5 496.2 C 380.5 495.4 380.3 494.6 380.0 494.0 C 379.6 493.4 379.0 493.1 378.3 493.1 C 377.4 493.1 376.7 493.4 376.7 494.4 Z M 375.5 499.0 L 375.5 499.0 C 376.3 499.7 377.4 500.2 378.4 500.2 C 379.8 500.2 380.5 499.6 380.5 497.9 L 379.1 497.9 C 378.1 497.9 376.9 497.7 376.0 497.3 C 375.1 496.7 374.5 495.8 374.5 494.2 C 374.5 492.1 376.0 491.0 377.7 491.0 C 378.7 491.0 380.0 491.7 380.6 492.8 L 380.6 492.8 C 380.6 492.5 380.6 491.8 380.7 491.2 L 382.8 491.2 C 382.7 492.1 382.7 492.8 382.7 493.7 C 382.7 494.4 382.7 495.3 382.7 496.3 L 382.7 497.7 C 382.7 500.9 381.5 502.2 378.7 502.2 C 377.6 502.2 376.4 501.9 375.4 501.4 L 375.5 499.0 Z M 375.5 499.0 " fill="#1B63AA"></path><path d="M 385.1 501.9 L 385.1 501.9 L 387.3 501.9 L 387.3 500.5 L 387.4 500.5 C 388.1 501.7 389.1 502.2 390.4 502.2 C 392.6 502.2 393.5 500.4 393.5 498.0 L 393.5 491.2 L 391.1 491.2 L 391.1 497.0 C 391.1 498.3 391.1 500.0 389.6 500.0 C 387.8 500.0 387.5 497.9 387.5 496.5 L 387.5 491.2 L 385.1 491.2 L 385.1 501.9 Z M 385.1 501.9 " fill="#1B63AA"></path><path d="M 398.0 496.7 L 398.0 496.7 C 398.0 498.1 398.4 500.0 399.9 500.0 C 401.5 500.0 402.1 498.1 402.1 496.7 C 402.1 495.1 401.6 493.1 400.0 493.1 C 398.4 493.1 398.0 495.1 398.0 496.7 Z M 402.2 491.2 L 402.2 491.2 L 404.5 491.2 L 404.5 506.8 L 402.1 506.8 L 402.1 500.7 L 402.1 500.7 C 401.4 501.7 400.5 502.2 399.3 502.2 C 396.5 502.2 395.4 499.6 395.4 496.7 C 395.4 493.7 396.5 491.0 399.3 491.0 C 400.5 491.0 401.4 491.4 402.2 492.5 L 402.2 492.5 L 402.2 491.2 Z M 402.2 491.2 " fill="#1B63AA"></path><path d="M 414.5 503.4 L 414.5 503.4 L 410.9 503.4 L 410.9 505.7 L 420.7 505.7 L 420.7 503.4 L 417.1 503.4 L 417.1 491.2 L 414.5 491.2 L 414.5 503.4 Z M 414.5 503.4 " fill="#1B63AA"></path><path d="M 421.7 497.6 L 421.7 497.6 C 421.9 499.1 422.5 500.2 423.9 500.2 C 425.3 500.2 425.8 499.0 425.9 497.6 L 421.7 497.6 Z M 427.4 494.1 L 427.4 494.1 C 426.6 493.5 425.6 493.1 424.4 493.1 C 422.9 493.1 421.9 494.0 421.7 495.7 L 428.2 495.7 C 428.2 499.5 427.2 502.2 423.8 502.2 C 420.9 502.2 419.5 499.6 419.5 496.6 C 419.5 493.1 421.2 491.0 424.3 491.0 C 425.6 491.0 426.6 491.3 427.4 491.8 L 427.4 494.1 Z M 427.4 494.1 " fill="#1B63AA"></path><path d="M 430.1 506.8 L 430.1 506.8 L 432.5 506.8 L 432.5 491.2 L 430.1 491.2 L 430.1 506.8 Z M 430.1 506.8 " fill="#1B63AA"></path><path d="M 436.7 497.6 L 436.7 497.6 C 436.8 499.1 437.6 500.2 438.9 500.2 C 440.3 500.2 440.8 499.0 440.9 497.6 L 436.7 497.6 Z M 442.5 494.1 L 442.5 494.1 C 441.6 493.5 440.6 493.1 439.4 493.1 C 437.9 493.1 436.8 494.0 436.7 495.7 L 443.1 495.7 C 443.1 499.5 442.2 502.2 438.8 502.2 C 435.8 502.2 434.4 499.6 434.4 496.6 C 434.4 493.1 436.2 491.0 439.3 491.0 C 440.6 491.0 441.6 491.3 442.5 491.8 L 442.5 494.1 Z M 442.5 494.1 " fill="#1B63AA"></path><path d="M 451.0 499.6 L 451.0 499.6 C 450.6 499.9 450.1 500.0 449.4 500.0 C 447.9 500.0 447.0 498.6 447.0 496.7 C 447.0 494.7 447.8 493.1 449.4 493.1 C 450.1 493.1 450.9 493.4 451.3 493.7 L 451.4 491.4 C 450.7 491.1 450.0 491.0 449.0 491.0 C 446.0 491.0 444.5 493.4 444.5 496.7 C 444.5 499.8 446.1 502.2 448.9 502.2 C 449.9 502.2 450.6 502.1 451.2 501.8 L 451.0 499.6 Z M 451.0 499.6 " fill="#1B63AA"></path><path d="M 454.9 496.9 L 454.9 496.9 C 454.9 498.5 455.7 500.0 457.3 500.0 C 458.8 500.0 459.6 498.5 459.6 496.9 C 459.6 495.1 459.1 493.1 457.3 493.1 C 455.5 493.1 454.9 495.1 454.9 496.9 Z M 452.5 496.5 L 452.5 496.5 C 452.5 493.4 454.3 491.0 457.3 491.0 C 460.3 491.0 462.1 493.4 462.1 496.5 C 462.1 500.1 460.0 502.2 457.3 502.2 C 454.6 502.2 452.5 500.1 452.5 496.5 Z M 452.5 496.5 " fill="#1B63AA"></path><path d="M 464.0 501.9 L 464.0 501.9 L 466.3 501.9 L 466.3 500.5 L 466.3 500.5 C 467.0 501.8 468.2 502.2 469.1 502.2 C 470.3 502.2 471.2 501.6 471.8 500.3 C 472.4 501.6 473.6 502.2 474.7 502.2 C 476.9 502.2 477.6 500.4 477.6 498.0 L 477.6 491.2 L 475.2 491.2 L 475.2 497.6 C 475.2 498.6 475.2 500.0 473.8 500.0 C 472.2 500.0 472.0 497.9 472.0 496.4 L 472.0 491.2 L 469.6 491.2 L 469.6 497.6 C 469.6 498.6 469.6 500.0 468.2 500.0 C 466.6 500.0 466.4 497.9 466.4 496.4 L 466.4 491.2 L 464.0 491.2 L 464.0 501.9 Z M 464.0 501.9 " fill="#1B63AA"></path><path d="M 480.0 501.9 L 480.0 501.9 L 482.2 501.9 L 482.2 500.5 L 482.3 500.5 C 483.0 501.8 484.2 502.2 485.1 502.2 C 486.3 502.2 487.2 501.6 487.8 500.3 C 488.3 501.6 489.5 502.2 490.7 502.2 C 492.9 502.2 493.6 500.4 493.6 498.0 L 493.6 491.2 L 491.1 491.2 L 491.1 497.6 C 491.1 498.6 491.1 500.0 489.8 500.0 C 488.2 500.0 488.0 497.9 488.0 496.4 L 488.0 491.2 L 485.6 491.2 L 485.6 497.6 C 485.6 498.6 485.6 500.0 484.2 500.0 C 482.6 500.0 482.4 497.9 482.4 496.4 L 482.4 491.2 L 480.0 491.2 L 480.0 501.9 Z M 480.0 501.9 " fill="#1B63AA"></path><path d="M 504.5 491.2 L 504.5 491.2 L 502.3 491.2 L 502.3 492.7 L 502.2 492.7 C 501.4 491.7 500.5 491.0 499.2 491.0 C 497.0 491.0 496.0 492.8 496.0 495.2 L 496.0 501.9 L 498.4 501.9 L 498.4 496.3 C 498.4 494.9 498.4 493.1 500.0 493.1 C 501.7 493.1 502.1 495.4 502.1 496.7 L 502.1 501.9 L 504.5 501.9 L 504.5 491.2 Z M 504.5 491.2 " fill="#1B63AA"></path><path d="M 507.0 501.9 L 507.0 501.9 L 509.3 501.9 L 509.3 500.5 L 509.3 500.5 C 510.1 501.7 511.1 502.2 512.4 502.2 C 514.6 502.2 515.5 500.4 515.5 498.0 L 515.5 491.2 L 513.1 491.2 L 513.1 497.0 C 513.1 498.3 513.1 500.0 511.6 500.0 C 509.8 500.0 509.4 497.9 509.4 496.5 L 509.4 491.2 L 507.0 491.2 L 507.0 501.9 Z M 507.0 501.9 " fill="#1B63AA"></path><path d="M 518.0 501.9 L 518.0 501.9 L 520.4 501.9 L 520.4 491.2 L 518.0 491.2 L 518.0 501.9 Z M 518.0 506.6 L 518.0 506.6 L 520.4 506.6 L 520.4 503.9 L 518.0 503.9 L 518.0 506.6 Z M 518.0 506.6 " fill="#1B63AA"></path><path d="M 529.0 499.6 L 529.0 499.6 C 528.6 499.9 528.1 500.0 527.4 500.0 C 525.9 500.0 525.0 498.6 525.0 496.7 C 525.0 494.7 525.7 493.1 527.4 493.1 C 528.1 493.1 528.9 493.4 529.3 493.7 L 529.4 491.4 C 528.7 491.1 528.0 491.0 527.0 491.0 C 524.0 491.0 522.4 493.4 522.4 496.7 C 522.4 499.8 524.0 502.2 526.9 502.2 C 527.9 502.2 528.6 502.1 529.2 501.8 L 529.0 499.6 Z M 529.0 499.6 " fill="#1B63AA"></path><path d="M 532.7 494.4 L 532.7 494.4 C 532.7 496.0 534.3 496.2 535.4 496.2 L 536.4 496.2 C 536.4 495.4 536.3 494.6 535.9 494.0 C 535.5 493.4 534.9 493.1 534.3 493.1 C 533.4 493.1 532.7 493.4 532.7 494.4 Z M 531.5 499.0 L 531.5 499.0 C 532.3 499.7 533.3 500.2 534.3 500.2 C 535.8 500.2 536.4 499.6 536.4 497.9 L 535.1 497.9 C 534.1 497.9 532.9 497.7 532.0 497.3 C 531.0 496.7 530.4 495.8 530.4 494.2 C 530.4 492.1 532.0 491.0 533.7 491.0 C 534.7 491.0 535.9 491.7 536.5 492.8 L 536.5 492.8 C 536.5 492.5 536.5 491.8 536.7 491.2 L 538.8 491.2 C 538.7 492.1 538.7 492.8 538.6 493.7 C 538.6 494.4 538.6 495.3 538.6 496.3 L 538.6 497.7 C 538.6 500.9 537.4 502.2 534.6 502.2 C 533.6 502.2 532.3 501.9 531.4 501.4 L 531.5 499.0 Z M 531.5 499.0 " fill="#1B63AA"></path><path d="M 541.8 499.9 L 541.8 499.9 L 540.0 499.9 L 540.0 501.9 L 541.8 501.9 L 541.8 504.1 L 544.2 505.0 L 544.2 501.9 L 546.4 501.9 L 546.4 499.9 L 544.2 499.9 L 544.2 494.9 C 544.2 494.0 544.4 493.1 545.3 493.1 C 545.8 493.1 546.2 493.3 546.4 493.4 L 546.5 491.2 C 546.0 491.1 545.5 491.0 544.7 491.0 C 542.8 491.0 541.8 492.4 541.8 494.4 L 541.8 499.9 Z M 541.8 499.9 " fill="#1B63AA"></path><path d="M 548.0 501.9 L 548.0 501.9 L 550.5 501.9 L 550.5 491.2 L 548.0 491.2 L 548.0 501.9 Z M 548.0 506.6 L 548.0 506.6 L 550.5 506.6 L 550.5 503.9 L 548.0 503.9 L 548.0 506.6 Z M 548.0 506.6 " fill="#1B63AA"></path><path d="M 554.9 496.9 L 554.9 496.9 C 554.9 498.5 555.7 500.0 557.3 500.0 C 558.8 500.0 559.6 498.5 559.6 496.9 C 559.6 495.1 559.1 493.1 557.3 493.1 C 555.4 493.1 554.9 495.1 554.9 496.9 Z M 552.4 496.5 L 552.4 496.5 C 552.4 493.4 554.2 491.0 557.3 491.0 C 560.3 491.0 562.1 493.4 562.1 496.5 C 562.1 500.1 560.0 502.2 557.3 502.2 C 554.5 502.2 552.4 500.1 552.4 496.5 Z M 552.4 496.5 " fill="#1B63AA"></path><path d="M 564.0 501.9 L 564.0 501.9 L 566.3 501.9 L 566.3 500.5 L 566.3 500.5 C 567.1 501.7 568.1 502.2 569.4 502.2 C 571.5 502.2 572.5 500.4 572.5 498.0 L 572.5 491.2 L 570.1 491.2 L 570.1 497.0 C 570.1 498.3 570.1 500.0 568.5 500.0 C 566.8 500.0 566.4 497.9 566.4 496.5 L 566.4 491.2 L 564.0 491.2 L 564.0 501.9 Z M 564.0 501.9 " fill="#1B63AA"></path><path d="M 580.5 499.7 L 580.5 499.7 C 579.7 500.0 579.2 500.2 578.3 500.2 C 577.7 500.2 576.9 499.9 576.9 499.0 C 576.9 497.3 581.1 498.3 581.1 494.5 C 581.1 492.0 579.2 491.0 577.2 491.0 C 576.3 491.0 575.4 491.2 574.5 491.5 L 574.6 493.8 C 575.4 493.3 576.2 493.1 577.0 493.1 C 577.6 493.1 578.6 493.3 578.6 494.4 C 578.6 496.4 574.4 495.1 574.4 498.9 C 574.4 501.2 576.1 502.2 578.0 502.2 C 579.1 502.2 579.9 502.0 580.6 501.8 L 580.5 499.7 Z M 580.5 499.7 " fill="#1B63AA"></path><path d="M 282.9 481.4 L 282.9 481.4 L 283.7 481.4 C 285.0 481.4 286.4 481.2 286.4 479.6 C 286.4 477.7 285.0 477.5 283.7 477.5 L 282.9 477.5 L 282.9 481.4 Z M 280.4 469.2 L 280.4 469.2 L 282.9 469.2 L 282.9 475.2 L 283.7 475.2 C 284.8 475.2 285.1 474.8 285.4 473.8 L 287.0 469.2 L 289.8 469.2 L 287.8 474.9 C 287.5 475.5 287.1 476.3 286.4 476.4 L 286.4 476.4 C 288.1 476.7 289.0 478.0 289.0 479.8 C 289.0 483.8 285.8 483.7 283.1 483.7 L 280.4 483.7 L 280.4 469.2 Z M 280.4 469.2 " fill="#1B63AA"></path><path d="M 293.1 475.6 L 293.1 475.6 C 293.2 477.0 293.9 478.1 295.3 478.1 C 296.6 478.1 297.2 477.0 297.2 475.6 L 293.1 475.6 Z M 298.8 472.1 L 298.8 472.1 C 297.9 471.5 296.9 471.0 295.7 471.0 C 294.2 471.0 293.2 471.9 293.1 473.7 L 299.5 473.7 C 299.5 477.4 298.5 480.2 295.1 480.2 C 292.2 480.2 290.8 477.6 290.8 474.5 C 290.8 471.0 292.6 468.9 295.7 468.9 C 296.9 468.9 297.9 469.3 298.8 469.8 L 298.8 472.1 Z M 298.8 472.1 " fill="#1B63AA"></path><path d="M 306.9 477.6 L 306.9 477.6 C 306.2 478.0 305.6 478.1 304.7 478.1 C 304.1 478.1 303.3 477.8 303.3 476.9 C 303.3 475.2 307.5 476.3 307.5 472.5 C 307.5 469.9 305.6 468.9 303.6 468.9 C 302.7 468.9 301.7 469.1 300.9 469.4 L 301.1 471.7 C 301.8 471.2 302.6 471.0 303.4 471.0 C 304.0 471.0 305.0 471.2 305.0 472.3 C 305.0 474.4 300.8 473.0 300.8 476.8 C 300.8 479.1 302.6 480.2 304.4 480.2 C 305.6 480.2 306.3 479.9 307.1 479.8 L 306.9 477.6 Z M 306.9 477.6 " fill="#1B63AA"></path><path d="M 311.1 475.6 L 311.1 475.6 C 311.2 477.0 311.9 478.1 313.2 478.1 C 314.6 478.1 315.1 477.0 315.2 475.6 L 311.1 475.6 Z M 316.8 472.1 L 316.8 472.1 C 315.9 471.5 314.9 471.0 313.8 471.0 C 312.3 471.0 311.2 471.9 311.1 473.7 L 317.5 473.7 C 317.5 477.4 316.5 480.2 313.1 480.2 C 310.2 480.2 308.8 477.6 308.8 474.5 C 308.8 471.0 310.6 468.9 313.6 468.9 C 314.9 468.9 315.9 469.3 316.8 469.8 L 316.8 472.1 Z M 316.8 472.1 " fill="#1B63AA"></path><path d="M 321.1 472.3 L 321.1 472.3 C 321.1 473.9 322.7 474.1 323.8 474.1 L 324.8 474.1 C 324.8 473.3 324.7 472.5 324.3 471.9 C 323.9 471.4 323.4 471.0 322.6 471.0 C 321.7 471.0 321.1 471.4 321.1 472.3 Z M 319.8 477.0 L 319.8 477.0 C 320.7 477.6 321.7 478.1 322.7 478.1 C 324.1 478.1 324.8 477.5 324.8 475.8 L 323.5 475.8 C 322.5 475.8 321.3 475.7 320.4 475.2 C 319.5 474.7 318.8 473.8 318.8 472.2 C 318.8 470.1 320.4 468.9 322.0 468.9 C 323.2 468.9 324.4 469.6 324.9 470.8 L 325.0 470.8 C 325.0 470.5 325.0 469.8 325.0 469.2 L 327.1 469.2 C 327.1 470.0 327.1 470.8 327.1 471.6 C 327.1 472.4 327.0 473.2 327.0 474.3 L 327.0 475.7 C 327.0 478.8 325.9 480.2 323.0 480.2 C 322.0 480.2 320.7 479.9 319.8 479.3 L 319.8 477.0 Z M 319.8 477.0 " fill="#1B63AA"></path><path d="M 329.5 479.9 L 329.5 479.9 L 331.6 479.9 L 331.6 477.5 L 331.6 477.5 C 331.7 478.5 332.7 480.2 334.1 480.2 C 334.4 480.2 334.6 480.2 334.9 480.1 L 334.9 477.3 C 334.6 477.4 334.3 477.5 333.8 477.5 C 331.9 477.5 331.9 474.7 331.9 473.1 L 331.9 469.2 L 329.5 469.2 L 329.5 479.9 Z M 329.5 479.9 " fill="#1B63AA"></path><path d="M 342.1 477.6 L 342.1 477.6 C 341.6 477.8 341.2 478.0 340.4 478.0 C 338.9 478.0 338.0 476.6 338.0 474.6 C 338.0 472.6 338.8 471.1 340.5 471.1 C 341.2 471.1 341.9 471.4 342.3 471.6 L 342.5 469.3 C 341.8 469.0 341.0 468.9 340.1 468.9 C 337.0 468.9 335.5 471.3 335.5 474.6 C 335.5 477.7 337.1 480.2 340.0 480.2 C 341.0 480.2 341.6 480.0 342.3 479.8 L 342.1 477.6 Z M 342.1 477.6 " fill="#1B63AA"></path><path d="M 344.0 484.7 L 344.0 484.7 L 346.4 484.7 L 346.4 478.4 L 346.5 478.4 C 347.1 479.5 348.2 480.2 349.4 480.2 C 351.6 480.2 352.5 478.3 352.5 476.0 L 352.5 469.2 L 350.1 469.2 L 350.1 474.9 C 350.1 476.2 350.1 478.0 348.6 478.0 C 346.8 478.0 346.4 475.8 346.4 474.4 L 346.4 469.2 L 344.0 469.2 L 344.0 484.7 Z M 344.0 484.7 " fill="#1B63AA"></path><path d="M 360.0 483.7 L 360.0 483.7 L 362.6 483.7 L 362.6 469.2 L 360.0 469.2 L 360.0 483.7 Z M 360.0 483.7 " fill="#1B63AA"></path><path d="M 365.1 479.9 L 365.1 479.9 L 367.3 479.9 L 367.3 478.4 L 367.4 478.4 C 368.2 479.6 369.1 480.2 370.4 480.2 C 372.6 480.2 373.6 478.3 373.6 476.0 L 373.6 469.2 L 371.2 469.2 L 371.2 474.9 C 371.2 476.2 371.2 478.0 369.6 478.0 C 367.9 478.0 367.5 475.8 367.5 474.4 L 367.5 469.2 L 365.1 469.2 L 365.1 479.9 Z M 365.1 479.9 " fill="#1B63AA"></path><path d="M 381.5 477.6 L 381.5 477.6 C 380.8 478.0 380.3 478.1 379.4 478.1 C 378.7 478.1 378.0 477.8 378.0 476.9 C 378.0 475.2 382.1 476.3 382.1 472.5 C 382.1 469.9 380.3 468.9 378.3 468.9 C 377.4 468.9 376.4 469.1 375.5 469.4 L 375.7 471.7 C 376.4 471.2 377.2 471.0 378.1 471.0 C 378.7 471.0 379.7 471.2 379.7 472.3 C 379.7 474.4 375.4 473.0 375.4 476.8 C 375.4 479.1 377.2 480.2 379.0 480.2 C 380.3 480.2 380.9 479.9 381.7 479.8 L 381.5 477.6 Z M 381.5 477.6 " fill="#1B63AA"></path><path d="M 384.8 477.9 L 384.8 477.9 L 383.0 477.9 L 383.0 479.9 L 384.8 479.9 L 384.8 482.0 L 387.2 482.9 L 387.2 479.9 L 389.3 479.9 L 389.3 477.9 L 387.2 477.9 L 387.2 472.8 C 387.2 471.9 387.5 471.1 388.4 471.1 C 388.8 471.1 389.2 471.2 389.5 471.4 L 389.6 469.2 C 389.0 469.0 388.5 468.9 387.8 468.9 C 385.9 468.9 384.8 470.3 384.8 472.4 L 384.8 477.9 Z M 384.8 477.9 " fill="#1B63AA"></path><path d="M 391.1 479.9 L 391.1 479.9 L 393.5 479.9 L 393.5 469.2 L 391.1 469.2 L 391.1 479.9 Z M 391.1 484.5 L 391.1 484.5 L 393.5 484.5 L 393.5 481.8 L 391.1 481.8 L 391.1 484.5 Z M 391.1 484.5 " fill="#1B63AA"></path><path d="M 396.9 477.9 L 396.9 477.9 L 395.1 477.9 L 395.1 479.9 L 396.9 479.9 L 396.9 482.0 L 399.3 482.9 L 399.3 479.9 L 401.4 479.9 L 401.4 477.9 L 399.3 477.9 L 399.3 472.8 C 399.3 471.9 399.5 471.1 400.4 471.1 C 400.8 471.1 401.2 471.2 401.4 471.4 L 401.5 469.2 C 401.1 469.0 400.5 468.9 399.8 468.9 C 397.9 468.9 396.9 470.3 396.9 472.4 L 396.9 477.9 Z M 396.9 477.9 " fill="#1B63AA"></path><path d="M 411.5 469.2 L 411.5 469.2 L 409.3 469.2 L 409.3 470.6 L 409.3 470.6 C 408.5 469.6 407.4 468.9 406.2 468.9 C 404.0 468.9 403.0 470.7 403.0 473.1 L 403.0 479.9 L 405.4 479.9 L 405.4 474.2 C 405.4 472.8 405.5 471.1 407.0 471.1 C 408.7 471.1 409.1 473.3 409.1 474.7 L 409.1 479.9 L 411.5 479.9 L 411.5 469.2 Z M 411.5 469.2 " fill="#1B63AA"></path><path d="M 414.8 477.9 L 414.8 477.9 L 413.0 477.9 L 413.0 479.9 L 414.8 479.9 L 414.8 482.0 L 417.2 482.9 L 417.2 479.9 L 419.4 479.9 L 419.4 477.9 L 417.2 477.9 L 417.2 472.8 C 417.2 471.9 417.4 471.1 418.3 471.1 C 418.8 471.1 419.2 471.2 419.5 471.4 L 419.5 469.2 C 419.0 469.0 418.5 468.9 417.7 468.9 C 415.9 468.9 414.8 470.3 414.8 472.4 L 414.8 477.9 Z M 414.8 477.9 " fill="#1B63AA"></path><path d="M 422.7 475.6 L 422.7 475.6 C 422.9 477.0 423.5 478.1 424.9 478.1 C 426.2 478.1 426.8 477.0 426.8 475.6 L 422.7 475.6 Z M 428.5 472.1 L 428.5 472.1 C 427.6 471.5 426.5 471.0 425.4 471.0 C 423.9 471.0 422.9 471.9 422.7 473.7 L 429.2 473.7 C 429.2 477.4 428.2 480.2 424.7 480.2 C 421.9 480.2 420.4 477.6 420.4 474.5 C 420.4 471.0 422.2 468.9 425.3 468.9 C 426.5 468.9 427.6 469.3 428.5 469.8 L 428.5 472.1 Z M 428.5 472.1 " fill="#1B63AA"></path></g></g></g></g></g></g></g></g><text xml:space="preserve" font-family="MyriadPro-BlackCond,Myriad Pro" font-weight="bold" font-size="40.5" fill="#3B5898" transform="matrix(1.00, 0.00, -0.00, -1.00, 24.0, 342.2)">I</text><text xml:space="preserve" font-family="MyriadPro-BlackCond,Myriad Pro" font-weight="bold" font-size="40.5" fill="#3B5898" transform="matrix(1.00, 0.00, -0.00, -1.00, 34.9, 342.2)">n</text><text xml:space="preserve" font-family="MyriadPro-BlackCond,Myriad Pro" font-weight="bold" font-size="40.5" fill="#3B5898" transform="matrix(1.00, 0.00, -0.00, -1.00, 54.4, 342.2)">t</text><text xml:space="preserve" font-family="MyriadPro-BlackCond,Myriad Pro" font-weight="bold" font-size="40.5" fill="#3B5898" transform="matrix(1.00, 0.00, -0.00, -1.00, 68.0, 342.2)">r</text><text xml:space="preserve" font-family="MyriadPro-BlackCond,Myriad Pro" font-weight="bold" font-size="40.5" fill="#3B5898" transform="matrix(1.00, 0.00, -0.00, -1.00, 80.7, 342.2)">o</text><text xml:space="preserve" font-family="MyriadPro-BlackCond,Myriad Pro" font-weight="bold" font-size="40.5" fill="#3B5898" transform="matrix(1.00, 0.00, -0.00, -1.00, 99.0, 342.2)">d</text><text xml:space="preserve" font-family="MyriadPro-BlackCond,Myriad Pro" font-weight="bold" font-size="40.5" fill="#3B5898" transform="matrix(1.00, 0.00, -0.00, -1.00, 117.9, 342.2)">u</text><text xml:space="preserve" font-family="MyriadPro-BlackCond,Myriad Pro" font-weight="bold" font-size="40.5" fill="#3B5898" transform="matrix(1.00, 0.00, -0.00, -1.00, 137.2, 342.2)">c</text><text xml:space="preserve" font-family="MyriadPro-BlackCond,Myriad Pro" font-weight="bold" font-size="40.5" fill="#3B5898" transform="matrix(1.00, 0.00, -0.00, -1.00, 151.4, 342.2)">t</text><text xml:space="preserve" font-family="MyriadPro-BlackCond,Myriad Pro" font-weight="bold" font-size="40.5" fill="#3B5898" transform="matrix(1.00, 0.00, -0.00, -1.00, 165.0, 342.2)">i</text><text xml:space="preserve" font-family="MyriadPro-BlackCond,Myriad Pro" font-weight="bold" font-size="40.5" fill="#3B5898" transform="matrix(1.00, 0.00, -0.00, -1.00, 174.7, 342.2)">o</text><text xml:space="preserve" font-family="MyriadPro-BlackCond,Myriad Pro" font-weight="bold" font-size="40.5" fill="#3B5898" transform="matrix(1.00, 0.00, -0.00, -1.00, 193.0, 342.2)">n</text><text xml:space="preserve" font-family="MyriadPro-BlackCond,Myriad Pro" font-weight="bold" font-size="40.5" fill="#3B5898" transform="matrix(1.00, 0.00, -0.00, -1.00, 212.5, 342.2)"> </text><text xml:space="preserve" font-family="MyriadPro-BlackCond,Myriad Pro" font-weight="bold" font-size="40.5" fill="#3B5898" transform="matrix(1.00, 0.00, -0.00, -1.00, 219.0, 342.2)">t</text><text xml:space="preserve" font-family="MyriadPro-BlackCond,Myriad Pro" font-weight="bold" font-size="40.5" fill="#3B5898" transform="matrix(1.00, 0.00, -0.00, -1.00, 232.4, 342.2)">o</text><text xml:space="preserve" font-family="MyriadPro-BlackCond,Myriad Pro" font-weight="bold" font-size="40.5" fill="#3B5898" transform="matrix(1.00, 0.00, -0.00, -1.00, 250.6, 342.2)"> </text><text xml:space="preserve" font-family="MyriadPro-BlackCond,Myriad Pro" font-weight="bold" font-size="40.5" fill="#3B5898" transform="matrix(1.00, 0.00, -0.00, -1.00, 257.1, 342.2)">H</text><text xml:space="preserve" font-family="MyriadPro-BlackCond,Myriad Pro" font-weight="bold" font-size="40.5" fill="#3B5898" transform="matrix(1.00, 0.00, -0.00, -1.00, 278.9, 342.2)">I</text><text xml:space="preserve" font-family="MyriadPro-BlackCond,Myriad Pro" font-weight="bold" font-size="40.5" fill="#3B5898" transform="matrix(1.00, 0.00, -0.00, -1.00, 289.8, 342.2)">V</text><text xml:space="preserve" font-family="MyriadPro-BlackCond,Myriad Pro" font-weight="bold" font-size="40.5" fill="#3B5898" transform="matrix(1.00, 0.00, -0.00, -1.00, 308.6, 342.2)">E</text><text xml:space="preserve" font-family="LucidaGrande-Bold,Lucida Grande" font-weight="bold" font-size="40.5" fill="#3B5898" transform="matrix(1.00, 0.00, -0.00, -1.00, 325.3, 342.2)"> </text><text xml:space="preserve" font-family="LucidaGrande-Bold,Lucida Grande" font-weight="bold" font-size="40.5" fill="#3B5898" transform="matrix(1.00, 0.00, -0.00, -1.00, 24.0, 294.2)"> </text><text xml:space="preserve" font-family="MyriadPro-BlackCondIt,Myriad Pro" font-style="italic" font-weight="bold" font-size="22.1" fill="#3B5898" transform="matrix(1.00, 0.00, -0.00, -1.00, 24.0, 258.9)">D</text><text xml:space="preserve" font-family="MyriadPro-BlackCondIt,Myriad Pro" font-style="italic" font-weight="bold" font-size="22.1" fill="#3B5898" transform="matrix(1.00, 0.00, -0.00, -1.00, 35.0, 258.9)">a</text><text xml:space="preserve" font-family="MyriadPro-BlackCondIt,Myriad Pro" font-style="italic" font-weight="bold" font-size="22.1" fill="#3B5898" transform="matrix(1.00, 0.00, -0.00, -1.00, 45.2, 258.9)">t</text><text xml:space="preserve" font-family="MyriadPro-BlackCondIt,Myriad Pro" font-style="italic" font-weight="bold" font-size="22.1" fill="#3B5898" transform="matrix(1.00, 0.00, -0.00, -1.00, 51.8, 258.9)">a</text><text xml:space="preserve" font-family="MyriadPro-BlackCondIt,Myriad Pro" font-style="italic" font-weight="bold" font-size="22.1" fill="#3B5898" transform="matrix(1.00, 0.00, -0.00, -1.00, 61.7, 258.9)"> </text><text xml:space="preserve" font-family="MyriadPro-BlackCondIt,Myriad Pro" font-style="italic" font-weight="bold" font-size="22.1" fill="#3B5898" transform="matrix(1.00, 0.00, -0.00, -1.00, 64.8, 258.9)">W</text><text xml:space="preserve" font-family="MyriadPro-BlackCondIt,Myriad Pro" font-style="italic" font-weight="bold" font-size="22.1" fill="#3B5898" transform="matrix(1.00, 0.00, -0.00, -1.00, 79.1, 258.9)">a</text><text xml:space="preserve" font-family="MyriadPro-BlackCondIt,Myriad Pro" font-style="italic" font-weight="bold" font-size="22.1" fill="#3B5898" transform="matrix(1.00, 0.00, -0.00, -1.00, 88.9, 258.9)">r</text><text xml:space="preserve" font-family="MyriadPro-BlackCondIt,Myriad Pro" font-style="italic" font-weight="bold" font-size="22.1" fill="#3B5898" transform="matrix(1.00, 0.00, -0.00, -1.00, 95.8, 258.9)">e</text><text xml:space="preserve" font-family="MyriadPro-BlackCondIt,Myriad Pro" font-style="italic" font-weight="bold" font-size="22.1" fill="#3B5898" transform="matrix(1.00, 0.00, -0.00, -1.00, 104.7, 258.9)">h</text><text xml:space="preserve" font-family="MyriadPro-BlackCondIt,Myriad Pro" font-style="italic" font-weight="bold" font-size="22.1" fill="#3B5898" transform="matrix(1.00, 0.00, -0.00, -1.00, 115.0, 258.9)">o</text><text xml:space="preserve" font-family="MyriadPro-BlackCondIt,Myriad Pro" font-style="italic" font-weight="bold" font-size="22.1" fill="#3B5898" transform="matrix(1.00, 0.00, -0.00, -1.00, 124.7, 258.9)">u</text><text xml:space="preserve" font-family="MyriadPro-BlackCondIt,Myriad Pro" font-style="italic" font-weight="bold" font-size="22.1" fill="#3B5898" transform="matrix(1.00, 0.00, -0.00, -1.00, 134.8, 258.9)">s</text><text xml:space="preserve" font-family="MyriadPro-BlackCondIt,Myriad Pro" font-style="italic" font-weight="bold" font-size="22.1" fill="#3B5898" transform="matrix(1.00, 0.00, -0.00, -1.00, 142.1, 258.9)">i</text><text xml:space="preserve" font-family="MyriadPro-BlackCondIt,Myriad Pro" font-style="italic" font-weight="bold" font-size="22.1" fill="#3B5898" transform="matrix(1.00, 0.00, -0.00, -1.00, 147.3, 258.9)">n</text><text xml:space="preserve" font-family="MyriadPro-BlackCondIt,Myriad Pro" font-style="italic" font-weight="bold" font-size="22.1" fill="#3B5898" transform="matrix(1.00, 0.00, -0.00, -1.00, 157.5, 258.9)">g</text><text xml:space="preserve" font-family="MyriadPro-BlackCondIt,Myriad Pro" font-style="italic" font-weight="bold" font-size="22.1" fill="#3B5898" transform="matrix(1.00, 0.00, -0.00, -1.00, 167.4, 258.9)"> </text><text xml:space="preserve" font-family="MyriadPro-BlackCondIt,Myriad Pro" font-style="italic" font-weight="bold" font-size="22.1" fill="#3B5898" transform="matrix(1.00, 0.00, -0.00, -1.00, 170.5, 258.9)">&amp;</text><text xml:space="preserve" font-family="MyriadPro-BlackCondIt,Myriad Pro" font-style="italic" font-weight="bold" font-size="22.1" fill="#3B5898" transform="matrix(1.00, 0.00, -0.00, -1.00, 182.5, 258.9)"> </text><text xml:space="preserve" font-family="MyriadPro-BlackCondIt,Myriad Pro" font-style="italic" font-weight="bold" font-size="22.1" fill="#3B5898" transform="matrix(1.00, 0.00, -0.00, -1.00, 185.6, 258.9)">A</text><text xml:space="preserve" font-family="MyriadPro-BlackCondIt,Myriad Pro" font-style="italic" font-weight="bold" font-size="22.1" fill="#3B5898" transform="matrix(1.00, 0.00, -0.00, -1.00, 195.9, 258.9)">n</text><text xml:space="preserve" font-family="MyriadPro-BlackCondIt,Myriad Pro" font-style="italic" font-weight="bold" font-size="22.1" fill="#3B5898" transform="matrix(1.00, 0.00, -0.00, -1.00, 206.2, 258.9)">a</text><text xml:space="preserve" font-family="MyriadPro-BlackCondIt,Myriad Pro" font-style="italic" font-weight="bold" font-size="22.1" fill="#3B5898" transform="matrix(1.00, 0.00, -0.00, -1.00, 216.0, 258.9)">l</text><text xml:space="preserve" font-family="MyriadPro-BlackCondIt,Myriad Pro" font-style="italic" font-weight="bold" font-size="22.1" fill="#3B5898" transform="matrix(1.00, 0.00, -0.00, -1.00, 221.4, 258.9)">y</text><text xml:space="preserve" font-family="MyriadPro-BlackCondIt,Myriad Pro" font-style="italic" font-weight="bold" font-size="22.1" fill="#3B5898" transform="matrix(1.00, 0.00, -0.00, -1.00, 230.6, 258.9)">t</text><text xml:space="preserve" font-family="MyriadPro-BlackCondIt,Myriad Pro" font-style="italic" font-weight="bold" font-size="22.1" fill="#3B5898" transform="matrix(1.00, 0.00, -0.00, -1.00, 237.3, 258.9)">i</text><text xml:space="preserve" font-family="MyriadPro-BlackCondIt,Myriad Pro" font-style="italic" font-weight="bold" font-size="22.1" fill="#3B5898" transform="matrix(1.00, 0.00, -0.00, -1.00, 242.5, 258.9)">c</text><text xml:space="preserve" font-family="MyriadPro-BlackCondIt,Myriad Pro" font-style="italic" font-weight="bold" font-size="22.1" fill="#3B5898" transform="matrix(1.00, 0.00, -0.00, -1.00, 249.5, 258.9)">s</text><text xml:space="preserve" font-family="MyriadPro-BlackCondIt,Myriad Pro" font-style="italic" font-weight="bold" font-size="22.1" fill="#3B5898" transform="matrix(1.00, 0.00, -0.00, -1.00, 256.8, 258.9)"> </text><text xml:space="preserve" font-family="MyriadPro-BlackCondIt,Myriad Pro" font-style="italic" font-weight="bold" font-size="22.1" fill="#3B5898" transform="matrix(1.00, 0.00, -0.00, -1.00, 259.9, 258.9)">o</text><text xml:space="preserve" font-family="MyriadPro-BlackCondIt,Myriad Pro" font-style="italic" font-weight="bold" font-size="22.1" fill="#3B5898" transform="matrix(1.00, 0.00, -0.00, -1.00, 269.6, 258.9)">n</text><text xml:space="preserve" font-family="MyriadPro-BlackCondIt,Myriad Pro" font-style="italic" font-weight="bold" font-size="22.1" fill="#3B5898" transform="matrix(1.00, 0.00, -0.00, -1.00, 279.8, 258.9)"> </text><text xml:space="preserve" font-family="MyriadPro-BlackCondIt,Myriad Pro" font-style="italic" font-weight="bold" font-size="22.1" fill="#3B5898" transform="matrix(1.00, 0.00, -0.00, -1.00, 282.9, 258.9)">H</text><text xml:space="preserve" font-family="MyriadPro-BlackCondIt,Myriad Pro" font-style="italic" font-weight="bold" font-size="22.1" fill="#3B5898" transform="matrix(1.00, 0.00, -0.00, -1.00, 294.5, 258.9)">a</text><text xml:space="preserve" font-family="MyriadPro-BlackCondIt,Myriad Pro" font-style="italic" font-weight="bold" font-size="22.1" fill="#3B5898" transform="matrix(1.00, 0.00, -0.00, -1.00, 304.3, 258.9)">d</text><text xml:space="preserve" font-family="MyriadPro-BlackCondIt,Myriad Pro" font-style="italic" font-weight="bold" font-size="22.1" fill="#3B5898" transform="matrix(1.00, 0.00, -0.00, -1.00, 314.2, 258.9)">o</text><text xml:space="preserve" font-family="MyriadPro-BlackCondIt,Myriad Pro" font-style="italic" font-weight="bold" font-size="22.1" fill="#3B5898" transform="matrix(1.00, 0.00, -0.00, -1.00, 323.9, 258.9)">o</text><text xml:space="preserve" font-family="MyriadPro-BlackCondIt,Myriad Pro" font-style="italic" font-weight="bold" font-size="22.1" fill="#3B5898" transform="matrix(1.00, 0.00, -0.00, -1.00, 333.5, 258.9)">p</text><text xml:space="preserve" font-family="MyriadPro-BlackCond,Myriad Pro" font-weight="bold" font-size="19.2" fill="#808086" transform="matrix(1.00, 0.00, -0.00, -1.00, 30.0, 169.6)">2</text><text xml:space="preserve" font-family="MyriadPro-BlackCond,Myriad Pro" font-weight="bold" font-size="19.2" fill="#808086" transform="matrix(1.00, 0.00, -0.00, -1.00, 38.5, 169.6)">0</text><text xml:space="preserve" font-family="MyriadPro-BlackCond,Myriad Pro" font-weight="bold" font-size="19.2" fill="#808086" transform="matrix(1.00, 0.00, -0.00, -1.00, 47.1, 169.6)">1</text><text xml:space="preserve" font-family="MyriadPro-BlackCond,Myriad Pro" font-weight="bold" font-size="19.2" fill="#808086" transform="matrix(1.00, 0.00, -0.00, -1.00, 55.6, 169.6)">3</text><text xml:space="preserve" font-family="MyriadPro-BlackCond,Myriad Pro" font-weight="bold" font-size="19.2" fill="#808086" transform="matrix(1.00, 0.00, -0.00, -1.00, 64.1, 169.6)">.</text><text xml:space="preserve" font-family="MyriadPro-BlackCond,Myriad Pro" font-weight="bold" font-size="19.2" fill="#808086" transform="matrix(1.00, 0.00, -0.00, -1.00, 68.9, 169.6)"> </text><text xml:space="preserve" font-family="MyriadPro-BlackCond,Myriad Pro" font-weight="bold" font-size="19.2" fill="#808086" transform="matrix(1.00, 0.00, -0.00, -1.00, 72.0, 169.6)">1</text><text xml:space="preserve" font-family="MyriadPro-BlackCond,Myriad Pro" font-weight="bold" font-size="19.2" fill="#808086" transform="matrix(1.00, 0.00, -0.00, -1.00, 80.5, 169.6)">2</text><text xml:space="preserve" font-family="MyriadPro-BlackCond,Myriad Pro" font-weight="bold" font-size="19.2" fill="#808086" transform="matrix(1.00, 0.00, -0.00, -1.00, 89.1, 169.6)">.</text><text xml:space="preserve" font-family="MyriadPro-BlackCond,Myriad Pro" font-weight="bold" font-size="19.2" fill="#808086" transform="matrix(1.00, 0.00, -0.00, -1.00, 93.9, 169.6)"> </text><text xml:space="preserve" font-family="MyriadPro-BlackCond,Myriad Pro" font-weight="bold" font-size="19.2" fill="#808086" transform="matrix(1.00, 0.00, -0.00, -1.00, 97.0, 169.6)">0</text><text xml:space="preserve" font-family="MyriadPro-BlackCond,Myriad Pro" font-weight="bold" font-size="19.2" fill="#808086" transform="matrix(1.00, 0.00, -0.00, -1.00, 105.5, 169.6)">6</text><text xml:space="preserve" font-family="MyriadPro-BlackCond,Myriad Pro" font-weight="bold" font-size="19.2" fill="#808086" transform="matrix(1.00, 0.00, -0.00, -1.00, 114.0, 169.6)">.</text><text xml:space="preserve" font-family="MyriadPro-BlackCond,Myriad Pro" font-weight="bold" font-size="19.2" fill="#808086" transform="matrix(1.00, 0.00, -0.00, -1.00, 118.8, 169.6)"> </text><text xml:space="preserve" font-family="MyriadPro-BlackCond,Myriad Pro" font-weight="bold" font-size="19.2" fill="#808086" transform="matrix(1.00, 0.00, -0.00, -1.00, 30.0, 143.7)">S</text><text xml:space="preserve" font-family="MyriadPro-BlackCond,Myriad Pro" font-weight="bold" font-size="19.2" fill="#808086" transform="matrix(1.00, 0.00, -0.00, -1.00, 38.1, 143.7)">u</text><text xml:space="preserve" font-family="MyriadPro-BlackCond,Myriad Pro" font-weight="bold" font-size="19.2" fill="#808086" transform="matrix(1.00, 0.00, -0.00, -1.00, 47.3, 143.7)">n</text><text xml:space="preserve" font-family="MyriadPro-BlackCond,Myriad Pro" font-weight="bold" font-size="19.2" fill="#808086" transform="matrix(1.00, 0.00, -0.00, -1.00, 56.5, 143.7)">g</text><text xml:space="preserve" font-family="MyriadPro-BlackCond,Myriad Pro" font-weight="bold" font-size="19.2" fill="#808086" transform="matrix(1.00, 0.00, -0.00, -1.00, 65.5, 143.7)">-</text><text xml:space="preserve" font-family="MyriadPro-BlackCond,Myriad Pro" font-weight="bold" font-size="19.2" fill="#808086" transform="matrix(1.00, 0.00, -0.00, -1.00, 70.3, 143.7)">S</text><text xml:space="preserve" font-family="MyriadPro-BlackCond,Myriad Pro" font-weight="bold" font-size="19.2" fill="#808086" transform="matrix(1.00, 0.00, -0.00, -1.00, 78.4, 143.7)">o</text><text xml:space="preserve" font-family="MyriadPro-BlackCond,Myriad Pro" font-weight="bold" font-size="19.2" fill="#808086" transform="matrix(1.00, 0.00, -0.00, -1.00, 87.1, 143.7)">o</text><text xml:space="preserve" font-family="MyriadPro-BlackCond,Myriad Pro" font-weight="bold" font-size="19.2" fill="#808086" transform="matrix(1.00, 0.00, -0.00, -1.00, 95.8, 143.7)"> </text><text xml:space="preserve" font-family="MyriadPro-BlackCond,Myriad Pro" font-weight="bold" font-size="19.2" fill="#808086" transform="matrix(1.00, 0.00, -0.00, -1.00, 98.8, 143.7)">K</text><text xml:space="preserve" font-family="MyriadPro-BlackCond,Myriad Pro" font-weight="bold" font-size="19.2" fill="#808086" transform="matrix(1.00, 0.00, -0.00, -1.00, 108.2, 143.7)">i</text><text xml:space="preserve" font-family="MyriadPro-BlackCond,Myriad Pro" font-weight="bold" font-size="19.2" fill="#808086" transform="matrix(1.00, 0.00, -0.00, -1.00, 112.8, 143.7)">m</text><text xml:space="preserve" font-family="MyriadPro-BlackCond,Myriad Pro" font-weight="bold" font-size="19.2" fill="#808086" transform="matrix(1.00, 0.00, -0.00, -1.00, 126.4, 143.7)"> </text><text xml:space="preserve" font-family="MyriadPro-BlackCond,Myriad Pro" font-weight="bold" font-size="19.2" fill="#808086" transform="matrix(1.00, 0.00, -0.00, -1.00, 30.0, 117.7)">A</text><text xml:space="preserve" font-family="MyriadPro-BlackCond,Myriad Pro" font-weight="bold" font-size="19.2" fill="#808086" transform="matrix(1.00, 0.00, -0.00, -1.00, 39.0, 117.7)">u</text><text xml:space="preserve" font-family="MyriadPro-BlackCond,Myriad Pro" font-weight="bold" font-size="19.2" fill="#808086" transform="matrix(1.00, 0.00, -0.00, -1.00, 48.1, 117.7)">t</text><text xml:space="preserve" font-family="MyriadPro-BlackCond,Myriad Pro" font-weight="bold" font-size="19.2" fill="#808086" transform="matrix(1.00, 0.00, -0.00, -1.00, 54.5, 117.7)">o</text><text xml:space="preserve" font-family="MyriadPro-BlackCond,Myriad Pro" font-weight="bold" font-size="19.2" fill="#808086" transform="matrix(1.00, 0.00, -0.00, -1.00, 63.2, 117.7)">n</text><text xml:space="preserve" font-family="MyriadPro-BlackCond,Myriad Pro" font-weight="bold" font-size="19.2" fill="#808086" transform="matrix(1.00, 0.00, -0.00, -1.00, 72.4, 117.7)">o</text><text xml:space="preserve" font-family="MyriadPro-BlackCond,Myriad Pro" font-weight="bold" font-size="19.2" fill="#808086" transform="matrix(1.00, 0.00, -0.00, -1.00, 81.1, 117.7)">m</text><text xml:space="preserve" font-family="MyriadPro-BlackCond,Myriad Pro" font-weight="bold" font-size="19.2" fill="#808086" transform="matrix(1.00, 0.00, -0.00, -1.00, 94.7, 117.7)">o</text><text xml:space="preserve" font-family="MyriadPro-BlackCond,Myriad Pro" font-weight="bold" font-size="19.2" fill="#808086" transform="matrix(1.00, 0.00, -0.00, -1.00, 103.4, 117.7)">u</text><text xml:space="preserve" font-family="MyriadPro-BlackCond,Myriad Pro" font-weight="bold" font-size="19.2" fill="#808086" transform="matrix(1.00, 0.00, -0.00, -1.00, 112.5, 117.7)">s</text><text xml:space="preserve" font-family="MyriadPro-BlackCond,Myriad Pro" font-weight="bold" font-size="19.2" fill="#808086" transform="matrix(1.00, 0.00, -0.00, -1.00, 119.0, 117.7)"> </text><text xml:space="preserve" font-family="MyriadPro-BlackCond,Myriad Pro" font-weight="bold" font-size="19.2" fill="#808086" transform="matrix(1.00, 0.00, -0.00, -1.00, 122.1, 117.7)">C</text><text xml:space="preserve" font-family="MyriadPro-BlackCond,Myriad Pro" font-weight="bold" font-size="19.2" fill="#808086" transform="matrix(1.00, 0.00, -0.00, -1.00, 129.9, 117.7)">o</text><text xml:space="preserve" font-family="MyriadPro-BlackCond,Myriad Pro" font-weight="bold" font-size="19.2" fill="#808086" transform="matrix(1.00, 0.00, -0.00, -1.00, 138.6, 117.7)">n</text><text xml:space="preserve" font-family="MyriadPro-BlackCond,Myriad Pro" font-weight="bold" font-size="19.2" fill="#808086" transform="matrix(1.00, 0.00, -0.00, -1.00, 147.8, 117.7)">t</text><text xml:space="preserve" font-family="MyriadPro-BlackCond,Myriad Pro" font-weight="bold" font-size="19.2" fill="#808086" transform="matrix(1.00, 0.00, -0.00, -1.00, 154.3, 117.7)">r</text><text xml:space="preserve" font-family="MyriadPro-BlackCond,Myriad Pro" font-weight="bold" font-size="19.2" fill="#808086" transform="matrix(1.00, 0.00, -0.00, -1.00, 160.3, 117.7)">o</text><text xml:space="preserve" font-family="MyriadPro-BlackCond,Myriad Pro" font-weight="bold" font-size="19.2" fill="#808086" transform="matrix(1.00, 0.00, -0.00, -1.00, 169.0, 117.7)">l</text><text xml:space="preserve" font-family="MyriadPro-BlackCond,Myriad Pro" font-weight="bold" font-size="19.2" fill="#808086" transform="matrix(1.00, 0.00, -0.00, -1.00, 173.6, 117.7)"> </text><text xml:space="preserve" font-family="MyriadPro-BlackCond,Myriad Pro" font-weight="bold" font-size="19.2" fill="#808086" transform="matrix(1.00, 0.00, -0.00, -1.00, 176.7, 117.7)">M</text><text xml:space="preserve" font-family="MyriadPro-BlackCond,Myriad Pro" font-weight="bold" font-size="19.2" fill="#808086" transform="matrix(1.00, 0.00, -0.00, -1.00, 189.2, 117.7)">i</text><text xml:space="preserve" font-family="MyriadPro-BlackCond,Myriad Pro" font-weight="bold" font-size="19.2" fill="#808086" transform="matrix(1.00, 0.00, -0.00, -1.00, 193.8, 117.7)">d</text><text xml:space="preserve" font-family="MyriadPro-BlackCond,Myriad Pro" font-weight="bold" font-size="19.2" fill="#808086" transform="matrix(1.00, 0.00, -0.00, -1.00, 202.8, 117.7)">d</text><text xml:space="preserve" font-family="MyriadPro-BlackCond,Myriad Pro" font-weight="bold" font-size="19.2" fill="#808086" transform="matrix(1.00, 0.00, -0.00, -1.00, 211.8, 117.7)">l</text><text xml:space="preserve" font-family="MyriadPro-BlackCond,Myriad Pro" font-weight="bold" font-size="19.2" fill="#808086" transform="matrix(1.00, 0.00, -0.00, -1.00, 216.4, 117.7)">e</text><text xml:space="preserve" font-family="MyriadPro-BlackCond,Myriad Pro" font-weight="bold" font-size="19.2" fill="#808086" transform="matrix(1.00, 0.00, -0.00, -1.00, 224.7, 117.7)">w</text><text xml:space="preserve" font-family="MyriadPro-BlackCond,Myriad Pro" font-weight="bold" font-size="19.2" fill="#808086" transform="matrix(1.00, 0.00, -0.00, -1.00, 236.8, 117.7)">a</text><text xml:space="preserve" font-family="MyriadPro-BlackCond,Myriad Pro" font-weight="bold" font-size="19.2" fill="#808086" transform="matrix(1.00, 0.00, -0.00, -1.00, 245.4, 117.7)">r</text><text xml:space="preserve" font-family="MyriadPro-BlackCond,Myriad Pro" font-weight="bold" font-size="19.2" fill="#808086" transform="matrix(1.00, 0.00, -0.00, -1.00, 251.4, 117.7)">e</text><text xml:space="preserve" font-family="MyriadPro-BlackCond,Myriad Pro" font-weight="bold" font-size="19.2" fill="#808086" transform="matrix(1.00, 0.00, -0.00, -1.00, 260.0, 117.7)"> </text><text xml:space="preserve" font-family="MyriadPro-BlackCond,Myriad Pro" font-weight="bold" font-size="19.2" fill="#808086" transform="matrix(1.00, 0.00, -0.00, -1.00, 263.0, 117.7)">R</text><text xml:space="preserve" font-family="MyriadPro-BlackCond,Myriad Pro" font-weight="bold" font-size="19.2" fill="#808086" transform="matrix(1.00, 0.00, -0.00, -1.00, 272.5, 117.7)">e</text><text xml:space="preserve" font-family="MyriadPro-BlackCond,Myriad Pro" font-weight="bold" font-size="19.2" fill="#808086" transform="matrix(1.00, 0.00, -0.00, -1.00, 281.0, 117.7)">s</text><text xml:space="preserve" font-family="MyriadPro-BlackCond,Myriad Pro" font-weight="bold" font-size="19.2" fill="#808086" transform="matrix(1.00, 0.00, -0.00, -1.00, 287.5, 117.7)">e</text><text xml:space="preserve" font-family="MyriadPro-BlackCond,Myriad Pro" font-weight="bold" font-size="19.2" fill="#808086" transform="matrix(1.00, 0.00, -0.00, -1.00, 296.1, 117.7)">a</text><text xml:space="preserve" font-family="MyriadPro-BlackCond,Myriad Pro" font-weight="bold" font-size="19.2" fill="#808086" transform="matrix(1.00, 0.00, -0.00, -1.00, 304.7, 117.7)">r</text><text xml:space="preserve" font-family="MyriadPro-BlackCond,Myriad Pro" font-weight="bold" font-size="19.2" fill="#808086" transform="matrix(1.00, 0.00, -0.00, -1.00, 310.7, 117.7)">c</text><text xml:space="preserve" font-family="MyriadPro-BlackCond,Myriad Pro" font-weight="bold" font-size="19.2" fill="#808086" transform="matrix(1.00, 0.00, -0.00, -1.00, 317.1, 117.7)">h</text><text xml:space="preserve" font-family="MyriadPro-BlackCond,Myriad Pro" font-weight="bold" font-size="19.2" fill="#808086" transform="matrix(1.00, 0.00, -0.00, -1.00, 326.3, 117.7)"> </text><text xml:space="preserve" font-family="MyriadPro-BlackCond,Myriad Pro" font-weight="bold" font-size="19.2" fill="#808086" transform="matrix(1.00, 0.00, -0.00, -1.00, 329.4, 117.7)">S</text><text xml:space="preserve" font-family="MyriadPro-BlackCond,Myriad Pro" font-weight="bold" font-size="19.2" fill="#808086" transform="matrix(1.00, 0.00, -0.00, -1.00, 337.5, 117.7)">e</text><text xml:space="preserve" font-family="MyriadPro-BlackCond,Myriad Pro" font-weight="bold" font-size="19.2" fill="#808086" transform="matrix(1.00, 0.00, -0.00, -1.00, 346.0, 117.7)">c</text><text xml:space="preserve" font-family="MyriadPro-BlackCond,Myriad Pro" font-weight="bold" font-size="19.2" fill="#808086" transform="matrix(1.00, 0.00, -0.00, -1.00, 352.8, 117.7)">t</text><text xml:space="preserve" font-family="MyriadPro-BlackCond,Myriad Pro" font-weight="bold" font-size="19.2" fill="#808086" transform="matrix(1.00, 0.00, -0.00, -1.00, 359.2, 117.7)">i</text><text xml:space="preserve" font-family="MyriadPro-BlackCond,Myriad Pro" font-weight="bold" font-size="19.2" fill="#808086" transform="matrix(1.00, 0.00, -0.00, -1.00, 363.8, 117.7)">o</text><text xml:space="preserve" font-family="MyriadPro-BlackCond,Myriad Pro" font-weight="bold" font-size="19.2" fill="#808086" transform="matrix(1.00, 0.00, -0.00, -1.00, 372.5, 117.7)">n</text><text xml:space="preserve" font-family="MyriadPro-BlackCond,Myriad Pro" font-weight="bold" font-size="19.2" fill="#808086" transform="matrix(1.00, 0.00, -0.00, -1.00, 381.7, 117.7)"> </text><text xml:space="preserve" font-family="MyriadPro-BlackCond,Myriad Pro" font-weight="bold" font-size="19.2" fill="#808086" transform="matrix(1.00, 0.00, -0.00, -1.00, 30.0, 91.7)">E</text><text xml:space="preserve" font-family="MyriadPro-BlackCond,Myriad Pro" font-weight="bold" font-size="19.2" fill="#808086" transform="matrix(1.00, 0.00, -0.00, -1.00, 37.9, 91.7)">T</text><text xml:space="preserve" font-family="MyriadPro-BlackCond,Myriad Pro" font-weight="bold" font-size="19.2" fill="#808086" transform="matrix(1.00, 0.00, -0.00, -1.00, 45.8, 91.7)">R</text><text xml:space="preserve" font-family="MyriadPro-BlackCond,Myriad Pro" font-weight="bold" font-size="19.2" fill="#808086" transform="matrix(1.00, 0.00, -0.00, -1.00, 55.4, 91.7)">I</text><image xlink:href="EB10F7185096E23D1EF6798083EB932E.png" width="320.00" height="299.00" transform="matrix(0.63, 0.00, -0.00, -0.63, 440.4, 415.8)"></image><image xlink:href="B42BE6375283AB4013DB626FA6D93E3D.png" width="234.00" height="224.00" transform="matrix(1.00, 0.00, -0.00, 1.00, 424.4, 207.7)"></image></g></svg>