<?xml version="1.0" encoding="UTF-8" standalone="no"?><svg xmlns="http://www.w3.org/2000/svg" xmlns:xlink="http://www.w3.org/1999/xlink" clip-rule="evenodd" stroke-miterlimit="10" viewBox="0 0 408 31"><desc>SVG generated by Keynote</desc><defs></defs><g transform="matrix(1.00, 0.00, -0.00, -1.00, 0.0, 31.0)"><text xml:space="preserve" font-family="MyriadPro-BlackCond,Myriad Pro" font-weight="bold" font-size="30.0" fill="#3B5898" transform="matrix(1.00, 0.00, -0.00, -1.00, 0.0, 8.5)">D</text><text xml:space="preserve" font-family="MyriadPro-BlackCond,Myriad Pro" font-weight="bold" font-size="30.0" fill="#3B5898" transform="matrix(1.00, 0.00, -0.00, -1.00, 15.6, 8.5)">a</text><text xml:space="preserve" font-family="MyriadPro-BlackCond,Myriad Pro" font-weight="bold" font-size="30.0" fill="#3B5898" transform="matrix(1.00, 0.00, -0.00, -1.00, 28.7, 8.5)">t</text><text xml:space="preserve" font-family="MyriadPro-BlackCond,Myriad Pro" font-weight="bold" font-size="30.0" fill="#3B5898" transform="matrix(1.00, 0.00, -0.00, -1.00, 38.8, 8.5)">a</text><text xml:space="preserve" font-family="MyriadPro-BlackCond,Myriad Pro" font-weight="bold" font-size="30.0" fill="#3B5898" transform="matrix(1.00, 0.00, -0.00, -1.00, 52.2, 8.5)"> </text><text xml:space="preserve" font-family="MyriadPro-BlackCond,Myriad Pro" font-weight="bold" font-size="30.0" fill="#3B5898" transform="matrix(1.00, 0.00, -0.00, -1.00, 57.0, 8.5)">W</text><text xml:space="preserve" font-family="MyriadPro-BlackCond,Myriad Pro" font-weight="bold" font-size="30.0" fill="#3B5898" transform="matrix(1.00, 0.00, -0.00, -1.00, 77.4, 8.5)">a</text><text xml:space="preserve" font-family="MyriadPro-BlackCond,Myriad Pro" font-weight="bold" font-size="30.0" fill="#3B5898" transform="matrix(1.00, 0.00, -0.00, -1.00, 90.8, 8.5)">r</text><text xml:space="preserve" font-family="MyriadPro-BlackCond,Myriad Pro" font-weight="bold" font-size="30.0" fill="#3B5898" transform="matrix(1.00, 0.00, -0.00, -1.00, 100.3, 8.5)">e</text><text xml:space="preserve" font-family="MyriadPro-BlackCond,Myriad Pro" font-weight="bold" font-size="30.0" fill="#3B5898" transform="matrix(1.00, 0.00, -0.00, -1.00, 113.6, 8.5)">h</text><text xml:space="preserve" font-family="MyriadPro-BlackCond,Myriad Pro" font-weight="bold" font-size="30.0" fill="#3B5898" transform="matrix(1.00, 0.00, -0.00, -1.00, 128.0, 8.5)">o</text><text xml:space="preserve" font-family="MyriadPro-BlackCond,Myriad Pro" font-weight="bold" font-size="30.0" fill="#3B5898" transform="matrix(1.00, 0.00, -0.00, -1.00, 141.6, 8.5)">u</text><text xml:space="preserve" font-family="MyriadPro-BlackCond,Myriad Pro" font-weight="bold" font-size="30.0" fill="#3B5898" transform="matrix(1.00, 0.00, -0.00, -1.00, 155.9, 8.5)">s</text><text xml:space="preserve" font-family="MyriadPro-BlackCond,Myriad Pro" font-weight="bold" font-size="30.0" fill="#3B5898" transform="matrix(1.00, 0.00, -0.00, -1.00, 166.0, 8.5)">i</text><text xml:space="preserve" font-family="MyriadPro-BlackCond,Myriad Pro" font-weight="bold" font-size="30.0" fill="#3B5898" transform="matrix(1.00, 0.00, -0.00, -1.00, 173.2, 8.5)">n</text><text xml:space="preserve" font-family="MyriadPro-BlackCond,Myriad Pro" font-weight="bold" font-size="30.0" fill="#3B5898" transform="matrix(1.00, 0.00, -0.00, -1.00, 187.6, 8.5)">g</text><text xml:space="preserve" font-family="MyriadPro-BlackCond,Myriad Pro" font-weight="bold" font-size="30.0" fill="#3B5898" transform="matrix(1.00, 0.00, -0.00, -1.00, 201.7, 8.5)"> </text><text xml:space="preserve" font-family="MyriadPro-BlackCond,Myriad Pro" font-weight="bold" font-size="30.0" fill="#3B5898" transform="matrix(1.00, 0.00, -0.00, -1.00, 206.5, 8.5)">a</text><text xml:space="preserve" font-family="MyriadPro-BlackCond,Myriad Pro" font-weight="bold" font-size="30.0" fill="#3B5898" transform="matrix(1.00, 0.00, -0.00, -1.00, 219.6, 8.5)">t</text><text xml:space="preserve" font-family="MyriadPro-BlackCond,Myriad Pro" font-weight="bold" font-size="30.0" fill="#3B5898" transform="matrix(1.00, 0.00, -0.00, -1.00, 229.7, 8.5)"> </text><text xml:space="preserve" font-family="MyriadPro-BlackCond,Myriad Pro" font-weight="bold" font-size="30.0" fill="#3B5898" transform="matrix(1.00, 0.00, -0.00, -1.00, 234.5, 8.5)">F</text><text xml:space="preserve" font-family="MyriadPro-BlackCond,Myriad Pro" font-weight="bold" font-size="30.0" fill="#3B5898" transform="matrix(1.00, 0.00, -0.00, -1.00, 246.4, 8.5)">a</text><text xml:space="preserve" font-family="MyriadPro-BlackCond,Myriad Pro" font-weight="bold" font-size="30.0" fill="#3B5898" transform="matrix(1.00, 0.00, -0.00, -1.00, 259.8, 8.5)">c</text><text xml:space="preserve" font-family="MyriadPro-BlackCond,Myriad Pro" font-weight="bold" font-size="30.0" fill="#3B5898" transform="matrix(1.00, 0.00, -0.00, -1.00, 269.7, 8.5)">e</text><text xml:space="preserve" font-family="MyriadPro-BlackCond,Myriad Pro" font-weight="bold" font-size="30.0" fill="#3B5898" transform="matrix(1.00, 0.00, -0.00, -1.00, 283.1, 8.5)">b</text><text xml:space="preserve" font-family="MyriadPro-BlackCond,Myriad Pro" font-weight="bold" font-size="30.0" fill="#3B5898" transform="matrix(1.00, 0.00, -0.00, -1.00, 297.1, 8.5)">o</text><text xml:space="preserve" font-family="MyriadPro-BlackCond,Myriad Pro" font-weight="bold" font-size="30.0" fill="#3B5898" transform="matrix(1.00, 0.00, -0.00, -1.00, 310.7, 8.5)">o</text><text xml:space="preserve" font-family="MyriadPro-BlackCond,Myriad Pro" font-weight="bold" font-size="30.0" fill="#3B5898" transform="matrix(1.00, 0.00, -0.00, -1.00, 324.2, 8.5)">k</text><text xml:space="preserve" font-family="MyriadPro-BlackCond,Myriad Pro" font-weight="bold" font-size="30.0" fill="#3B5898" transform="matrix(1.00, 0.00, -0.00, -1.00, 337.4, 8.5)"> </text><text xml:space="preserve" font-family="MyriadPro-BlackCond,Myriad Pro" font-weight="bold" font-size="30.0" fill="#3B5898" transform="matrix(1.00, 0.00, -0.00, -1.00, 342.2, 8.5)">T</text><text xml:space="preserve" font-family="MyriadPro-BlackCond,Myriad Pro" font-weight="bold" font-size="30.0" fill="#3B5898" transform="matrix(1.00, 0.00, -0.00, -1.00, 353.3, 8.5)">o</text><text xml:space="preserve" font-family="MyriadPro-BlackCond,Myriad Pro" font-weight="bold" font-size="30.0" fill="#3B5898" transform="matrix(1.00, 0.00, -0.00, -1.00, 366.8, 8.5)">d</text><text xml:space="preserve" font-family="MyriadPro-BlackCond,Myriad Pro" font-weight="bold" font-size="30.0" fill="#3B5898" transform="matrix(1.00, 0.00, -0.00, -1.00, 380.9, 8.5)">a</text><text xml:space="preserve" font-family="MyriadPro-BlackCond,Myriad Pro" font-weight="bold" font-size="30.0" fill="#3B5898" transform="matrix(1.00, 0.00, -0.00, -1.00, 393.8, 8.5)">y</text></g></svg>