<svg height="1000" width="875" xmlns="http://www.w3.org/2000/svg"><path d="M0 796.888l0 -593.712q0 -97.65 130.851 -150.381t306.621 -52.731 306.621 52.731 130.851 150.381l0 593.712q0 97.65 -130.851 150.381t-306.621 52.731 -306.621 -52.731 -130.851 -150.381zm62.496 0q0 58.59 109.368 99.603t265.608 41.013 265.608 -41.013 109.368 -99.603l0 -117.18q-46.872 48.825 -150.381 75.191t-224.595 26.366 -224.595 -26.366 -150.381 -75.191l0 117.18zm0 -187.488q0 58.59 109.368 99.603t265.608 41.013 265.608 -41.013 109.368 -99.603l0 -117.18q-46.872 48.825 -150.381 75.191t-224.595 26.366 -224.595 -26.366 -150.381 -75.191l0 117.18zm0 -187.488q0 58.59 109.368 99.603t265.608 41.013 265.608 -41.013 109.368 -99.603l0 -107.415q-58.59 44.919 -160.146 68.355t-214.83 23.436 -214.83 -23.436 -160.146 -68.355l0 107.415zm0 -218.736q0 58.59 109.368 99.603t265.608 41.013 265.608 -41.013 109.368 -99.603 -109.368 -99.603 -265.608 -41.013 -265.608 41.013 -109.368 99.603zm624.96 609.336q0 -13.671 8.789 -22.46t22.46 -8.789 22.46 8.789 8.789 22.46 -8.789 22.46 -22.46 8.789 -22.46 -8.789 -8.789 -22.46zm0 -187.488q0 -13.671 8.789 -22.46t22.46 -8.789 22.46 8.789 8.789 22.46 -8.789 22.46 -22.46 8.789 -22.46 -8.789 -8.789 -22.46zm0 -187.488q0 -13.671 8.789 -22.46t22.46 -8.789 22.46 8.789 8.789 22.46 -8.789 22.46 -22.46 8.789 -22.46 -8.789 -8.789 -22.46z"/></svg>