<?xml version="1.0" encoding="UTF-8" standalone="no"?>
<svg
   xmlns:dc="http://purl.org/dc/elements/1.1/"
   xmlns:cc="http://creativecommons.org/ns#"
   xmlns:rdf="http://www.w3.org/1999/02/22-rdf-syntax-ns#"
   xmlns:svg="http://www.w3.org/2000/svg"
   xmlns="http://www.w3.org/2000/svg"
   xmlns:sodipodi="http://sodipodi.sourceforge.net/DTD/sodipodi-0.dtd"
   xmlns:inkscape="http://www.inkscape.org/namespaces/inkscape"
   width="469.08939"
   height="465.25806"
   viewBox="0 0 375.27151 372.20643"
   version="1.1"
   id="svg2"
   inkscape:version="0.48.2 r9819"
   sodipodi:docname="CheckEmail.svg">
  <metadata
     id="metadata386">
    <rdf:RDF>
      <cc:Work
         rdf:about="">
        <dc:format>image/svg+xml</dc:format>
        <dc:type
           rdf:resource="http://purl.org/dc/dcmitype/StillImage" />
      </cc:Work>
    </rdf:RDF>
  </metadata>
  <defs
     id="defs384" />
  <sodipodi:namedview
     pagecolor="#ffffff"
     bordercolor="#666666"
     borderopacity="1"
     objecttolerance="10"
     gridtolerance="10"
     guidetolerance="10"
     inkscape:pageopacity="0"
     inkscape:pageshadow="2"
     inkscape:window-width="1440"
     inkscape:window-height="837"
     id="namedview382"
     showgrid="false"
     units="cm"
     fit-margin-top="0.5"
     fit-margin-right="0.5"
     fit-margin-bottom="0.5"
     fit-margin-left="0.5"
     inkscape:zoom="1.5301061"
     inkscape:cx="217.32804"
     inkscape:cy="309.65337"
     inkscape:window-x="-8"
     inkscape:window-y="87"
     inkscape:window-maximized="1"
     inkscape:current-layer="svg2" />
  <path
     style="fill:#070707"
     inkscape:connector-curvature="0"
     id="path5"
     d="m 14.173228,14.173223 0.06,0 c -0.01,0.02 -0.04,0.05 -0.06,0.06 l 0,-0.06 z" />
  <path
     style="fill:#070707"
     inkscape:connector-curvature="0"
     id="path7"
     d="m 100.17323,14.173223 81,0 c 0,20.330001 0,40.670001 0,61.000001 -13.36,0 -26.72,0 -40.09,0 0,1.33 0,2.66 0,3.99 l -0.82,0.02 c 0,-1.34 0,-2.67 0,-4.01 -13.36,0 -26.73,0 -40.09,0 0,-20.33 0,-40.67 0,-61.000001 m 1,1 c 0,19.670001 0,39.330001 0,59.000001 26.33,0 52.67,0 79,0 0,-19.67 0,-39.33 0,-59.000001 -26.33,0 -52.67,0 -79,0 z" />
  <path
     style="fill:#070707"
     inkscape:connector-curvature="0"
     id="path9"
     d="m 280.33323,14.173223 80.69,0 c 0.15,20.310001 0.02,40.610001 0.07,60.920001 -13.33,0.03 -26.67,-0.08 -40.01,0.04 0,1.35 0,2.69 0,4.04 l -0.83,0 c 0,-1.35 0.01,-2.69 0.01,-4.04 -13.34,-0.12 -26.68,-0.01 -40.02,-0.04 0.08,-20.31 -0.09,-40.62 0.09,-60.920001 m 0.8,0.82 c -0.13,19.760001 0.01,39.530001 -0.07,59.290001 26.4,-0.02 52.81,-0.03 79.22,0 -0.07,-19.76 0.05,-39.53 -0.07,-59.290001 -26.36,0 -52.72,0 -79.08,0 z" />
  <path
     style="fill:#070707"
     inkscape:connector-curvature="0"
     id="path17"
     d="m 112.34323,42.343224 c 0.73,0.73 0.73,0.73 0,0 z" />
  <path
     style="fill:#070707"
     inkscape:connector-curvature="0"
     id="path43"
     d="m 112.34323,48.343224 c 0.72,0.73 0.72,0.73 0,0 z" />
  <path
     style="fill:#070707"
     inkscape:connector-curvature="0"
     id="path47"
     d="m 140.46323,84.253224 c 1.29,0.45 1.29,4.39 0,4.84 -0.62,-1.47 -0.62,-3.37 0,-4.84 z" />
  <path
     style="fill:#070707"
     inkscape:connector-curvature="0"
     id="path49"
     d="m 320.87323,89.093224 c -1.29,-0.46 -1.29,-4.39 0.01,-4.84 0.61,1.47 0.61,3.37 -0.01,4.84 z" />
  <path
     style="fill:#070707"
     inkscape:connector-curvature="0"
     id="path73"
     d="m 140.46323,94.253224 c 1.29,0.45 1.29,4.39 0,4.84 -0.62,-1.47 -0.62,-3.37 0,-4.84 z" />
  <path
     style="fill:#070707"
     inkscape:connector-curvature="0"
     id="path75"
     d="m 320.46323,99.093224 c -0.46,-1.31 -1.03,-4.25 0.42,-4.84 0.45,1.31 1.02,4.24 -0.42,4.84 z" />
  <path
     style="fill:#070707"
     inkscape:connector-curvature="0"
     id="path77"
     d="m 14.863228,102.51322 c -0.9,-3.749996 2.54,-4.399996 5,-5.189996 2.06,1.12 4.26,2.52 4.75,5.009996 32.94,-0.16 65.88,-0.03 98.830002,-0.07 -0.08,-1.75 -0.18,-3.489996 -0.32,-5.239996 0.87,0.54 1.74,1.07 2.62,1.59 1.34,0.64 2.67,1.3 4.01,1.959996 1.42,0.61 2.71,1.78 4.34,1.71 5,0.08 10,-0.13 15,-0.03 0.04,8.01 -0.08,16.01 0.04,24.01 51.44,0 102.87,-0.01 154.3,0 -0.08,-1.75 -0.17,-3.5 -0.3,-5.24 0.86,0.54 1.73,1.08 2.61,1.61 0.51,0.22 1.54,0.67 2.05,0.89 0.93,0.53 1.87,1.06 2.81,1.58 2.91,1.87 6.44,1.07 9.69,1.1 -0.01,-0.51 -0.02,-1.52 -0.02,-2.03 l 0.82,0 c 0,0.51 0.01,1.52 0.02,2.02 2.66,0.02 5.32,0.05 7.99,0.08 -0.02,10.26 -0.02,20.53 0,30.8 -2.67,0.03 -5.34,0.05 -8.01,0.07 0,0.51 -0.01,1.52 -0.01,2.03 l -0.82,0 c 0,-0.51 0.01,-1.52 0.01,-2.03 -2.68,-0.02 -5.35,-0.04 -8.03,-0.07 -0.11,-9.69 0.25,-19.39 -0.14,-29.07 -1.62,-0.05 -2.91,1.15 -4.33,1.77 -0.51,0.24 -1.53,0.71 -2.03,0.95 -0.88,0.53 -1.75,1.06 -2.62,1.6 0.14,-1.76 0.24,-3.51 0.32,-5.27 -51.44,0.08 -102.87,0.01 -154.31,0.03 -0.08,17.73 -0.08,35.45 0,53.18 51.44,0.01 102.88,-0.03 154.31,0.02 -0.09,-1.76 -0.18,-3.51 -0.32,-5.26 0.87,0.54 1.75,1.07 2.64,1.59 0.96,0.45 1.92,0.91 2.87,1.38 0.49,0.28 1.47,0.83 1.96,1.1 5.76,2.57 12.38,0.5 18.5,1.16 0,10.28 -0.01,20.56 0,30.84 -6.5,0.04 -13,-0.03 -19.5,-0.06 0.66,-0.31 1.98,-0.92 2.64,-1.23 -0.05,-9.28 0.24,-18.56 -0.13,-27.83 -2.01,0.28 -3.69,1.5 -5.49,2.32 -1.19,0.63 -2.34,1.34 -3.5,2.03 0.14,-1.75 0.25,-3.5 0.33,-5.25 -51.44,0.03 -102.87,0 -154.31,0.01 -0.06,9.52 -0.11,19.05 0.02,28.58 1.21,-0.55 2.4,-1.15 3.61,-1.71 1.55,-1.2 3.16,-2.36 5.04,-2.97 -2.02,2.01 -4.51,3.49 -7.04,4.77 0.41,0.27 1.22,0.8 1.62,1.06 l -1.8,0.87 c 1.97,1.48 4.71,2.04 6.18,4.13 -2.88,-0.59 -5.01,-2.9 -7.54,-4.25 -0.27,7.56 -0.12,15.13 -0.09,22.69 51.38,0.02 102.76,0 154.14,0.01 0.09,-1.54 0.17,-3.08 0.34,-4.61 0.12,0.21 0.36,0.63 0.48,0.84 1.24,0.27 2.48,0.58 3.71,0.94 0.49,0.3 1.47,0.9 1.96,1.2 5.84,3.35 12.93,0.86 19.33,1.62 0,10.27 -0.02,20.55 0.01,30.82 -2.68,0.03 -5.35,0.05 -8.02,0.07 0,1.67 0,3.35 0,5.03 l -0.82,0.01 c 0,-1.68 0,-3.36 0,-5.04 -2.68,-0.02 -5.35,-0.04 -8.02,-0.07 -0.11,-9.69 0.26,-19.39 -0.14,-29.07 -1.62,-0.04 -2.92,1.15 -4.33,1.77 -0.51,0.24 -1.53,0.72 -2.05,0.96 -0.87,0.52 -1.73,1.04 -2.59,1.58 0.14,-1.75 0.23,-3.51 0.31,-5.26 -51.44,0.07 -102.87,0.02 -154.31,0.02 -0.08,17.73 -0.08,35.46 0,53.19 51.44,0.01 102.88,-0.03 154.31,0.02 -0.08,-1.76 -0.19,-3.51 -0.33,-5.26 1.16,0.68 2.31,1.4 3.5,2.06 1.05,0.46 2.08,0.97 3.13,1.47 3.04,2.4 6.92,1.74 10.52,1.64 -0.01,-1.34 -0.01,-2.69 0,-4.03 l 0.82,0.02 c 0,1.33 0,2.67 0,4.01 2.67,0.02 5.34,0.04 8.02,0.08 -0.02,10.27 -0.02,20.53 -0.01,30.8 -2.81,0.07 -5.72,-0.31 -8.43,0.61 -2.71,-0.9 -5.61,-0.54 -8.41,-0.61 -0.13,-9.69 0.25,-19.39 -0.15,-29.08 -1.62,0 -2.93,1.14 -4.35,1.76 -1.59,0.78 -3.16,1.61 -4.65,2.56 0.15,-1.74 0.26,-3.49 0.34,-5.24 -51.44,0.03 -102.87,0 -154.31,0.01 -0.11,16.66 -0.02,33.33 -0.04,49.99 -2.8,0.06 -5.7,-0.29 -8.41,0.61 -2.72,-0.92 -5.63,-0.54 -8.44,-0.61 0.04,-74.63 0,-149.26 0.02,-223.89 -0.02,-3.73 0.14,-7.47 -0.16,-11.19 -1.62,-0.01 -2.92,1.15 -4.34,1.78 -0.5,0.24 -1.52,0.72 -2.03,0.96 -0.87,0.52 -1.74,1.05 -2.6,1.58 0.14,-1.75 0.23,-3.51 0.31,-5.26 -32.440002,0.1 -64.880002,-0.03 -97.310002,0.06 -1.91,-0.47 -2.72,1.48 -3.31,2.89 -1.64,0.78 -3.38,1.58 -5.24,1.13 -1.34,-1.13 -2.49,-2.53 -3.01,-4.24 l -0.4,0.62 0,-1.86 0.69,0.86 m 118.110002,0.59 c 0.24,78.38 0.06,156.76 0.09,235.14 5.07,0.09 10.14,0.1 15.22,0 -0.02,-78.39 -0.02,-156.78 0,-235.18 -5.1,-0.06 -10.21,0.11 -15.31,0.04 m 180,24.06 c 0.26,9.7 0.05,19.4 0.09,29.1 5.07,0.07 10.15,0.07 15.23,0 -0.04,-9.73 -0.03,-19.45 -0.01,-29.18 -5.1,-0.12 -10.21,0 -15.31,0.08 m 0,53.92 c 0.23,9.71 0.09,19.43 0.07,29.14 5.08,0.03 10.16,0.08 15.24,0.06 -0.03,-9.74 -0.03,-19.48 0,-29.22 -5.11,-0.07 -10.21,0.13 -15.31,0.02 m 0,54.01 c 0.26,9.72 0.04,19.45 0.09,29.17 5.07,0.06 10.15,0.07 15.23,0 -0.04,-9.73 -0.03,-19.47 -0.01,-29.2 -5.11,-0.07 -10.21,0.12 -15.31,0.03 m 0,54.08 c 0.26,9.69 0.04,19.38 0.09,29.08 5.07,0.09 10.15,0.08 15.22,-0.01 -0.03,-9.72 -0.03,-19.44 0,-29.16 -5.1,-0.12 -10.2,-0.02 -15.31,0.09 z" />
  <path
     style="fill:#070707"
     inkscape:connector-curvature="0"
     id="path79"
     d="m 320.46323,104.25322 c 1.29,0.45 1.29,4.38 0,4.84 -0.62,-1.47 -0.62,-3.37 0,-4.84 z" />
  <path
     style="fill:#070707"
     inkscape:connector-curvature="0"
     id="path113"
     d="m 320.46323,114.25322 c 1.29,0.46 1.29,4.39 0,4.84 -0.62,-1.47 -0.62,-3.37 0,-4.84 z" />
  <path
     style="fill:#070707"
     inkscape:connector-curvature="0"
     id="path115"
     d="m 320.46323,164.25322 c 1.44,0.59 0.87,3.53 0.41,4.84 -1.44,-0.6 -0.87,-3.53 -0.41,-4.84 z" />
  <path
     style="fill:#070707"
     inkscape:connector-curvature="0"
     id="path135"
     d="m 320.46323,179.09322 c -0.46,-1.31 -1.03,-4.25 0.42,-4.84 0.45,1.3 1.02,4.24 -0.42,4.84 z" />
  <path
     style="fill:#070707"
     inkscape:connector-curvature="0"
     id="path153"
     d="m 154.31323,210.43322 c 1.24,-0.61 2.48,-0.61 3.72,0 -0.01,1.34 -3.71,1.34 -3.72,0 z" />
  <path
     style="fill:#070707"
     inkscape:connector-curvature="0"
     id="path155"
     d="m 160.31323,210.90322 c 0.16,-1.42 2.77,-0.98 3.72,-0.47 -0.16,1.42 -2.78,0.98 -3.72,0.47 z" />
  <path
     style="fill:#070707"
     inkscape:connector-curvature="0"
     id="path157"
     d="m 166.31323,210.43322 c 0.94,-0.51 3.57,-0.95 3.72,0.48 -0.95,0.5 -3.57,0.94 -3.72,-0.48 z" />
  <path
     style="fill:#070707"
     inkscape:connector-curvature="0"
     id="path159"
     d="m 172.31323,210.91322 c 0.15,-1.43 2.77,-0.99 3.72,-0.48 -0.15,1.42 -2.78,0.98 -3.72,0.48 z" />
  <path
     style="fill:#070707"
     inkscape:connector-curvature="0"
     id="path161"
     d="m 178.31323,210.91322 c 0.01,-1.35 3.71,-1.35 3.72,0 -1.24,0.6 -2.48,0.6 -3.72,0 z" />
  <path
     style="fill:#070707"
     inkscape:connector-curvature="0"
     id="path163"
     d="m 184.31323,210.43322 c 0.94,-0.51 3.57,-0.95 3.72,0.48 -0.95,0.5 -3.57,0.94 -3.72,-0.48 z" />
  <path
     style="fill:#070707"
     inkscape:connector-curvature="0"
     id="path165"
     d="m 190.31323,210.91322 c 0.01,-1.35 3.71,-1.35 3.72,0 -1.24,0.6 -2.48,0.6 -3.72,0 z" />
  <path
     style="fill:#070707"
     inkscape:connector-curvature="0"
     id="path167"
     d="m 196.31323,210.43322 c 0.95,-0.51 3.57,-0.95 3.72,0.48 -0.95,0.5 -3.57,0.94 -3.72,-0.48 z" />
  <path
     style="fill:#070707"
     inkscape:connector-curvature="0"
     id="path169"
     d="m 202.31323,210.91322 c 0.15,-1.43 2.77,-0.99 3.72,-0.48 -0.15,1.42 -2.78,0.98 -3.72,0.48 z" />
  <path
     style="fill:#070707"
     inkscape:connector-curvature="0"
     id="path171"
     d="m 208.31323,210.43322 c 1.24,-0.61 2.48,-0.61 3.72,0 -0.01,1.34 -3.71,1.34 -3.72,0 z" />
  <path
     style="fill:#070707"
     inkscape:connector-curvature="0"
     id="path173"
     d="m 214.31323,210.91322 c 0.15,-1.43 2.77,-0.99 3.72,-0.47 -0.16,1.41 -2.78,0.97 -3.72,0.47 z" />
  <path
     style="fill:#070707"
     inkscape:connector-curvature="0"
     id="path175"
     d="m 220.31323,210.43322 c 1.23,-0.61 2.48,-0.61 3.72,0 -0.01,1.34 -3.71,1.35 -3.72,0 z" />
  <path
     style="fill:#070707"
     inkscape:connector-curvature="0"
     id="path177"
     d="m 226.31323,210.91322 c 0.01,-1.35 3.7,-1.35 3.72,-0.01 -1.24,0.61 -2.48,0.61 -3.72,0.01 z" />
  <path
     style="fill:#070707"
     inkscape:connector-curvature="0"
     id="path179"
     d="m 232.31323,210.44322 c 0.94,-0.52 3.56,-0.96 3.72,0.46 -0.95,0.51 -3.57,0.95 -3.72,-0.46 z" />
  <path
     style="fill:#070707"
     inkscape:connector-curvature="0"
     id="path181"
     d="m 238.31323,210.43322 c 0.94,-0.51 3.56,-0.95 3.72,0.47 -0.95,0.51 -3.57,0.95 -3.72,-0.47 z" />
  <path
     style="fill:#070707"
     inkscape:connector-curvature="0"
     id="path183"
     d="m 244.31323,210.90322 c 0.01,-1.34 3.71,-1.34 3.72,0.01 -1.25,0.6 -2.49,0.6 -3.72,-0.01 z" />
  <path
     style="fill:#070707"
     inkscape:connector-curvature="0"
     id="path185"
     d="m 250.31323,210.44322 c 0.94,-0.52 3.56,-0.96 3.72,0.46 -0.95,0.51 -3.57,0.95 -3.72,-0.46 z" />
  <path
     style="fill:#070707"
     inkscape:connector-curvature="0"
     id="path187"
     d="m 256.31323,210.91322 c 0.01,-1.35 3.71,-1.35 3.72,0 -1.24,0.6 -2.49,0.6 -3.72,0 z" />
  <path
     style="fill:#070707"
     inkscape:connector-curvature="0"
     id="path189"
     d="m 262.31323,210.43322 c 1.23,-0.61 2.48,-0.61 3.72,0 -0.01,1.34 -3.71,1.35 -3.72,0 z" />
  <path
     style="fill:#070707"
     inkscape:connector-curvature="0"
     id="path191"
     d="m 268.31323,210.43322 c 1.24,-0.61 2.48,-0.61 3.72,0 -0.02,1.34 -3.71,1.34 -3.72,0 z" />
  <path
     style="fill:#070707"
     inkscape:connector-curvature="0"
     id="path193"
     d="m 274.31323,210.91322 c 0.01,-1.35 3.7,-1.35 3.72,0 -1.24,0.6 -2.48,0.6 -3.72,0 z" />
  <path
     style="fill:#070707"
     inkscape:connector-curvature="0"
     id="path195"
     d="m 280.31323,210.91322 c 0.01,-1.35 3.7,-1.35 3.72,0 -1.24,0.6 -2.48,0.6 -3.72,0 z" />
  <path
     style="fill:#070707"
     inkscape:connector-curvature="0"
     id="path197"
     d="m 286.31323,210.91322 c 0.15,-1.43 2.77,-0.99 3.72,-0.48 -0.16,1.42 -2.78,0.98 -3.72,0.48 z" />
  <path
     style="fill:#070707"
     inkscape:connector-curvature="0"
     id="path199"
     d="m 292.31323,210.91322 c 0.01,-1.35 3.7,-1.35 3.72,0 -1.24,0.6 -2.48,0.6 -3.72,0 z" />
  <path
     style="fill:#070707"
     inkscape:connector-curvature="0"
     id="path201"
     d="m 298.31323,210.90322 c 0.15,-1.42 2.77,-0.98 3.72,-0.47 -0.16,1.42 -2.78,0.98 -3.72,0.47 z" />
  <path
     style="fill:#070707"
     inkscape:connector-curvature="0"
     id="path203"
     d="m 304.31323,210.44322 c 0.94,-0.52 3.56,-0.96 3.72,0.47 -0.95,0.5 -3.57,0.94 -3.72,-0.47 z" />
  <path
     style="fill:#070707"
     inkscape:connector-curvature="0"
     id="path205"
     d="m 320.46323,214.25322 c 1.44,0.59 0.87,3.53 0.42,4.84 -1.45,-0.6 -0.88,-3.54 -0.42,-4.84 z" />
  <path
     style="fill:#070707"
     inkscape:connector-curvature="0"
     id="path257"
     d="m 320.46323,224.25322 c 1.29,0.45 1.29,4.39 0,4.83 -0.62,-1.46 -0.62,-3.36 0,-4.83 z" />
  <path
     style="fill:#070707"
     inkscape:connector-curvature="0"
     id="path277"
     d="m 320.46323,274.29322 c 1.49,0.87 0.82,4.16 0.41,5.76 -1.49,-0.88 -0.82,-4.17 -0.41,-5.76 z" />
  <path
     style="fill:#070707"
     inkscape:connector-curvature="0"
     id="path291"
     d="m 320.47323,324.29322 c 1.48,0.88 0.81,4.16 0.41,5.76 -1.5,-0.88 -0.83,-4.17 -0.41,-5.76 z" />
  <path
     style="fill:#070707"
     inkscape:connector-curvature="0"
     id="path293"
     d="m 320.46323,334.30322 c 1.5,0.85 0.82,4.16 0.42,5.75 -1.5,-0.88 -0.82,-4.17 -0.42,-5.75 z" />
  <path
     style="fill:#070707"
     inkscape:connector-curvature="0"
     id="path295"
     d="m 140.46323,344.29322 c 1.5,0.87 0.82,4.16 0.42,5.76 -1.5,-0.88 -0.82,-4.17 -0.42,-5.76 z" />
  <path
     style="fill:#070707"
     inkscape:connector-curvature="0"
     id="path297"
     d="m 320.46323,344.29322 c 1.5,0.87 0.82,4.17 0.41,5.76 -1.49,-0.88 -0.82,-4.17 -0.41,-5.76 z" />
  <path
     style="fill:#070707"
     inkscape:connector-curvature="0"
     id="path299"
     d="m 140.43323,358.03322 c -0.51,-0.95 -0.95,-3.57 0.48,-3.72 0.5,0.94 0.94,3.57 -0.48,3.72 z" />
  <path
     style="fill:#070707"
     inkscape:connector-curvature="0"
     id="path301"
     d="m 320.44323,354.31322 c 1.41,0.15 0.97,2.77 0.46,3.72 -1.42,-0.16 -0.98,-2.78 -0.46,-3.72 z" />
  <path
     style="fill:#ffffff"
     inkscape:connector-curvature="0"
     id="path322"
     d="m 132.97323,103.10322 c 5.1,0.07 10.21,-0.1 15.31,-0.04 -0.02,78.4 -0.02,156.79 0,235.18 -5.08,0.1 -10.15,0.09 -15.22,0 -0.03,-78.38 0.15,-156.76 -0.09,-235.14 z" />
  <path
     style="fill:#ffffff"
     inkscape:connector-curvature="0"
     id="path332"
     d="m 312.97323,127.16322 c 5.1,-0.08 10.21,-0.2 15.31,-0.08 -0.02,9.73 -0.03,19.45 0.01,29.18 -5.08,0.07 -10.16,0.07 -15.23,0 -0.04,-9.7 0.17,-19.4 -0.09,-29.1 z" />
  <path
     style="fill:#ffffff"
     inkscape:connector-curvature="0"
     id="path338"
     d="m 312.97323,181.08322 c 5.1,0.11 10.2,-0.09 15.31,-0.02 -0.03,9.74 -0.03,19.48 0,29.22 -5.08,0.02 -10.16,-0.03 -15.24,-0.06 0.02,-9.71 0.16,-19.43 -0.07,-29.14 z" />
  <path
     style="fill:#ffffff"
     inkscape:connector-curvature="0"
     id="path364"
     d="m 312.97323,235.09322 c 5.1,0.09 10.2,-0.1 15.31,-0.03 -0.02,9.73 -0.03,19.47 0.01,29.2 -5.08,0.07 -10.16,0.06 -15.23,0 -0.05,-9.72 0.17,-19.45 -0.09,-29.17 z" />
  <path
     style="fill:#ffffff"
     inkscape:connector-curvature="0"
     id="path380"
     d="m 312.97323,289.17322 c 5.11,-0.11 10.21,-0.21 15.31,-0.09 -0.03,9.72 -0.03,19.44 0,29.16 -5.07,0.09 -10.15,0.1 -15.22,0.01 -0.05,-9.7 0.17,-19.39 -0.09,-29.08 z" />
  <text
     xml:space="preserve"
     style="font-size:11.19999981px;font-style:normal;font-variant:normal;font-weight:normal;font-stretch:normal;text-align:start;line-height:125%;letter-spacing:0px;word-spacing:0px;writing-mode:lr-tb;text-anchor:start;fill:#000000;fill-opacity:1;stroke:none;font-family:Liberation Sans;-inkscape-font-specification:Liberation Sans"
     x="45.575081"
     y="99.234375"
     id="text3551"
     sodipodi:linespacing="125%"><tspan
       sodipodi:role="line"
       id="tspan3553"
       x="45.575081"
       y="99.234375">checkEmail</tspan></text>
  <text
     xml:space="preserve"
     style="font-size:11.19999981px;font-style:normal;font-variant:normal;font-weight:normal;font-stretch:normal;text-align:start;line-height:125%;letter-spacing:0px;word-spacing:0px;writing-mode:lr-tb;text-anchor:start;fill:#000000;fill-opacity:1;stroke:none;font-family:Liberation Sans;-inkscape-font-specification:Liberation Sans"
     x="114.09784"
     y="49.426754"
     id="text3555"
     sodipodi:linespacing="125%"><tspan
       sodipodi:role="line"
       id="tspan3557"
       x="114.09784"
       y="49.426754">:Computer</tspan></text>
  <text
     xml:space="preserve"
     style="font-size:11.19999981px;font-style:normal;font-variant:normal;font-weight:normal;font-stretch:normal;text-align:start;line-height:125%;letter-spacing:0px;word-spacing:0px;writing-mode:lr-tb;text-anchor:start;fill:#000000;fill-opacity:1;stroke:none;font-family:Liberation Sans;-inkscape-font-specification:Liberation Sans"
     x="302.18909"
     y="50.529293"
     id="text3559"
     sodipodi:linespacing="125%"><tspan
       sodipodi:role="line"
       id="tspan3561"
       x="302.18909"
       y="50.529293">:Server</tspan></text>
  <text
     xml:space="preserve"
     style="font-size:11.19999981px;font-style:normal;font-variant:normal;font-weight:normal;font-stretch:normal;text-align:start;line-height:125%;letter-spacing:0px;word-spacing:0px;writing-mode:lr-tb;text-anchor:start;fill:#000000;fill-opacity:1;stroke:none;font-family:Liberation Sans;-inkscape-font-specification:Liberation Sans"
     x="184.94444"
     y="123.22168"
     id="text3563"
     sodipodi:linespacing="125%"><tspan
       sodipodi:role="line"
       id="tspan3565"
       x="184.94444"
       y="123.22168">sendUnsentEmail</tspan></text>
  <text
     xml:space="preserve"
     style="font-size:11.19999981px;font-style:normal;font-variant:normal;font-weight:normal;font-stretch:normal;text-align:start;line-height:125%;letter-spacing:0px;word-spacing:0px;writing-mode:lr-tb;text-anchor:start;fill:#000000;fill-opacity:1;stroke:none;font-family:Liberation Sans;-inkscape-font-specification:Liberation Sans"
     x="204.35031"
     y="177.04297"
     id="text3567"
     sodipodi:linespacing="125%"><tspan
       sodipodi:role="line"
       id="tspan3569"
       x="204.35031"
       y="177.04297">newEmail</tspan></text>
  <text
     xml:space="preserve"
     style="font-size:11.19999981px;font-style:normal;font-variant:normal;font-weight:normal;font-stretch:normal;text-align:start;line-height:125%;letter-spacing:0px;word-spacing:0px;writing-mode:lr-tb;text-anchor:start;fill:#000000;fill-opacity:1;stroke:none;font-family:Liberation Sans;-inkscape-font-specification:Liberation Sans"
     x="205.47141"
     y="204.75293"
     id="text3571"
     sodipodi:linespacing="125%"><tspan
       sodipodi:role="line"
       id="tspan3573"
       x="205.47141"
       y="204.75293">response</tspan></text>
  <text
     xml:space="preserve"
     style="font-size:11.19999981px;font-style:normal;font-variant:normal;font-weight:normal;font-stretch:normal;text-align:start;line-height:125%;letter-spacing:0px;word-spacing:0px;writing-mode:lr-tb;text-anchor:start;fill:#000000;fill-opacity:1;stroke:none;font-family:Liberation Sans;-inkscape-font-specification:Liberation Sans"
     x="161.64484"
     y="229.81836"
     id="text3575"
     sodipodi:linespacing="125%"><tspan
       sodipodi:role="line"
       id="tspan3577"
       x="161.64484"
       y="229.81836">[newEmail] downloadEmail</tspan></text>
  <text
     xml:space="preserve"
     style="font-size:11.19999981px;font-style:normal;font-variant:normal;font-weight:normal;font-stretch:normal;text-align:start;line-height:125%;letter-spacing:0px;word-spacing:0px;writing-mode:lr-tb;text-anchor:start;fill:#000000;fill-opacity:1;stroke:none;font-family:Liberation Sans;-inkscape-font-specification:Liberation Sans"
     x="190.78233"
     y="284.25681"
     id="text3579"
     sodipodi:linespacing="125%"><tspan
       sodipodi:role="line"
       id="tspan3581"
       x="190.78233"
       y="284.25681">deleteOldEmail</tspan></text>
</svg>
