<?xml version="1.0" encoding="UTF-8" standalone="no"?><svg xmlns="http://www.w3.org/2000/svg" xmlns:xlink="http://www.w3.org/1999/xlink" clip-rule="evenodd" stroke-miterlimit="10" viewBox="0 0 178 47"><desc>SVG generated by Keynote</desc><defs></defs><g transform="matrix(1.00, 0.00, -0.00, -1.00, 0.0, 47.0)"><path d="M 176.0 45.0 L 176.0 26.6 C 176.0 16.5 167.8 8.0 157.6 8.0 L 13.0 8.0 L 13.0 3.0 L 2.0 13.5 L 13.0 24.0 L 13.0 19.0 L 157.6 19.0 C 162.0 19.0 166.0 22.3 166.0 26.6 L 166.0 45.0 L 176.0 45.0 Z M 176.0 45.0 " fill="#BAE0E3"></path><path d="M 0.0 42.0 L 0.0 23.6 C 0.0 13.5 8.2 5.0 18.4 5.0 L 163.0 5.0 L 163.0 0.0 L 174.0 10.5 L 163.0 21.0 L 163.0 16.0 L 18.4 16.0 C 14.0 16.0 10.0 19.3 10.0 23.6 L 10.0 42.0 L 0.0 42.0 Z M 0.0 42.0 " fill="none" stroke="#88A4A7" stroke-width="2.00" stroke-linejoin="round" transform="matrix(-1.00, 0.00, 0.00, 1.00, 176.0, 3.0)"></path></g></svg>