<?xml version="1.0" encoding="UTF-8" standalone="no"?><svg xmlns="http://www.w3.org/2000/svg" xmlns:xlink="http://www.w3.org/1999/xlink" clip-rule="evenodd" stroke-miterlimit="10" viewBox="0 0 147 19"><desc>SVG generated by Keynote</desc><defs></defs><g transform="matrix(1.00, 0.00, -0.00, -1.00, 0.0, 19.0)"><text xml:space="preserve" font-family="MyriadPro-BoldCond,Myriad Pro" font-weight="bold" font-size="18.0" fill="#000000" transform="matrix(1.00, 0.00, -0.00, -1.00, 1.6, 5.4)">H</text><text xml:space="preserve" font-family="MyriadPro-BoldCond,Myriad Pro" font-weight="bold" font-size="18.0" fill="#000000" transform="matrix(1.00, 0.00, -0.00, -1.00, 10.8, 5.4)">i</text><text xml:space="preserve" font-family="MyriadPro-BoldCond,Myriad Pro" font-weight="bold" font-size="18.0" fill="#000000" transform="matrix(1.00, 0.00, -0.00, -1.00, 14.9, 5.4)">v</text><text xml:space="preserve" font-family="MyriadPro-BoldCond,Myriad Pro" font-weight="bold" font-size="18.0" fill="#000000" transform="matrix(1.00, 0.00, -0.00, -1.00, 21.7, 5.4)">e</text><text xml:space="preserve" font-family="MyriadPro-BoldCond,Myriad Pro" font-weight="bold" font-size="18.0" fill="#000000" transform="matrix(1.00, 0.00, -0.00, -1.00, 29.3, 5.4)"> </text><text xml:space="preserve" font-family="MyriadPro-BoldCond,Myriad Pro" font-weight="bold" font-size="18.0" fill="#000000" transform="matrix(1.00, 0.00, -0.00, -1.00, 32.1, 5.4)">o</text><text xml:space="preserve" font-family="MyriadPro-BoldCond,Myriad Pro" font-weight="bold" font-size="18.0" fill="#000000" transform="matrix(1.00, 0.00, -0.00, -1.00, 39.9, 5.4)">n</text><text xml:space="preserve" font-family="MyriadPro-BoldCond,Myriad Pro" font-weight="bold" font-size="18.0" fill="#000000" transform="matrix(1.00, 0.00, -0.00, -1.00, 48.1, 5.4)"> </text><text xml:space="preserve" font-family="MyriadPro-BoldCond,Myriad Pro" font-weight="bold" font-size="18.0" fill="#000000" transform="matrix(1.00, 0.00, -0.00, -1.00, 51.0, 5.4)">H</text><text xml:space="preserve" font-family="MyriadPro-BoldCond,Myriad Pro" font-weight="bold" font-size="18.0" fill="#000000" transform="matrix(1.00, 0.00, -0.00, -1.00, 60.3, 5.4)">a</text><text xml:space="preserve" font-family="MyriadPro-BoldCond,Myriad Pro" font-weight="bold" font-size="18.0" fill="#000000" transform="matrix(1.00, 0.00, -0.00, -1.00, 67.9, 5.4)">d</text><text xml:space="preserve" font-family="MyriadPro-BoldCond,Myriad Pro" font-weight="bold" font-size="18.0" fill="#000000" transform="matrix(1.00, 0.00, -0.00, -1.00, 75.9, 5.4)">o</text><text xml:space="preserve" font-family="MyriadPro-BoldCond,Myriad Pro" font-weight="bold" font-size="18.0" fill="#000000" transform="matrix(1.00, 0.00, -0.00, -1.00, 83.7, 5.4)">o</text><text xml:space="preserve" font-family="MyriadPro-BoldCond,Myriad Pro" font-weight="bold" font-size="18.0" fill="#000000" transform="matrix(1.00, 0.00, -0.00, -1.00, 91.4, 5.4)">p</text><text xml:space="preserve" font-family="MyriadPro-BoldCond,Myriad Pro" font-weight="bold" font-size="18.0" fill="#000000" transform="matrix(1.00, 0.00, -0.00, -1.00, 99.5, 5.4)"> </text><text xml:space="preserve" font-family="MyriadPro-BoldCond,Myriad Pro" font-weight="bold" font-size="18.0" fill="#000000" transform="matrix(1.00, 0.00, -0.00, -1.00, 102.3, 5.4)">C</text><text xml:space="preserve" font-family="MyriadPro-BoldCond,Myriad Pro" font-weight="bold" font-size="18.0" fill="#000000" transform="matrix(1.00, 0.00, -0.00, -1.00, 109.5, 5.4)">l</text><text xml:space="preserve" font-family="MyriadPro-BoldCond,Myriad Pro" font-weight="bold" font-size="18.0" fill="#000000" transform="matrix(1.00, 0.00, -0.00, -1.00, 113.6, 5.4)">u</text><text xml:space="preserve" font-family="MyriadPro-BoldCond,Myriad Pro" font-weight="bold" font-size="18.0" fill="#000000" transform="matrix(1.00, 0.00, -0.00, -1.00, 121.7, 5.4)">s</text><text xml:space="preserve" font-family="MyriadPro-BoldCond,Myriad Pro" font-weight="bold" font-size="18.0" fill="#000000" transform="matrix(1.00, 0.00, -0.00, -1.00, 127.6, 5.4)">t</text><text xml:space="preserve" font-family="MyriadPro-BoldCond,Myriad Pro" font-weight="bold" font-size="18.0" fill="#000000" transform="matrix(1.00, 0.00, -0.00, -1.00, 133.1, 5.4)">e</text><text xml:space="preserve" font-family="MyriadPro-BoldCond,Myriad Pro" font-weight="bold" font-size="18.0" fill="#000000" transform="matrix(1.00, 0.00, -0.00, -1.00, 140.6, 5.4)">r</text></g></svg>