<?xml version="1.0" encoding="UTF-8" standalone="no"?><svg xmlns="http://www.w3.org/2000/svg" xmlns:xlink="http://www.w3.org/1999/xlink" clip-rule="evenodd" stroke-miterlimit="10" viewBox="0 0 80 15"><desc>SVG generated by Keynote</desc><defs></defs><g transform="matrix(1.00, 0.00, -0.00, -1.00, 0.0, 15.0)"><text xml:space="preserve" font-family="MyriadPro-BoldCond,Myriad Pro" font-weight="bold" font-size="18.0" fill="#000000" transform="matrix(1.00, 0.00, -0.00, -1.00, 1.9, 1.5)">W</text><text xml:space="preserve" font-family="MyriadPro-BoldCond,Myriad Pro" font-weight="bold" font-size="18.0" fill="#000000" transform="matrix(1.00, 0.00, -0.00, -1.00, 13.7, 1.5)">e</text><text xml:space="preserve" font-family="MyriadPro-BoldCond,Myriad Pro" font-weight="bold" font-size="18.0" fill="#000000" transform="matrix(1.00, 0.00, -0.00, -1.00, 21.3, 1.5)">b</text><text xml:space="preserve" font-family="MyriadPro-BoldCond,Myriad Pro" font-weight="bold" font-size="18.0" fill="#000000" transform="matrix(1.00, 0.00, -0.00, -1.00, 29.3, 1.5)"> </text><text xml:space="preserve" font-family="MyriadPro-BoldCond,Myriad Pro" font-weight="bold" font-size="18.0" fill="#000000" transform="matrix(1.00, 0.00, -0.00, -1.00, 32.2, 1.5)">S</text><text xml:space="preserve" font-family="MyriadPro-BoldCond,Myriad Pro" font-weight="bold" font-size="18.0" fill="#000000" transform="matrix(1.00, 0.00, -0.00, -1.00, 39.4, 1.5)">e</text><text xml:space="preserve" font-family="MyriadPro-BoldCond,Myriad Pro" font-weight="bold" font-size="18.0" fill="#000000" transform="matrix(1.00, 0.00, -0.00, -1.00, 47.0, 1.5)">r</text><text xml:space="preserve" font-family="MyriadPro-BoldCond,Myriad Pro" font-weight="bold" font-size="18.0" fill="#000000" transform="matrix(1.00, 0.00, -0.00, -1.00, 52.7, 1.5)">v</text><text xml:space="preserve" font-family="MyriadPro-BoldCond,Myriad Pro" font-weight="bold" font-size="18.0" fill="#000000" transform="matrix(1.00, 0.00, -0.00, -1.00, 59.5, 1.5)">e</text><text xml:space="preserve" font-family="MyriadPro-BoldCond,Myriad Pro" font-weight="bold" font-size="18.0" fill="#000000" transform="matrix(1.00, 0.00, -0.00, -1.00, 67.1, 1.5)">r</text><text xml:space="preserve" font-family="MyriadPro-BoldCond,Myriad Pro" font-weight="bold" font-size="18.0" fill="#000000" transform="matrix(1.00, 0.00, -0.00, -1.00, 72.4, 1.5)">s</text></g></svg>