<?xml version="1.0" encoding="UTF-8" standalone="no"?><svg xmlns="http://www.w3.org/2000/svg" xmlns:xlink="http://www.w3.org/1999/xlink" clip-rule="evenodd" stroke-miterlimit="10" viewBox="0 0 90 15"><desc>SVG generated by Keynote</desc><defs></defs><g transform="matrix(1.00, 0.00, -0.00, -1.00, 0.0, 15.0)"><text xml:space="preserve" font-family="MyriadPro-BoldCond,Myriad Pro" font-weight="bold" font-size="18.0" fill="#000000" transform="matrix(1.00, 0.00, -0.00, -1.00, 1.1, 1.5)">S</text><text xml:space="preserve" font-family="MyriadPro-BoldCond,Myriad Pro" font-weight="bold" font-size="18.0" fill="#000000" transform="matrix(1.00, 0.00, -0.00, -1.00, 8.3, 1.5)">c</text><text xml:space="preserve" font-family="MyriadPro-BoldCond,Myriad Pro" font-weight="bold" font-size="18.0" fill="#000000" transform="matrix(1.00, 0.00, -0.00, -1.00, 14.2, 1.5)">r</text><text xml:space="preserve" font-family="MyriadPro-BoldCond,Myriad Pro" font-weight="bold" font-size="18.0" fill="#000000" transform="matrix(1.00, 0.00, -0.00, -1.00, 19.4, 1.5)">i</text><text xml:space="preserve" font-family="MyriadPro-BoldCond,Myriad Pro" font-weight="bold" font-size="18.0" fill="#000000" transform="matrix(1.00, 0.00, -0.00, -1.00, 23.5, 1.5)">b</text><text xml:space="preserve" font-family="MyriadPro-BoldCond,Myriad Pro" font-weight="bold" font-size="18.0" fill="#000000" transform="matrix(1.00, 0.00, -0.00, -1.00, 31.5, 1.5)">e</text><text xml:space="preserve" font-family="MyriadPro-BoldCond,Myriad Pro" font-weight="bold" font-size="18.0" fill="#000000" transform="matrix(1.00, 0.00, -0.00, -1.00, 39.0, 1.5)"> </text><text xml:space="preserve" font-family="MyriadPro-BoldCond,Myriad Pro" font-weight="bold" font-size="18.0" fill="#000000" transform="matrix(1.00, 0.00, -0.00, -1.00, 41.9, 1.5)">S</text><text xml:space="preserve" font-family="MyriadPro-BoldCond,Myriad Pro" font-weight="bold" font-size="18.0" fill="#000000" transform="matrix(1.00, 0.00, -0.00, -1.00, 49.2, 1.5)">e</text><text xml:space="preserve" font-family="MyriadPro-BoldCond,Myriad Pro" font-weight="bold" font-size="18.0" fill="#000000" transform="matrix(1.00, 0.00, -0.00, -1.00, 56.7, 1.5)">r</text><text xml:space="preserve" font-family="MyriadPro-BoldCond,Myriad Pro" font-weight="bold" font-size="18.0" fill="#000000" transform="matrix(1.00, 0.00, -0.00, -1.00, 62.4, 1.5)">v</text><text xml:space="preserve" font-family="MyriadPro-BoldCond,Myriad Pro" font-weight="bold" font-size="18.0" fill="#000000" transform="matrix(1.00, 0.00, -0.00, -1.00, 69.3, 1.5)">e</text><text xml:space="preserve" font-family="MyriadPro-BoldCond,Myriad Pro" font-weight="bold" font-size="18.0" fill="#000000" transform="matrix(1.00, 0.00, -0.00, -1.00, 76.8, 1.5)">r</text><text xml:space="preserve" font-family="MyriadPro-BoldCond,Myriad Pro" font-weight="bold" font-size="18.0" fill="#000000" transform="matrix(1.00, 0.00, -0.00, -1.00, 82.1, 1.5)">s</text></g></svg>