<?xml version="1.0" encoding="UTF-8" standalone="no"?><svg xmlns="http://www.w3.org/2000/svg" xmlns:xlink="http://www.w3.org/1999/xlink" clip-rule="evenodd" stroke-miterlimit="10" viewBox="0 0 184 47"><desc>SVG generated by Keynote</desc><defs></defs><g transform="matrix(1.00, 0.00, -0.00, -1.00, 0.0, 47.0)"><path d="M 182.0 2.0 L 182.0 20.4 C 182.0 30.5 173.8 39.0 163.6 39.0 L 13.0 39.0 L 13.0 44.0 L 2.0 33.5 L 13.0 23.0 L 13.0 28.0 L 163.6 28.0 C 168.0 28.0 172.0 24.7 172.0 20.4 L 172.0 2.0 L 182.0 2.0 Z M 182.0 2.0 " fill="#BAE0E3"></path><path d="M 0.0 42.0 L 0.0 23.6 C 0.0 13.5 8.2 5.0 18.4 5.0 L 169.0 5.0 L 169.0 0.0 L 180.0 10.5 L 169.0 21.0 L 169.0 16.0 L 18.4 16.0 C 14.0 16.0 10.0 19.3 10.0 23.6 L 10.0 42.0 L 0.0 42.0 Z M 0.0 42.0 " fill="none" stroke="#88A4A7" stroke-width="2.00" stroke-linejoin="round" transform="matrix(-1.00, 0.00, 0.00, -1.00, 182.0, 44.0)"></path></g></svg>